<svg width="49" height="49" viewBox="0 0 49 49" fill="none" xmlns="http://www.w3.org/2000/svg">
<circle cx="24.7407" cy="24.2593" r="24.2593" fill="#0FAEA9"/>
<g clip-path="url(#clip0_424_10105)">
<path d="M24.4814 11C20.9536 11 20.5099 11.0163 19.1238 11.078C17.7377 11.143 16.7936 11.3607 15.9664 11.6825C15.0988 12.0088 14.313 12.5207 13.6638 13.1824C13.0026 13.8319 12.4907 14.6176 12.1639 15.485C11.8422 16.3105 11.6228 17.2562 11.5594 18.6375C11.4977 20.0269 11.4814 20.4689 11.4814 24.0016C11.4814 27.5311 11.4977 27.9731 11.5594 29.3593C11.6244 30.7437 11.8422 31.6879 12.1639 32.515C12.4971 33.3697 12.9407 34.0945 13.6638 34.8176C14.3853 35.5407 15.1101 35.986 15.9648 36.3175C16.7936 36.6392 17.7361 36.8586 19.1206 36.922C20.5083 36.9837 20.9503 37 24.4814 37C28.0126 37 28.4529 36.9837 29.8407 36.922C31.2236 36.857 32.1709 36.6392 32.9981 36.3175C33.8651 35.991 34.6504 35.4791 35.2991 34.8176C36.0222 34.0945 36.4658 33.3697 36.7989 32.515C37.1191 31.6879 37.3384 30.7437 37.4034 29.3593C37.4652 27.9731 37.4814 27.5311 37.4814 24C37.4814 20.4689 37.4652 20.0269 37.4034 18.6391C37.3384 17.2563 37.1191 16.3105 36.7989 15.485C36.4722 14.6176 35.9604 13.8318 35.2991 13.1824C34.6501 12.5205 33.8642 12.0085 32.9964 11.6825C32.1677 11.3607 31.2219 11.1414 29.8391 11.078C28.4513 11.0163 28.0109 11 24.4782 11H24.4831H24.4814ZM23.3163 13.3433H24.4831C27.9541 13.3433 28.3652 13.3546 29.7351 13.418C31.0026 13.4749 31.6916 13.6878 32.1498 13.8649C32.7559 14.1005 33.1898 14.3832 33.6448 14.8382C34.0998 15.2933 34.3809 15.7255 34.6166 16.3333C34.7953 16.7899 35.0066 17.4789 35.0634 18.7464C35.1268 20.1163 35.1398 20.5274 35.1398 23.9967C35.1398 27.4661 35.1268 27.8789 35.0634 29.2487C35.0066 30.5162 34.7937 31.2036 34.6166 31.6619C34.4082 32.2263 34.0755 32.7367 33.6432 33.1553C33.1882 33.6103 32.7559 33.8914 32.1482 34.127C31.6932 34.3057 31.0042 34.517 29.7351 34.5755C28.3652 34.6373 27.9541 34.6519 24.4831 34.6519C21.0121 34.6519 20.5993 34.6373 19.2294 34.5755C17.9619 34.517 17.2746 34.3057 16.8163 34.127C16.2516 33.9189 15.7408 33.5868 15.3213 33.1553C14.8887 32.7361 14.5555 32.2252 14.3463 31.6602C14.1692 31.2036 13.9563 30.5146 13.8994 29.2471C13.8377 27.8773 13.8247 27.4661 13.8247 23.9935C13.8247 20.5225 13.8377 20.113 13.8994 18.7431C13.9579 17.4756 14.1692 16.7866 14.3479 16.3284C14.5836 15.7222 14.8663 15.2884 15.3213 14.8334C15.7763 14.3784 16.2086 14.0972 16.8163 13.8616C17.2746 13.6829 17.9619 13.4716 19.2294 13.4131C20.4287 13.3579 20.8934 13.3416 23.3163 13.34V13.3433ZM31.4218 15.5012C31.217 15.5012 31.0141 15.5416 30.8248 15.62C30.6356 15.6984 30.4636 15.8133 30.3187 15.9582C30.1739 16.103 30.059 16.275 29.9806 16.4643C29.9022 16.6535 29.8618 16.8564 29.8618 17.0613C29.8618 17.2661 29.9022 17.469 29.9806 17.6582C30.059 17.8475 30.1739 18.0195 30.3187 18.1643C30.4636 18.3092 30.6356 18.4241 30.8248 18.5025C31.0141 18.5809 31.217 18.6213 31.4218 18.6213C31.8356 18.6213 32.2323 18.4569 32.5249 18.1643C32.8175 17.8718 32.9818 17.475 32.9818 17.0613C32.9818 16.6475 32.8175 16.2507 32.5249 15.9582C32.2323 15.6656 31.8356 15.5012 31.4218 15.5012ZM24.4831 17.3245C23.5976 17.3107 22.7181 17.4732 21.896 17.8025C21.0739 18.1318 20.3255 18.6214 19.6944 19.2427C19.0633 19.864 18.5622 20.6047 18.2201 21.4215C17.878 22.2384 17.7018 23.1152 17.7018 24.0008C17.7018 24.8864 17.878 25.7632 18.2201 26.5801C18.5622 27.397 19.0633 28.1376 19.6944 28.7589C20.3255 29.3803 21.0739 29.8698 21.896 30.1991C22.7181 30.5285 23.5976 30.6909 24.4831 30.6771C26.2357 30.6498 27.9073 29.9344 29.137 28.6853C30.3668 27.4362 31.056 25.7537 31.056 24.0008C31.056 22.248 30.3668 20.5654 29.137 19.3163C27.9073 18.0673 26.2357 17.3518 24.4831 17.3245ZM24.4831 19.6661C25.6325 19.6661 26.7348 20.1227 27.5476 20.9355C28.3603 21.7482 28.8169 22.8506 28.8169 24C28.8169 25.1494 28.3603 26.2518 27.5476 27.0645C26.7348 27.8773 25.6325 28.3339 24.4831 28.3339C23.3337 28.3339 22.2313 27.8773 21.4186 27.0645C20.6058 26.2518 20.1492 25.1494 20.1492 24C20.1492 22.8506 20.6058 21.7482 21.4186 20.9355C22.2313 20.1227 23.3337 19.6661 24.4831 19.6661Z" fill="white"/>
</g>
<defs>
<clipPath id="clip0_424_10105">
<rect width="26" height="26" fill="white" transform="translate(11.4814 11)"/>
</clipPath>
</defs>
</svg>
