<svg width="49" height="49" viewBox="0 0 49 49" fill="none" xmlns="http://www.w3.org/2000/svg">
<circle cx="24.7036" cy="24.2593" r="24.2593" fill="#0FAEA9"/>
<path fill-rule="evenodd" clip-rule="evenodd" d="M22.68 18.7893H27.0047V20.9436C27.6277 19.7046 29.2253 18.5914 31.6252 18.5914C36.2259 18.5914 37.3182 21.0577 37.3182 25.5827V33.9632H32.6604V26.6132C32.6604 24.0363 32.0374 22.5831 30.4515 22.5831C28.2518 22.5831 27.3377 24.1493 27.3377 26.6121V33.9632H22.68V18.7893ZM14.693 33.7652H19.3508V18.5914H14.693V33.7652ZM20.018 13.6437C20.0182 14.0341 19.9408 14.4206 19.7903 14.7808C19.6397 15.1411 19.4191 15.4678 19.1412 15.742C18.5781 16.3016 17.8158 16.6149 17.0219 16.613C16.2294 16.6125 15.4689 16.3 14.905 15.7431C14.6281 15.468 14.4082 15.1409 14.2579 14.7807C14.1077 14.4204 14.03 14.034 14.0293 13.6437C14.0293 12.8553 14.3437 12.1008 14.9061 11.5442C15.4696 10.9866 16.2304 10.674 17.0231 10.6743C17.8172 10.6743 18.5788 10.9876 19.1412 11.5442C19.7025 12.1008 20.018 12.8553 20.018 13.6437Z" fill="white"/>
</svg>
