<?xml version="1.0" encoding="utf-8"?>
<!-- Generator: Adobe Illustrator 24.2.1, SVG Export Plug-In . SVG Version: 6.00 Build 0)  -->
<svg version="1.1" id="Layer_1" xmlns="http://www.w3.org/2000/svg" xmlns:xlink="http://www.w3.org/1999/xlink" x="0px" y="0px"
	 viewBox="0 0 185 251" style="enable-background:new 0 0 185 251;" xml:space="preserve">
<style type="text/css">
	.st0{fill:#0D266D;stroke:#EEFFFE;stroke-width:2.0511;stroke-linecap:round;stroke-linejoin:round;stroke-miterlimit:10;}
	.st1{fill:#63D6D3;}
	.st2{fill:#82C60A;}
	.st3{fill:#FFFFFF;}
	.st4{fill:#5EA304;}
	.st5{fill:#74B208;}
</style>
<path class="st0" d="M115.3,212.2H70.7c-0.7,0-1.4,0.2-2,0.6L50,226.3c-1.9,1.3-1.9,4.1,0,5.5l18.7,13.5c0.6,0.4,1.3,0.6,2,0.6h44.6
	c0.7,0,1.4-0.2,2-0.6l18.7-13.5c1.9-1.3,1.9-4.1,0-5.5l-18.7-13.5C116.7,212.4,116.1,212.2,115.3,212.2z"/>
<path class="st1" d="M93.3,239.7c15.4,0.3,28.7-5.2,28.7-11.7c0.1-6.5-12.8-12.3-28.2-12.6c-15.4-0.3-28.7,5.2-28.7,11.7
	C65.5,234.1,77.9,239.4,93.3,239.7z"/>
<g>
	<path class="st2" d="M94.1,228.6c-0.5,0-1-0.3-1.2-0.9c-8.1-23.7-24.1-39.9-39.5-55.6c-22.1-22.4-43-43.5-40.3-84.1
		c2-40.9,41.8-64.1,80.3-86.6c0.2-0.1,0.4-0.2,0.6-0.2s0.4,0.1,0.6,0.2c38.2,22.3,77.6,45.3,80.3,86.6c2.7,40.5-18.2,61.7-40.3,84.1
		c-15.4,15.7-31.4,31.8-39.5,55.6C95.1,228.2,94.6,228.6,94.1,228.6z"/>
	<path class="st3" d="M94.1,2.6v2.6V2.6c39.2,22.9,77.1,45.7,79.7,85.6c4.6,68.6-60.1,81.7-79.7,139.1
		C74.5,169.8,9.8,156.8,14.4,88.2C16.3,48.3,54.9,25.5,94.1,2.6 M94.1,0L94.1,0L94.1,0c-0.4,0-0.9,0.1-1.3,0.3c0,0,0,0,0,0
		C54,23,13.9,46.4,11.8,88.1c-1.2,18.4,2.4,34.7,11.1,49.7c7.8,13.3,18.3,24,29.5,35.3c15.3,15.5,31.2,31.6,39.2,55.1
		c0.4,1,1.3,1.7,2.4,1.7s2.1-0.7,2.4-1.7c8-23.4,23.9-39.5,39.2-55.1c11.2-11.3,21.7-22,29.5-35.3c8.7-15,12.4-31.2,11.1-49.7
		c-1.2-18.6-10-35.3-26.9-50.9c-14.3-13.2-32.2-24-54-36.7c0,0,0,0,0,0C95,0.2,94.5,0,94.1,0L94.1,0z"/>
</g>
<path class="st4" d="M94.1,5.2L94.1,5.2L94.1,5.2V2.6C54.9,25.5,16.3,48.3,14.4,88.2c-4.6,68.6,60.1,81.7,79.7,139.1l0,0l0,0l0,0"/>
<g>
	<polygon class="st5" points="94.1,127.4 130,150.2 94.1,114.3 58.2,150.2 	"/>
	<polygon class="st5" points="94.1,52.9 130,75.1 94.1,39.2 58.2,75.1 	"/>
	<polygon class="st5" points="94.1,90.8 134.6,116.3 94.1,75.8 53.6,116.3 	"/>
</g>
<circle class="st1" cx="93.6" cy="96.8" r="63.6"/>
</svg>
