<svg width="50" height="49" viewBox="0 0 50 49" fill="none" xmlns="http://www.w3.org/2000/svg">
<circle cx="25.2221" cy="24.2593" r="24.2593" fill="#0FAEA9"/>
<path d="M39.2379 17.5462C38.858 16.3112 37.9081 15.2663 36.6731 14.9814C34.3933 14.3164 25.369 14.3164 25.369 14.3164C25.369 14.3164 16.3447 14.3164 14.0649 14.9814C12.83 15.3613 11.8801 16.3112 11.5001 17.5462C10.9302 19.826 10.9302 24.5756 10.9302 24.5756C10.9302 24.5756 10.9302 29.3252 11.5001 31.605C11.8801 32.8399 12.83 33.8849 14.0649 34.1698C16.3447 34.7398 25.369 34.7398 25.369 34.7398C25.369 34.7398 34.3933 34.7398 36.6731 34.1698C37.9081 33.7899 38.858 32.8399 39.2379 31.605C39.8079 29.3252 39.8079 24.5756 39.8079 24.5756C39.8079 24.5756 39.8079 19.826 39.2379 17.5462Z" fill="white"/>
<path d="M23.022 29.2105V20.6611L30.5264 24.9358L23.022 29.2105Z" fill="#0FAEA9"/>
</svg>
