<svg width="359" height="348" viewBox="0 0 359 348" fill="none" xmlns="http://www.w3.org/2000/svg">
<path d="M272.139 31.8532C274.659 36.1594 267.099 35.0829 267.099 35.0829C267.099 35.0829 257.74 23.5996 259.9 22.8819C260.26 22.8819 260.62 22.882 260.98 23.2408L263.5 24.6762C269.979 28.6235 271.779 31.1355 272.139 31.8532ZM250.541 21.4466C251.261 19.6523 248.021 16.7815 242.621 14.6284C240.462 13.9107 239.382 13.9107 238.662 13.9107C233.622 14.2696 240.821 21.8054 244.061 24.6762C244.421 24.3173 249.821 23.5997 250.541 21.4466ZM223.903 16.0638C225.703 14.6284 230.382 11.0399 218.863 6.7337C216.343 6.37485 213.464 6.73371 212.024 7.09256C203.384 9.96336 218.863 18.5758 218.863 18.5758C219.943 18.2169 222.103 17.1404 223.903 16.0638ZM188.626 19.2935C200.865 8.8868 191.865 6.016 187.186 4.5806C181.426 3.1452 180.706 2.78635 175.666 5.65715C166.307 11.3987 179.986 17.1404 188.626 19.2935C188.626 19.6523 188.626 19.6523 188.626 19.2935ZM155.148 30.0589C155.148 30.0589 155.508 30.0589 155.868 30.0589C162.348 16.7815 154.068 14.2696 151.188 13.5519C143.989 11.7576 134.99 11.7576 133.19 13.193C124.55 21.0877 129.23 29.3412 155.148 30.0589ZM125.63 51.59C124.91 39.0302 117.711 36.1594 115.191 35.0829C104.392 31.8532 86.7533 38.6714 86.7533 39.3891C84.2335 43.3364 86.7533 62.3555 125.63 51.59ZM105.472 84.6042C105.832 84.6042 105.832 84.6042 105.472 84.6042C101.152 75.9918 94.6727 73.121 91.433 71.6856C76.3141 66.3028 59.0355 80.6568 53.9959 84.963C62.2752 101.111 82.0737 101.111 105.472 84.6042ZM100.792 125.872C97.1925 122.642 94.3128 121.207 92.1529 120.13C61.9152 107.571 47.5164 142.738 47.5164 143.456C71.6345 160.68 92.8729 136.996 100.792 125.872ZM111.231 168.934C111.591 167.857 111.951 167.14 111.951 167.14C111.231 166.781 110.512 166.781 110.152 166.422C105.832 164.987 91.073 161.398 80.2738 169.293C67.3148 178.982 65.155 199.436 65.155 199.795C77.0341 203.025 98.6324 203.384 111.231 168.934ZM129.95 224.556C133.55 216.661 134.99 207.69 134.99 202.666C134.63 202.666 134.27 202.666 134.27 202.666C127.07 202.307 113.751 203.384 104.752 214.149C95.7526 224.556 96.4726 245.728 97.1925 246.446C105.832 245.728 121.671 242.498 129.95 224.556ZM160.908 261.517C167.387 251.469 168.107 238.551 166.307 229.221C156.948 231.015 127.43 240.345 135.35 278.742C135.35 278.742 135.35 278.742 135.71 278.742C138.589 277.665 153.348 273 160.908 261.517ZM198.705 283.048C212.024 267.977 205.544 250.034 203.024 245.01C185.026 253.623 168.827 271.924 178.906 297.043C179.626 297.402 191.145 291.661 198.705 283.048ZM239.742 294.531C259.54 274.436 248.381 256.493 242.621 250.034C234.702 256.493 210.944 279.819 228.582 303.503C229.302 303.503 235.782 298.479 239.742 294.531ZM279.338 294.173C286.898 285.919 302.737 264.388 286.538 246.804C285.458 245.728 283.658 243.934 281.138 242.498C279.338 243.216 257.02 279.819 279.338 294.173ZM322.175 266.182C324.335 262.235 332.974 240.704 325.055 228.503C323.255 226.35 319.655 222.044 312.456 220.967C302.377 260.8 316.056 265.823 322.175 266.182ZM349.533 219.173C349.533 219.173 351.693 202.666 346.293 191.9C341.974 184.364 334.774 186.518 331.894 187.953C332.254 191.541 333.694 210.202 338.014 217.738C341.254 223.479 346.293 222.761 349.533 219.173ZM354.933 163.551C354.933 163.551 353.853 156.374 349.533 147.762C348.093 145.25 343.774 138.073 336.934 149.556C338.014 152.068 343.054 165.345 347.013 170.01C351.333 175.034 354.213 170.728 354.933 163.551ZM340.534 110.083C340.534 110.083 339.814 108.647 337.654 105.417C336.574 103.982 333.334 98.9582 331.534 99.317C328.655 99.6759 328.655 111.159 328.655 111.159C328.655 111.159 336.214 121.925 340.174 123.719C344.134 125.872 343.414 118.336 340.534 110.083ZM315.696 69.8913C314.976 69.1736 314.256 68.0971 313.536 67.0205C312.456 65.944 309.216 62.7143 308.136 63.0732C306.336 63.7909 311.016 77.786 311.016 78.1449C311.016 78.5037 317.136 83.1687 320.015 83.8864C324.695 84.963 320.375 76.3506 315.696 69.8913ZM294.097 47.6426C292.657 46.2072 289.778 42.6187 284.738 38.6714C284.378 38.3125 282.938 37.236 282.218 37.5948C281.138 38.6714 289.058 51.9488 289.418 52.3077C289.418 52.3077 292.657 53.7431 294.817 54.1019C298.777 54.4608 296.617 50.8723 294.097 47.6426Z" fill="black" fill-opacity="0.02"/>
<path d="M264.58 44.4129C263.14 50.5133 253.061 51.9487 251.621 51.9487C242.261 37.5947 244.061 27.9058 256.3 27.9058C260.26 31.8531 266.02 39.389 264.58 44.4129Z" fill="black" fill-opacity="0.02"/>
<path d="M242.261 38.3125C240.461 41.901 236.142 44.7718 232.902 46.2072C219.223 33.6475 219.223 22.5231 232.542 19.6523C235.782 22.1643 246.221 30.4178 242.261 38.3125Z" fill="black" fill-opacity="0.02"/>
<path d="M216.703 41.183C215.623 42.6184 214.184 44.4127 213.104 45.8481C211.664 45.1304 199.065 37.9534 196.545 29.6998C194.385 22.8817 202.664 17.1401 204.464 16.4224H204.824C214.544 21.0874 224.983 28.9821 216.703 41.183Z" fill="black" fill-opacity="0.02"/>
<path d="M192.225 51.2308C185.746 49.7954 173.507 45.1304 168.827 38.6711C162.707 30.0587 170.627 21.4463 170.987 21.4463C170.987 21.4463 174.946 21.4463 183.226 24.6759C195.465 29.6998 198.705 39.0299 192.225 51.2308C192.585 51.2308 192.585 51.2308 192.225 51.2308Z" fill="black" fill-opacity="0.02"/>
<path d="M174.586 63.0731C135.35 64.8673 134.63 40.8244 137.149 36.877C137.149 36.877 149.748 34.3651 161.987 39.0301C176.746 45.4894 174.586 63.0731 174.586 63.0731Z" fill="black" fill-opacity="0.02"/>
<path d="M161.268 81.0157C135.35 90.3458 115.191 83.8865 109.792 64.8674C110.151 64.1497 130.67 55.1785 145.069 61.2789C152.988 65.2263 158.388 71.6856 161.268 81.0157Z" fill="black" fill-opacity="0.02"/>
<path d="M155.148 103.982C132.47 121.566 109.432 121.566 95.0327 103.623C101.872 96.805 119.871 82.451 140.029 91.4223C143.269 92.8577 149.749 96.4462 155.148 103.982C155.508 103.982 155.508 103.982 155.148 103.982Z" fill="black" fill-opacity="0.02"/>
<path d="M157.668 129.101C151.908 138.073 130.67 165.704 97.9124 147.044C97.9124 146.326 114.831 105.776 153.708 126.231C154.428 126.948 156.228 127.666 157.668 129.101Z" fill="black" fill-opacity="0.02"/>
<path d="M165.227 162.116C152.988 189.388 131.75 191.183 115.911 187.953C115.551 187.235 121.311 142.379 165.227 152.427C165.587 152.427 167.387 152.786 168.827 153.503C167.387 156.733 165.947 159.963 165.227 162.116Z" fill="black" fill-opacity="0.02"/>
<path d="M180.346 198.719C171.707 215.584 153.708 219.532 143.989 220.608C143.269 219.891 142.549 198.36 152.628 186.159C161.988 175.034 177.466 173.24 183.946 172.881C185.026 172.881 185.746 172.881 186.106 172.881C186.106 181.853 183.946 191.542 180.346 198.719Z" fill="black" fill-opacity="0.02"/>
<path d="M204.464 224.556C196.905 236.039 182.866 241.422 178.546 242.857H178.186C165.947 202.307 197.985 189.747 207.704 186.876C211.304 197.283 212.024 212.714 204.464 224.556Z" fill="black" fill-opacity="0.02"/>
<path d="M234.702 238.192C228.582 247.163 218.503 254.34 217.783 253.981C201.584 227.426 214.903 204.819 232.902 192.977C236.502 198.718 247.661 218.814 234.702 238.192Z" fill="black" fill-opacity="0.02"/>
<path d="M264.58 246.087C263.5 247.881 261.34 250.752 258.82 253.623C256.66 253.623 228.942 228.503 257.02 191.9C265.659 198.719 282.938 218.096 264.58 246.087Z" fill="black" fill-opacity="0.02"/>
<path d="M295.897 239.269C286.538 235.321 266.379 221.685 278.978 181.853H279.338C284.738 184.364 287.978 187.235 290.498 189.388C306.696 205.178 302.737 225.273 295.897 239.269Z" fill="black" fill-opacity="0.02"/>
<path d="M323.615 211.278C310.656 212.713 295.177 201.589 294.817 165.345C300.217 165.704 307.776 167.498 314.976 174.316C326.135 186.159 324.335 207.331 323.615 211.278C323.975 211.278 323.975 211.278 323.615 211.278Z" fill="black" fill-opacity="0.02"/>
<path d="M337.294 173.958C327.575 182.57 313.176 176.47 303.097 144.173C306.336 142.738 317.856 139.508 326.495 148.838C333.694 157.092 336.574 168.216 337.294 173.958C337.654 173.958 337.654 173.958 337.294 173.958Z" fill="black" fill-opacity="0.02"/>
<path d="M336.214 133.408C333.334 144.532 322.175 150.274 303.457 120.848C311.016 111.877 319.295 111.518 327.575 120.489C334.054 128.384 336.214 133.408 336.214 133.408Z" fill="black" fill-opacity="0.02"/>
<path d="M322.895 95.7282C323.255 98.2402 326.495 120.13 304.897 105.058C302.017 103.264 296.617 98.599 296.617 98.2402C296.617 98.2402 299.497 86.3981 306.336 85.6804C308.136 85.3216 313.176 86.0393 321.455 94.2928C322.895 95.7282 322.895 95.7282 322.895 95.7282Z" fill="black" fill-opacity="0.02"/>
<path d="M304.536 71.3266C309.936 91.0634 288.698 80.6567 284.378 78.5036C283.658 72.0443 283.298 52.3076 302.017 64.5085C303.816 67.7381 304.536 70.6089 304.536 71.3266Z" fill="black" fill-opacity="0.02"/>
<path d="M285.458 56.6137C285.818 65.585 273.219 63.7907 269.259 62.7142C264.58 49.7956 265.659 38.3124 278.978 42.2597C281.858 46.2071 285.458 52.3075 285.458 56.6137Z" fill="black" fill-opacity="0.02"/>
<path d="M254.5 20.011C254.14 19.6521 253.421 19.6521 253.061 19.2933C252.341 18.9344 251.261 18.2167 249.821 17.499L250.541 17.8579L254.5 20.011Z" fill="black" fill-opacity="0.02"/>
<path d="M236.142 11.7575C235.062 11.3987 233.622 11.0398 231.462 11.0398H231.102C231.102 11.0398 227.862 9.24557 227.502 8.88672L230.022 9.60441C231.822 10.3221 234.342 11.0398 236.142 11.7575Z" fill="black" fill-opacity="0.02"/>
<path d="M205.184 4.93947C204.104 4.93947 203.024 5.29832 201.945 5.29832C201.585 5.29832 201.225 5.65717 200.865 5.29832C200.865 5.29832 194.745 3.50406 194.745 2.06866C195.465 1.35096 198.705 1.70981 201.225 2.06866L206.264 3.14522L212.384 4.58061C209.864 4.58061 207.344 4.58062 205.184 4.93947Z" fill="black" fill-opacity="0.02"/>
<path d="M158.748 8.16902C156.948 8.16902 142.549 6.73363 145.789 3.50398C145.789 3.50398 151.908 -1.16108 165.587 0.274321C169.547 0.992021 169.907 1.70973 167.747 3.14513C167.027 3.86283 159.468 8.52787 158.748 8.16902Z" fill="black" fill-opacity="0.02"/>
<path d="M112.671 26.1115C105.832 27.5469 83.5136 30.7766 89.9931 21.4465C91.433 19.2934 94.6727 16.7814 95.0327 16.7814C96.8325 16.0637 105.832 13.1929 113.031 13.9106C120.951 14.6283 113.031 25.7527 112.671 26.1115C112.671 25.7527 112.671 25.7527 112.671 26.1115Z" fill="black" fill-opacity="0.02"/>
<path d="M74.1542 61.6378C36.7171 81.7334 38.157 63.0732 39.2369 60.5612C39.5969 59.8435 56.5156 47.2838 66.2348 49.0781C74.5142 50.8723 74.5142 60.9201 74.1542 61.6378Z" fill="black" fill-opacity="0.02"/>
<path d="M55.0758 112.594C28.0779 143.814 15.1189 130.537 11.8792 125.513C14.399 120.848 27.7179 98.599 43.9167 103.264C46.0765 104.341 51.1161 106.494 55.0758 112.594Z" fill="black" fill-opacity="0.02"/>
<path d="M60.8354 168.216C55.0758 182.929 42.4768 206.254 21.5984 195.13C21.5984 194.771 25.9181 152.427 57.5956 166.063C57.9556 166.781 59.3955 167.14 60.8354 168.216Z" fill="black" fill-opacity="0.02"/>
<path d="M83.8734 227.067C79.1938 247.522 69.4745 257.211 54.7157 255.775C53.2758 253.622 48.5961 212.355 83.5135 218.096C83.8734 218.096 84.5934 218.096 85.3133 218.455C85.3133 220.608 84.5934 223.838 83.8734 227.067Z" fill="black" fill-opacity="0.02"/>
<path d="M122.751 276.23C116.631 289.507 103.672 293.814 99.7123 294.89C99.7123 294.89 95.0327 277.306 103.312 264.029C107.272 257.57 116.991 252.546 126.35 251.469C127.07 254.34 127.79 265.823 122.751 276.23Z" fill="black" fill-opacity="0.02"/>
<path d="M160.908 301.35C153.708 310.68 141.109 314.986 137.509 316.063C136.07 312.833 133.19 281.972 167.747 273.718C169.187 283.766 166.667 294.173 160.908 301.35Z" fill="black" fill-opacity="0.02"/>
<path d="M196.185 325.392C188.625 331.134 178.546 335.081 178.186 334.722C173.867 320.009 185.026 303.861 206.264 293.455C208.424 299.196 212.384 313.191 196.185 325.392Z" fill="black" fill-opacity="0.02"/>
<path d="M241.901 330.775C240.821 331.493 237.582 333.646 234.342 335.44C227.142 325.034 235.422 309.244 255.94 292.737C259.18 296.685 268.899 312.115 241.901 330.775Z" fill="black" fill-opacity="0.02"/>
<path d="M291.217 317.139C285.098 314.268 281.858 304.579 301.657 274.794C304.896 276.589 306.336 278.742 307.056 280.177C313.896 293.455 296.617 311.756 291.217 317.139Z" fill="black" fill-opacity="0.02"/>
<path d="M336.574 274.436C334.414 275.871 327.935 278.742 332.614 255.058C333.694 248.958 335.854 241.063 336.574 238.551C340.534 237.833 343.413 239.627 344.493 243.575C346.293 253.623 336.574 274.077 336.574 274.436Z" fill="black" fill-opacity="0.02"/>
<path d="M358.173 209.484C357.813 213.79 356.733 216.302 355.653 215.225C353.853 213.072 352.413 189.029 352.413 188.671C352.413 188.312 354.933 184.364 356.733 184.723C357.093 184.723 357.813 185.082 358.533 187.953C359.613 195.848 358.533 206.254 358.173 209.484Z" fill="black" fill-opacity="0.02"/>
<path d="M354.932 149.915C355.292 151.709 355.292 152.068 355.292 152.427C354.213 151.35 348.453 135.919 348.453 135.919C348.453 135.919 347.733 126.948 348.093 126.23C348.093 126.23 348.453 126.23 349.173 128.384L350.973 133.407C351.693 138.073 353.853 144.532 354.932 149.915C354.932 149.556 354.932 149.556 354.932 149.915Z" fill="black" fill-opacity="0.02"/>
<path d="M304.537 56.6137C304.177 56.6137 300.937 54.1017 300.577 53.7429C297.337 49.7955 295.177 48.0013 293.377 46.207C296.977 49.0778 301.297 53.384 304.537 56.6137C304.537 56.2548 304.537 56.2548 304.537 56.6137Z" fill="black" fill-opacity="0.02"/>
<path d="M132.83 8.52766C122.751 9.24536 117.351 9.24536 116.631 8.16881C117.711 5.65686 131.03 2.42721 140.029 2.06836C141.829 2.06836 141.829 2.42721 142.189 2.42721C141.469 3.50376 133.91 8.16881 132.83 8.52766Z" fill="black" fill-opacity="0.02"/>
<path d="M81.3538 35.083C68.0349 40.4657 52.5561 45.8485 55.4358 38.6715C58.6756 31.1356 77.0342 25.394 79.9139 25.394C86.0335 26.1117 81.7138 35.083 81.3538 35.083Z" fill="black" fill-opacity="0.02"/>
<path d="M45.3566 82.81C10.4393 115.106 10.0793 94.652 10.0793 94.2932C10.0793 93.9343 25.1982 72.4033 36.7173 73.8387C38.8771 74.5564 42.8368 75.9918 45.3566 82.81Z" fill="black" fill-opacity="0.02"/>
<path d="M36.3572 143.815C21.2384 175.393 8.27936 175.035 0 169.293C0 168.934 6.4795 132.69 29.5177 139.867C31.3176 140.585 33.4774 141.662 36.3572 143.815Z" fill="black" fill-opacity="0.02"/>
<path d="M54.7159 205.178C51.1162 230.656 42.1169 242.498 27.718 239.627C26.2781 237.474 21.9584 195.13 53.636 203.025C53.9959 203.025 54.7159 203.384 55.0759 203.384C55.0759 203.742 54.7159 204.46 54.7159 205.178Z" fill="black" fill-opacity="0.02"/>
<path d="M87.8333 271.924C84.2336 288.431 73.7944 292.019 69.4747 293.096C67.6749 291.302 57.5956 252.187 89.2732 252.187C89.2732 256.493 89.2732 264.747 87.8333 271.924Z" fill="black" fill-opacity="0.02"/>
<path d="M126.35 312.833C120.591 321.086 110.871 325.393 108.712 326.11C106.912 322.522 102.592 294.173 131.03 287.354C132.83 296.685 130.67 306.015 126.35 312.833Z" fill="black" fill-opacity="0.02"/>
<path d="M162.708 332.211C158.388 335.44 151.548 339.029 145.069 341.182C143.989 339.746 142.189 317.139 172.427 304.579C173.867 309.603 176.386 322.163 162.708 332.211Z" fill="black" fill-opacity="0.02"/>
<path d="M208.424 342.617C203.024 345.488 197.985 347.641 196.185 348C191.865 337.952 202.664 323.598 223.543 311.397C227.142 316.421 232.182 329.699 208.424 342.617Z" fill="black" fill-opacity="0.02"/>
<path d="M257.74 340.464C252.7 336.517 251.981 326.828 277.179 302.426C278.618 303.503 279.698 304.938 280.058 305.656C288.338 320.01 262.78 337.235 257.74 340.464Z" fill="black" fill-opacity="0.02"/>
<path d="M313.536 308.527C303.457 310.68 316.416 285.56 322.535 273.359C327.215 273.718 327.935 276.948 328.295 278.383C329.735 288.79 313.896 308.527 313.536 308.527Z" fill="black" fill-opacity="0.02"/>
<path d="M348.813 251.47C348.453 252.546 348.093 252.546 348.093 252.546C347.013 251.111 351.333 224.197 351.333 223.838C351.333 223.838 353.853 220.967 354.933 220.967C355.293 220.967 356.013 221.326 355.653 223.838C355.653 225.273 355.293 227.427 354.213 232.809C352.773 238.192 350.973 245.369 349.173 250.752C348.813 251.111 348.813 251.111 348.813 251.47Z" fill="black" fill-opacity="0.02"/>
<path d="M358.892 182.57C358.892 181.852 358.892 180.776 358.892 180.776C358.532 177.187 357.813 172.881 356.373 165.345C356.373 164.986 356.373 164.986 356.373 163.91C356.373 160.321 356.373 158.168 356.013 156.374L357.453 164.269C358.173 169.651 358.892 177.187 358.892 182.57Z" fill="black" fill-opacity="0.02"/>
<path d="M269.619 171.446C266.38 170.369 258.1 166.781 250.901 159.245C252.341 154.58 257.02 139.867 241.901 120.13C242.261 119.412 242.261 118.336 242.621 117.259C243.341 117.259 245.141 117.977 246.581 118.695C254.86 142.738 267.1 147.762 271.779 149.556C271.779 153.862 272.859 161.757 269.619 171.446C269.979 171.804 269.619 171.446 269.619 171.446ZM247.301 162.116C256.66 141.661 242.981 123.719 236.502 117.259C235.782 117.977 234.702 118.695 234.342 119.412C238.662 143.455 227.143 153.503 223.543 157.092C229.302 172.522 235.782 178.264 235.782 178.264C240.462 173.599 244.421 167.857 247.301 162.116ZM228.582 146.326C234.342 136.278 233.262 123.001 230.742 114.03C229.662 114.03 228.582 114.388 227.503 114.388C219.223 135.919 204.104 139.149 199.425 139.867C196.905 156.374 200.865 164.627 200.865 164.627C205.544 163.91 221.383 159.245 228.582 146.326ZM224.263 116.542C224.983 114.747 226.063 112.235 226.783 109.006C225.703 108.647 224.623 108.288 223.543 107.929C205.184 121.207 190.425 116.542 185.746 115.106C180.346 121.207 176.746 128.384 174.947 136.278C175.307 136.637 209.864 149.197 224.263 116.542ZM225.703 102.905C224.983 101.829 224.263 101.111 223.543 100.393C200.145 101.829 190.065 91.7809 186.826 88.5513C172.067 93.934 167.387 100.393 167.387 100.752C196.545 128.025 221.023 107.57 225.703 102.905ZM227.863 97.8814C227.863 97.5225 228.223 97.5225 227.863 97.8814C227.863 96.446 227.503 95.7283 227.143 95.0106C205.184 85.3216 202.305 73.4796 201.225 69.8911C186.466 67.738 179.266 70.6088 179.266 70.6088C185.746 94.2929 208.424 101.47 227.863 97.8814ZM232.542 94.6517C232.542 94.6517 232.902 94.6517 232.542 94.6517C233.262 93.5752 233.262 92.8575 233.622 92.1398C218.863 74.5561 222.103 65.226 223.183 61.2787C221.383 59.8433 219.943 59.1256 217.783 58.049C208.424 53.384 204.464 53.0251 204.464 53.0251C197.985 70.2499 209.144 86.757 232.542 94.6517ZM240.102 93.5752C235.422 73.1207 243.341 67.3791 246.221 64.8672C244.421 61.9964 240.822 56.2548 233.982 50.5132C215.264 63.4318 227.143 84.6039 238.662 94.6517C239.022 94.6517 239.382 93.934 240.102 93.5752ZM265.66 78.5035C266.02 78.5035 266.38 78.5035 266.74 78.5035C266.38 75.6327 265.66 69.1734 261.34 61.6375C242.981 62.7141 236.502 76.7092 244.061 97.8814C245.141 97.8814 246.221 97.5225 246.941 97.5225C250.541 85.3216 256.66 79.2212 265.66 78.5035ZM283.658 92.1398C284.018 89.6278 284.378 86.757 284.018 84.2451C265.3 74.915 251.261 82.092 248.021 102.546C249.101 102.905 250.181 103.264 250.901 103.623C265.66 92.4986 276.459 97.8814 280.778 100.034C281.498 98.5991 282.938 96.446 283.658 92.1398ZM292.298 148.479C290.138 138.79 285.818 131.972 283.658 128.384C280.059 129.101 268.899 131.613 250.901 113.671C249.821 113.671 248.741 114.03 247.301 114.03C246.941 119.054 260.98 156.733 292.298 148.479ZM296.257 116.183C296.257 115.824 296.257 115.824 296.257 116.183C292.658 111.518 288.698 108.288 286.538 106.494C281.498 102.905 266.38 91.4221 248.741 109.006C269.979 132.69 288.338 129.46 296.257 116.183ZM241.901 108.288C242.621 107.211 242.981 103.982 239.742 101.829L239.382 101.47C235.782 99.6756 232.182 102.188 233.262 106.135C234.342 110.441 240.102 111.877 241.901 108.288Z" fill="black" fill-opacity="0.02"/>
<mask id="mask0_383_6083" style="mask-type:luminance" maskUnits="userSpaceOnUse" x="167" y="50" width="130" height="129">
<path d="M269.619 171.446C266.38 170.369 258.1 166.781 250.901 159.245C252.341 154.58 257.02 139.867 241.901 120.13C242.261 119.412 242.261 118.336 242.621 117.259C243.341 117.259 245.141 117.977 246.581 118.695C254.86 142.738 267.1 147.762 271.779 149.556C271.779 153.862 272.859 161.757 269.619 171.446C269.979 171.804 269.619 171.446 269.619 171.446ZM247.301 162.116C256.66 141.661 242.981 123.719 236.502 117.259C235.782 117.977 234.702 118.695 234.342 119.412C238.662 143.455 227.143 153.503 223.543 157.092C229.302 172.522 235.782 178.264 235.782 178.264C240.462 173.599 244.421 167.857 247.301 162.116ZM228.582 146.326C234.342 136.278 233.262 123.001 230.742 114.03C229.662 114.03 228.582 114.388 227.503 114.388C219.223 135.919 204.104 139.149 199.425 139.867C196.905 156.374 200.865 164.627 200.865 164.627C205.544 163.91 221.383 159.245 228.582 146.326ZM224.263 116.542C224.983 114.747 226.063 112.235 226.783 109.006C225.703 108.647 224.623 108.288 223.543 107.929C205.184 121.207 190.425 116.542 185.746 115.106C180.346 121.207 176.746 128.384 174.947 136.278C175.307 136.637 209.864 149.197 224.263 116.542ZM225.703 102.905C224.983 101.829 224.263 101.111 223.543 100.393C200.145 101.829 190.065 91.7809 186.826 88.5513C172.067 93.934 167.387 100.393 167.387 100.752C196.545 128.025 221.023 107.57 225.703 102.905ZM227.863 97.8814C227.863 97.5225 228.223 97.5225 227.863 97.8814C227.863 96.446 227.503 95.7283 227.143 95.0106C205.184 85.3216 202.305 73.4796 201.225 69.8911C186.466 67.738 179.266 70.6088 179.266 70.6088C185.746 94.2929 208.424 101.47 227.863 97.8814ZM232.542 94.6517C232.542 94.6517 232.902 94.6517 232.542 94.6517C233.262 93.5752 233.262 92.8575 233.622 92.1398C218.863 74.5561 222.103 65.226 223.183 61.2787C221.383 59.8433 219.943 59.1256 217.783 58.049C208.424 53.384 204.464 53.0251 204.464 53.0251C197.985 70.2499 209.144 86.757 232.542 94.6517ZM240.102 93.5752C235.422 73.1207 243.341 67.3791 246.221 64.8672C244.421 61.9964 240.822 56.2548 233.982 50.5132C215.264 63.4318 227.143 84.6039 238.662 94.6517C239.022 94.6517 239.382 93.934 240.102 93.5752ZM265.66 78.5035C266.02 78.5035 266.38 78.5035 266.74 78.5035C266.38 75.6327 265.66 69.1734 261.34 61.6375C242.981 62.7141 236.502 76.7092 244.061 97.8814C245.141 97.8814 246.221 97.5225 246.941 97.5225C250.541 85.3216 256.66 79.2212 265.66 78.5035ZM283.658 92.1398C284.018 89.6278 284.378 86.757 284.018 84.2451C265.3 74.915 251.261 82.092 248.021 102.546C249.101 102.905 250.181 103.264 250.901 103.623C265.66 92.4986 276.459 97.8814 280.778 100.034C281.498 98.5991 282.938 96.446 283.658 92.1398ZM292.298 148.479C290.138 138.79 285.818 131.972 283.658 128.384C280.059 129.101 268.899 131.613 250.901 113.671C249.821 113.671 248.741 114.03 247.301 114.03C246.941 119.054 260.98 156.733 292.298 148.479ZM296.257 116.183C296.257 115.824 296.257 115.824 296.257 116.183C292.658 111.518 288.698 108.288 286.538 106.494C281.498 102.905 266.38 91.4221 248.741 109.006C269.979 132.69 288.338 129.46 296.257 116.183ZM241.901 108.288C242.621 107.211 242.981 103.982 239.742 101.829L239.382 101.47C235.782 99.6756 232.182 102.188 233.262 106.135C234.342 110.441 240.102 111.877 241.901 108.288Z" fill="white"/>
</mask>
<g mask="url(#mask0_383_6083)">
<path d="M150.469 201.23L315.696 201.948L316.416 5.2983L151.188 4.93945L150.469 201.23Z" fill="black" fill-opacity="0.02"/>
</g>
</svg>
