<svg width="100" height="101" viewBox="0 0 100 101" fill="none" xmlns="http://www.w3.org/2000/svg">
<path d="M37.5334 29.452C39.6152 23.8173 42.0873 20.0171 43.9089 18.0515C44.5595 17.2653 45.6004 17.0032 46.6413 17.2653C48.0725 17.6584 48.9833 18.9688 48.9833 20.4102C49.2436 26.176 51.1953 31.0245 54.1879 34.9557V39.149C51.0651 38.3627 47.422 37.0523 44.039 34.9557C41.5669 33.5142 39.355 31.6797 37.5334 29.452ZM58.3515 35.6109C58.3515 29.8451 62.9054 25.1277 68.7605 25.1277H81.6417C82.5525 25.1277 83.3332 25.9139 83.3332 26.8312C83.3332 27.0933 83.2031 27.4864 82.9428 27.7485L79.1696 33.5142V54.4807C79.1696 66.1432 69.8014 75.4471 58.3515 75.4471H48.593L38.8345 83.4405C38.4442 83.7026 37.9237 83.8337 37.5334 83.8337C26.734 83.8337 19.4477 77.9369 17.1056 74.6609C16.7153 74.1367 16.5852 73.3505 16.7153 72.6953C16.9755 72.04 17.496 71.5159 18.1465 71.3848L36.2323 66.4053C31.288 63.5224 20.8789 55.1359 20.8789 39.8042C20.8789 31.5486 22.7005 25.3898 24.1317 22.3758C24.6522 21.4586 25.563 20.9344 26.6039 20.9344C28.0351 20.9344 29.3363 21.9827 29.7266 23.4242C34.2806 38.3627 50.4146 43.3423 58.3515 43.9975V35.6109ZM68.7605 33.5142C67.5895 33.5142 66.6787 34.5626 66.6787 35.6109C66.6787 36.7903 67.5895 37.7075 68.7605 37.7075C69.8014 37.7075 70.8423 36.7903 70.8423 35.6109C70.8423 34.5626 69.8014 33.5142 68.7605 33.5142Z" fill="#006980"/>
</svg>
