<svg width="66" height="43" viewBox="0 0 66 43" fill="none" xmlns="http://www.w3.org/2000/svg">
<path d="M10.3836 42.58C4.23563 42.58 0.987625 38.868 0.987625 32.604V10.796C0.987625 4.532 4.23563 0.819998 10.3836 0.819998C16.5316 0.819998 19.7796 4.532 19.7796 10.796V15.088H13.7476V10.39C13.7476 7.722 12.4716 6.62 10.5576 6.62C8.64363 6.62 7.36763 7.722 7.36763 10.39V33.068C7.36763 35.736 8.64363 36.78 10.5576 36.78C12.4716 36.78 13.7476 35.736 13.7476 33.068V26.862H19.7796V32.604C19.7796 38.868 16.5316 42.58 10.3836 42.58ZM32.7 42.58C26.552 42.58 23.304 38.868 23.304 32.604V10.796C23.304 4.532 26.552 0.819998 32.7 0.819998C38.848 0.819998 42.096 4.532 42.096 10.796V15.088H36.064V10.39C36.064 7.722 34.788 6.62 32.874 6.62C30.96 6.62 29.684 7.722 29.684 10.39V33.068C29.684 35.736 30.96 36.78 32.874 36.78C34.788 36.78 36.064 35.736 36.064 33.068V26.862H42.096V32.604C42.096 38.868 38.848 42.58 32.7 42.58ZM45.9132 42V1.4H55.5412C62.1532 1.4 64.9952 4.474 64.9952 10.738V12.362C64.9952 16.538 63.7192 19.148 60.8772 20.308V20.424C64.2992 21.584 65.6332 24.6 65.6332 28.892V32.372C65.6332 38.636 62.3272 42 55.9472 42H45.9132ZM52.2932 17.93H54.7872C57.1652 17.93 58.6152 16.886 58.6152 13.638V11.376C58.6152 8.476 57.6292 7.2 55.3672 7.2H52.2932V17.93ZM52.2932 36.2H55.9472C58.0932 36.2 59.2532 35.214 59.2532 32.198V28.66C59.2532 24.89 58.0352 23.73 55.1352 23.73H52.2932V36.2Z" fill="#006980"/>
</svg>
