<svg width="100" height="101" viewBox="0 0 100 101" fill="none" xmlns="http://www.w3.org/2000/svg">
<path d="M21.6665 28.833V37.9997C21.6665 39.458 20.5207 40.4997 19.1665 40.4997C17.7082 40.4997 16.6665 39.458 16.6665 37.9997V27.1663C16.6665 25.3955 18.1248 23.833 19.9998 23.833H30.8332C32.1873 23.833 33.3332 24.9788 33.3332 26.333C33.3332 27.7913 32.1873 28.833 30.8332 28.833H21.6665ZM34.8957 47.1663C33.1248 47.1663 31.4582 46.2288 30.6248 44.6663C29.6873 43.208 29.6873 41.2288 30.6248 39.6663C31.4582 38.208 33.1248 37.1663 34.8957 37.1663C36.6665 37.1663 38.3332 38.208 39.2707 39.6663C40.104 41.2288 40.104 43.208 39.2707 44.6663C38.3332 46.2288 36.6665 47.1663 34.8957 47.1663ZM32.1873 50.4997H39.3748C40.3123 50.4997 41.2498 50.8122 42.0832 51.2288C38.6457 52.4788 36.0415 55.2913 35.2082 58.833H29.3748C27.8123 58.833 26.6665 57.583 26.6665 56.1247C26.6665 52.9997 29.0623 50.4997 32.1873 50.4997ZM70.5207 58.833H64.6873C63.854 55.2913 61.2498 52.4788 57.9165 51.2288C58.6457 50.8122 59.5832 50.4997 60.5207 50.4997H67.7082C70.8332 50.4997 73.3332 52.9997 73.3332 56.1247C73.3332 57.6872 72.0832 58.833 70.5207 58.833ZM61.1457 58.833C61.4582 59.6663 61.6665 60.4997 61.6665 61.333C61.6665 62.7913 60.5207 63.833 59.1665 63.833H40.8332C39.3748 63.833 38.3332 62.7913 38.3332 61.333C38.3332 60.4997 38.4373 59.6663 38.7498 58.833C39.5832 56.333 41.8748 54.458 44.5832 53.9372C44.8957 53.9372 45.3123 53.833 45.8332 53.833H54.1665C54.5832 53.833 54.9998 53.9372 55.4165 53.9372C58.1248 54.458 60.3123 56.333 61.1457 58.833ZM64.9998 47.1663C63.1248 47.1663 61.5623 46.2288 60.6248 44.6663C59.6873 43.208 59.6873 41.2288 60.6248 39.6663C61.5623 38.208 63.1248 37.1663 64.9998 37.1663C66.7707 37.1663 68.3332 38.208 69.2707 39.6663C70.2082 41.2288 70.2082 43.208 69.2707 44.6663C68.3332 46.2288 66.7707 47.1663 64.9998 47.1663ZM56.6665 43.833C56.6665 46.2288 55.3123 48.4163 53.3332 49.6663C51.2498 50.8122 48.6457 50.8122 46.6665 49.6663C44.5832 48.4163 43.3332 46.2288 43.3332 43.833C43.3332 41.5413 44.5832 39.3538 46.6665 38.1038C48.6457 36.958 51.2498 36.958 53.3332 38.1038C55.3123 39.3538 56.6665 41.5413 56.6665 43.833ZM69.1665 28.833C67.7082 28.833 66.6665 27.7913 66.6665 26.333C66.6665 24.9788 67.7082 23.833 69.1665 23.833H79.9998C81.7707 23.833 83.3332 25.3955 83.3332 27.1663V37.9997C83.3332 39.458 82.1873 40.4997 80.8332 40.4997C79.3748 40.4997 78.3332 39.458 78.3332 37.9997V28.833H69.1665ZM21.6665 72.1663H30.8332C32.1873 72.1663 33.3332 73.3122 33.3332 74.6663C33.3332 76.1247 32.1873 77.1663 30.8332 77.1663H19.9998C18.1248 77.1663 16.6665 75.708 16.6665 73.833V62.9997C16.6665 61.6455 17.7082 60.4997 19.1665 60.4997C20.5207 60.4997 21.6665 61.6455 21.6665 62.9997V72.1663ZM69.1665 72.1663H78.3332V62.9997C78.3332 61.6455 79.3748 60.4997 80.8332 60.4997C82.1873 60.4997 83.3332 61.6455 83.3332 62.9997V73.833C83.3332 75.708 81.7707 77.1663 79.9998 77.1663H69.1665C67.7082 77.1663 66.6665 76.1247 66.6665 74.6663C66.6665 73.3122 67.7082 72.1663 69.1665 72.1663Z" fill="#006980"/>
</svg>
