<svg width="100" height="101" viewBox="0 0 100 101" fill="none" xmlns="http://www.w3.org/2000/svg">
<path d="M23.9582 36.5413L35.2082 24.458C35.6248 24.1455 36.0415 23.833 36.6665 23.833C37.1873 23.833 37.7082 24.1455 38.0207 24.458L49.2707 36.5413C49.6873 36.958 49.9998 37.583 49.9998 38.208C49.9998 39.458 48.854 40.4997 47.604 40.4997H44.9998L52.7082 49.8747C53.1248 50.2913 53.3332 50.8122 53.3332 51.4372C53.3332 52.7913 52.1873 53.833 50.8332 53.833H48.3332L56.0415 63.208C56.4582 63.6247 56.6665 64.1455 56.6665 64.7705C56.6665 66.1247 55.5207 67.1663 54.1665 67.1663H39.9998V73.833C39.9998 75.708 38.4373 77.1663 36.6665 77.1663C34.7915 77.1663 33.3332 75.708 33.3332 73.833V67.1663H19.0623C17.7082 67.1663 16.6665 66.1247 16.6665 64.7705C16.6665 64.1455 16.7707 63.6247 17.1873 63.208L24.9998 53.833H22.3957C21.0415 53.833 19.9998 52.7913 19.9998 51.4372C19.9998 50.8122 20.104 50.2913 20.5207 49.8747L28.3332 40.4997H25.6248C24.3748 40.4997 23.3332 39.458 23.3332 38.208C23.3332 37.583 23.5415 36.958 23.9582 36.5413ZM52.1873 34.7705L61.8748 24.458C62.2915 24.1455 62.7082 23.833 63.3332 23.833C63.854 23.833 64.3748 24.1455 64.6873 24.458L75.9373 36.5413C76.354 36.958 76.6665 37.583 76.6665 38.208C76.6665 39.458 75.5207 40.4997 74.2707 40.4997H71.6665L79.3748 49.8747C79.7915 50.2913 79.9998 50.8122 79.9998 51.4372C79.9998 52.7913 78.854 53.833 77.4998 53.833H74.9998L82.7082 63.208C83.1248 63.6247 83.3332 64.1455 83.3332 64.7705C83.3332 66.1247 82.1873 67.1663 80.8332 67.1663H66.6665V73.833C66.6665 75.708 65.104 77.1663 63.3332 77.1663C61.4582 77.1663 59.9998 75.708 59.9998 73.833V64.6663C59.8957 63.4163 59.479 62.0622 58.6457 61.0205L54.3748 56.0205C55.729 54.9788 56.5623 53.3122 56.5623 51.4372C56.5623 50.083 56.1457 48.7288 55.3123 47.6872L51.0415 42.6872C52.3957 41.6455 53.229 39.9788 53.229 38.208C53.229 36.958 52.9165 35.8122 52.1873 34.7705Z" fill="#006980"/>
</svg>
