<?xml version="1.0" encoding="UTF-8" standalone="no"?>
<!DOCTYPE svg PUBLIC "-//W3C//DTD SVG 1.1//EN" "http://www.w3.org/Graphics/SVG/1.1/DTD/svg11.dtd">
<svg width="100%" height="100%" viewBox="0 0 143 139" version="1.1" xmlns="http://www.w3.org/2000/svg" xmlns:xlink="http://www.w3.org/1999/xlink" xml:space="preserve" xmlns:serif="http://www.serif.com/" style="fill-rule:evenodd;clip-rule:evenodd;stroke-linejoin:round;stroke-miterlimit:2;">
    <g transform="matrix(122.125,0.328706,0.328706,-122.125,18.6801,60.984)">
        <path d="M0.416,0.481C0.385,0.462 0.43,0.443 0.458,0.436C0.458,0.436 0.459,0.437 0.459,0.437C0.499,0.471 0.47,0.48 0.454,0.485C0.446,0.487 0.44,0.489 0.436,0.489C0.43,0.489 0.425,0.486 0.416,0.481ZM0.534,0.477C0.506,0.468 0.556,0.439 0.556,0.439C0.56,0.441 0.567,0.444 0.573,0.448C0.579,0.453 0.594,0.464 0.556,0.478C0.554,0.479 0.551,0.479 0.549,0.479C0.543,0.479 0.538,0.478 0.534,0.477ZM0.278,0.458C0.25,0.431 0.266,0.403 0.349,0.402C0.35,0.402 0.351,0.403 0.351,0.403C0.372,0.446 0.345,0.454 0.336,0.457C0.324,0.46 0.309,0.461 0.298,0.461C0.288,0.461 0.28,0.46 0.278,0.458ZM0.622,0.456C0.606,0.454 0.629,0.431 0.64,0.421C0.64,0.422 0.657,0.424 0.66,0.431C0.662,0.437 0.652,0.446 0.634,0.454C0.629,0.456 0.625,0.456 0.623,0.456C0.623,0.456 0.622,0.456 0.622,0.456ZM0.69,0.426C0.683,0.423 0.713,0.387 0.714,0.386C0.714,0.386 0.739,0.384 0.73,0.397C0.729,0.399 0.723,0.408 0.702,0.42L0.694,0.425C0.692,0.426 0.691,0.426 0.691,0.426C0.69,0.426 0.69,0.426 0.69,0.426ZM0.127,0.371C0.12,0.358 0.128,0.295 0.253,0.331C0.254,0.331 0.254,0.332 0.254,0.332C0.251,0.373 0.228,0.382 0.22,0.385C0.213,0.387 0.206,0.388 0.198,0.388C0.165,0.387 0.128,0.372 0.127,0.371ZM0.763,0.378C0.759,0.375 0.786,0.33 0.786,0.33C0.786,0.33 0.796,0.326 0.803,0.325C0.817,0.323 0.81,0.335 0.802,0.345C0.797,0.351 0.787,0.361 0.771,0.374C0.77,0.375 0.766,0.378 0.764,0.378C0.764,0.378 0.763,0.378 0.763,0.378ZM0.848,0.295C0.842,0.293 0.857,0.247 0.858,0.247C0.858,0.246 0.878,0.23 0.887,0.228C0.902,0.225 0.887,0.253 0.872,0.274C0.87,0.277 0.868,0.28 0.866,0.283C0.863,0.286 0.853,0.296 0.849,0.296C0.848,0.296 0.848,0.296 0.848,0.295ZM0.023,0.221C0.048,0.169 0.112,0.17 0.189,0.223C0.189,0.223 0.19,0.224 0.19,0.224C0.175,0.251 0.154,0.261 0.144,0.265C0.136,0.268 0.129,0.269 0.121,0.269C0.078,0.269 0.036,0.233 0.023,0.221ZM0.924,0.177C0.915,0.176 0.915,0.139 0.915,0.138C0.915,0.138 0.94,0.103 0.952,0.097C0.965,0.091 0.963,0.116 0.953,0.143C0.953,0.143 0.951,0.147 0.944,0.158C0.941,0.163 0.931,0.177 0.924,0.177C0.924,0.177 0.924,0.177 0.924,0.177ZM-0,0.031C0.08,-0.025 0.148,0.053 0.173,0.089C0.173,0.089 0.173,0.09 0.173,0.09C0.162,0.099 0.152,0.104 0.145,0.107C0.131,0.113 0.117,0.116 0.105,0.116C0.034,0.116 -0,0.032 -0,0.031ZM0.942,0.014C0.945,0.006 0.962,-0.038 0.975,-0.053C0.989,-0.07 0.998,-0.055 1,-0.032C1,-0.032 0.996,-0.008 0.982,0.02C0.979,0.025 0.973,0.035 0.965,0.035C0.958,0.035 0.951,0.03 0.942,0.014ZM0.106,-0.053C0.065,-0.084 0.057,-0.15 0.058,-0.152C0.097,-0.163 0.168,-0.163 0.208,-0.051C0.209,-0.048 0.21,-0.046 0.21,-0.045C0.208,-0.044 0.205,-0.043 0.204,-0.043C0.197,-0.04 0.18,-0.036 0.161,-0.036C0.143,-0.036 0.123,-0.04 0.106,-0.053ZM0.926,-0.111C0.927,-0.123 0.932,-0.183 0.946,-0.208C0.956,-0.227 0.972,-0.225 0.983,-0.213C0.983,-0.213 0.99,-0.159 0.973,-0.124C0.965,-0.11 0.954,-0.107 0.945,-0.107C0.937,-0.107 0.93,-0.109 0.926,-0.111ZM0.187,-0.198C0.158,-0.232 0.161,-0.301 0.163,-0.304C0.192,-0.302 0.243,-0.291 0.269,-0.233C0.281,-0.207 0.285,-0.178 0.286,-0.161L0.277,-0.16C0.252,-0.161 0.213,-0.166 0.187,-0.198ZM0.895,-0.366C0.895,-0.366 0.896,-0.366 0.896,-0.366C0.902,-0.353 0.93,-0.284 0.904,-0.244C0.899,-0.237 0.887,-0.222 0.863,-0.219C0.831,-0.349 0.875,-0.366 0.895,-0.366ZM0.288,-0.409L0.289,-0.409C0.298,-0.406 0.346,-0.39 0.371,-0.352C0.392,-0.32 0.394,-0.277 0.388,-0.247C0.358,-0.254 0.262,-0.284 0.288,-0.409ZM0.756,-0.458C0.781,-0.431 0.833,-0.361 0.779,-0.303C0.775,-0.3 0.77,-0.294 0.762,-0.289C0.755,-0.292 0.683,-0.411 0.756,-0.458ZM0.429,-0.469C0.431,-0.47 0.47,-0.451 0.494,-0.423C0.537,-0.374 0.515,-0.316 0.508,-0.299C0.449,-0.328 0.397,-0.387 0.429,-0.469ZM0.591,-0.489C0.594,-0.489 0.614,-0.473 0.627,-0.46C0.691,-0.394 0.655,-0.336 0.636,-0.314C0.611,-0.335 0.533,-0.412 0.591,-0.489Z" style="fill:url(#_Linear1);fill-rule:nonzero;"/>
    </g>
    <g transform="matrix(1,0,0,1,105.012,14.294)">
        <path d="M0,3.507C-0.567,5.943 -4.614,6.473 -5.074,6.525C-8.831,0.816 -8.087,-3.018 -3.222,-3.014C-1.794,-1.587 0.492,1.393 0,3.507" style="fill:rgb(0,122,119);fill-rule:nonzero;"/>
    </g>
    <g transform="matrix(1,0,0,1,96.0621,11.019)">
        <path d="M0,4.332C-0.725,5.741 -2.428,6.907 -3.667,7.478C-9.057,2.455 -9.106,-1.913 -3.787,-3.146C-2.481,-2.202 1.651,1.125 0,4.332" style="fill:rgb(0,122,119);fill-rule:nonzero;"/>
    </g>
    <g transform="matrix(1,0,0,1,85.9021,8.44803)">
        <path d="M0,8.062C-0.417,8.687 -1.002,9.39 -1.491,9.855C-2.064,9.545 -7.116,6.731 -8.085,3.443C-8.885,0.729 -5.643,-1.526 -4.92,-1.779C-4.882,-1.793 -4.825,-1.779 -4.788,-1.764C-0.768,-0.034 3.327,3.075 0,8.062" style="fill:rgb(0,122,119);fill-rule:nonzero;"/>
    </g>
    <g transform="matrix(1,0,0,1,76.3121,8.56503)">
        <path d="M0,11.869C-2.592,11.234 -7.474,9.466 -9.331,6.871C-11.771,3.463 -8.552,0 -8.511,-0.022C-8.504,-0.026 -6.892,-0.002 -3.66,1.225C1.258,3.369 2.526,6.959 0.108,11.895C0.076,11.887 0.032,11.877 0,11.869" style="fill:rgb(0,122,119);fill-rule:nonzero;"/>
    </g>
    <g transform="matrix(1,0,0,1,69.2121,14.436)">
        <path d="M0,10.731C-15.527,11.375 -15.84,1.861 -14.829,0.306C-14.814,0.283 -9.83,-0.644 -4.994,1.163C0.849,3.677 0.084,10.693 0,10.731" style="fill:rgb(0,122,119);fill-rule:nonzero;"/>
    </g>
    <g transform="matrix(0.775928,-0.630822,-0.630822,-0.775928,63.803,25.1463)">
        <path d="M-4.415,-5.683C-14.723,-2.003 -19.353,5.042 -16.211,12.267C-15.907,12.342 -7.338,10.089 -4.415,4.496C-3.008,1.362 -2.971,-2.051 -4.306,-5.647C-4.339,-5.657 -4.381,-5.684 -4.415,-5.683" style="fill:rgb(0,122,119);fill-rule:nonzero;"/>
    </g>
    <g transform="matrix(0.646767,-0.762688,-0.762688,-0.646767,58.006,32.1097)">
        <path d="M-4.809,-8.767C-15.991,-6.499 -21.839,0.504 -20.069,9.509C-16.267,9.155 -7.168,7.434 -4.809,-0.89C-4.524,-2.293 -3.93,-5.212 -4.719,-8.784C-4.746,-8.779 -4.781,-8.772 -4.809,-8.767" style="fill:rgb(0,122,119);fill-rule:nonzero;"/>
    </g>
    <g transform="matrix(0.565371,-0.824836,-0.824836,-0.565371,55.1669,42.8774)">
        <path d="M-2.953,-10.929C-7.177,-11.053 -21.056,-10.303 -22.3,4.56C-22.138,4.708 -4.916,8.301 -2.953,-8.948C-2.908,-9.447 -2.846,-10.13 -2.858,-10.926C-2.887,-10.926 -2.925,-10.928 -2.953,-10.929" style="fill:rgb(0,122,119);fill-rule:nonzero;"/>
    </g>
    <g transform="matrix(0.999874,-0.0158431,-0.0158431,-0.999874,65.4327,64.4323)">
        <path d="M0.027,-0.146C-5.035,-10.879 -13.515,-11.46 -19.737,-10.056C-19.866,-9.837 -17.278,8.095 0.027,3.83C0.154,3.799 0.815,3.634 1.397,3.434C0.966,1.96 0.414,0.674 0.027,-0.146" style="fill:rgb(0,122,119);fill-rule:nonzero;"/>
    </g>
    <g transform="matrix(1,0,0,1,71.4821,77.508)">
        <path d="M0,1.653C-3.446,8.41 -10.525,9.981 -14.438,10.316C-14.791,9.994 -15.072,1.51 -11.006,-3.361C-7.291,-7.812 -1.101,-8.539 1.387,-8.645C1.827,-8.663 2.112,-8.659 2.219,-8.657C2.299,-5.082 1.469,-1.228 0,1.653" style="fill:rgb(0,122,119);fill-rule:nonzero;"/>
    </g>
    <g transform="matrix(-0.575621,-0.817717,-0.817717,0.575621,74.7438,78.3696)">
        <path d="M-12.672,1.169C-14.636,6.232 -13.251,12.08 -12.78,13.752C-12.748,13.771 -12.704,13.794 -12.672,13.812C3.29,8.436 0.17,-4.763 -1.167,-8.68C-5.417,-7.3 -10.672,-3.987 -12.672,1.169" style="fill:rgb(0,122,119);fill-rule:nonzero;"/>
    </g>
    <g transform="matrix(1,0,0,1,93.0821,83.293)">
        <path d="M0,11.569C-2.403,15.143 -6.425,17.952 -6.754,17.901C-13.163,7.275 -7.862,-1.61 -0.764,-6.383C0.712,-4.101 5.13,3.938 0,11.569" style="fill:rgb(0,122,119);fill-rule:nonzero;"/>
    </g>
    <g transform="matrix(1,0,0,1,105.002,79.253)">
        <path d="M0,18.732C-0.47,19.45 -1.244,20.543 -2.265,21.672C-3.136,21.677 -14.134,11.705 -2.91,-2.945C0.371,-0.107 7.224,7.689 0,18.732" style="fill:rgb(0,122,119);fill-rule:nonzero;"/>
    </g>
    <g transform="matrix(1,0,0,1,117.402,72.523)">
        <path d="M0,22.86C-3.684,21.287 -11.711,15.915 -6.693,0.051C-6.653,0.035 -6.599,0.014 -6.558,-0.002C-4.395,0.961 -3.069,2.101 -2.1,2.934C4.323,9.166 2.661,17.184 0.136,22.813C0.095,22.827 0.043,22.862 0,22.86" style="fill:rgb(0,122,119);fill-rule:nonzero;"/>
    </g>
    <g transform="matrix(0.974272,-0.225374,-0.225374,-0.974272,130.339,82.8209)">
        <path d="M-2.135,-0.945C-7.328,-0.323 -12.273,5.398 -9.118,19.473C-7.117,18.905 -4.28,17.538 -2.135,14.252C1.103,8.661 -1.53,0.607 -2.092,-0.95C-2.105,-0.948 -2.122,-0.947 -2.135,-0.945" style="fill:rgb(0,122,119);fill-rule:nonzero;"/>
    </g>
    <g transform="matrix(0.916701,-0.399574,-0.399574,-0.916701,135.398,66.163)">
        <path d="M-2.623,-2.274C-7.489,-3.834 -11.763,0.583 -10.346,13.967C-8.954,13.916 -4.287,13.377 -2.623,8.597C-1.4,4.433 -2.069,0.008 -2.577,-2.258C-2.591,-2.263 -2.609,-2.27 -2.623,-2.274" style="fill:rgb(0,122,119);fill-rule:nonzero;"/>
    </g>
    <g transform="matrix(1,0,0,1,133.432,51.284)">
        <path d="M0,1.945C-1.139,6.334 -5.55,8.63 -13.032,-3.034C-10.003,-6.615 -6.792,-6.685 -3.488,-3.241C-0.809,-0.144 0.002,1.936 0,1.945" style="fill:rgb(0,122,119);fill-rule:nonzero;"/>
    </g>
    <g transform="matrix(1,0,0,1,128.162,43.82)">
        <path d="M0,-5.633C0.171,-4.614 1.426,4.149 -7.156,-1.894C-8.259,-2.67 -10.475,-4.464 -10.462,-4.645C-10.458,-4.692 -9.343,-9.414 -6.57,-9.708C-5.865,-9.782 -3.865,-9.595 -0.533,-6.247C-0.013,-5.712 -0.013,-5.708 0,-5.633" style="fill:rgb(0,122,119);fill-rule:nonzero;"/>
    </g>
    <g transform="matrix(1,0,0,1,120.902,28.9)">
        <path d="M0,-0.415C2.115,7.516 -6.271,3.352 -7.974,2.436C-8.221,-0.084 -8.448,-7.931 -1.016,-3.103C-0.404,-1.849 -0.084,-0.728 0,-0.415" style="fill:rgb(0,122,119);fill-rule:nonzero;"/>
    </g>
    <g transform="matrix(1,0,0,1,113.302,18.941)">
        <path d="M0,3.707C0.147,7.259 -4.898,6.501 -6.448,6.184C-8.371,0.984 -7.909,-3.552 -2.542,-1.964C-1.415,-0.455 -0.073,1.935 0,3.707" style="fill:rgb(0,122,119);fill-rule:nonzero;"/>
    </g>
    <g transform="matrix(1,0,0,1,100.982,7.10103)">
        <path d="M0,0.865C-0.2,0.778 -0.422,0.749 -0.612,0.635C-0.871,0.481 -1.352,0.193 -1.827,-0.034L-1.596,0.075L0.075,0.899C0.052,0.889 0.023,0.875 0,0.865" style="fill:rgb(0,122,119);fill-rule:nonzero;"/>
    </g>
    <g transform="matrix(1,0,0,1,93.7221,3.53303)">
        <path d="M0,1.217C-0.438,1.068 -0.991,0.977 -1.859,0.862C-1.896,0.857 -1.948,0.858 -1.984,0.846C-1.99,0.844 -3.202,0.186 -3.467,-0.011L-3.461,-0.011L-2.45,0.328C-1.705,0.596 -0.709,0.948 0.031,1.228C0.022,1.225 0.01,1.22 0,1.217" style="fill:rgb(0,122,119);fill-rule:nonzero;"/>
    </g>
    <g transform="matrix(1,0,0,1,81.3321,0.82803)">
        <path d="M0,1.201C-0.438,1.253 -0.875,1.312 -1.312,1.37C-1.441,1.388 -1.564,1.458 -1.701,1.422C-1.724,1.415 -4.069,0.642 -4.17,0.086C-3.925,-0.257 -2.607,-0.115 -1.545,0.065L0.412,0.437L2.841,0.974C1.894,1.049 0.944,1.088 0,1.201" style="fill:rgb(0,122,119);fill-rule:nonzero;"/>
    </g>
    <g transform="matrix(0.767737,0.640765,0.640765,-0.767737,61.5166,3.53892)">
        <path d="M0.998,1.061C0.454,0.687 -4.311,-2.535 -4.171,-0.768C-4.169,-0.741 -3.584,2.234 0.998,5.298C2.311,6.109 2.668,6.008 2.411,4.898C2.337,4.575 1.211,1.207 0.998,1.061" style="fill:rgb(0,122,119);fill-rule:nonzero;"/>
    </g>
    <g transform="matrix(1,0,0,1,44.6321,7.16303)">
        <path d="M0,3.217C-2.771,3.727 -11.614,5.101 -9.075,1.376C-8.457,0.469 -7.247,-0.432 -7.092,-0.484C-6.393,-0.72 -2.765,-1.884 -0.014,-1.676C3.283,-1.23 0.13,3.117 0.088,3.16C0.066,3.182 0.029,3.205 0,3.217" style="fill:rgb(0,122,119);fill-rule:nonzero;"/>
    </g>
    <g transform="matrix(1,0,0,1,29.3771,26.828)">
        <path d="M0,-2.3C-14.913,5.763 -14.361,-1.694 -13.827,-2.795C-13.698,-3.062 -7.039,-8.063 -3.179,-7.383C0.153,-6.466 0.186,-2.456 0,-2.3" style="fill:rgb(0,122,119);fill-rule:nonzero;"/>
    </g>
    <g transform="matrix(0.634285,-0.7731,-0.7731,-0.634285,15.9756,39.5779)">
        <path d="M-0.434,-7.886C-16.917,-7.467 -16.017,-0.149 -15.347,2.084C-13.314,2.45 -3.035,3.968 -0.434,-2.116C-0.15,-3.077 0.443,-5.076 -0.341,-7.889C-0.369,-7.887 -0.407,-7.887 -0.434,-7.886" style="fill:rgb(0,122,119);fill-rule:nonzero;"/>
    </g>
    <g transform="matrix(0.512916,-0.858439,-0.858439,-0.512916,16.3925,62.5374)">
        <path d="M0.019,-8.884C-6.194,-9.981 -16.701,-10.411 -17.257,-0.981C-17.104,-0.888 -1.817,6.312 0.019,-7.301C0.057,-7.665 0.116,-8.215 0.11,-8.84C0.083,-8.852 0.048,-8.875 0.019,-8.884" style="fill:rgb(0,122,119);fill-rule:nonzero;"/>
    </g>
    <g transform="matrix(0.99974,-0.0228213,-0.0228213,-0.99974,33.2206,90.2516)">
        <path d="M0.068,-0.153C-1.915,-8.303 -5.886,-12.059 -11.736,-11.319C-12.292,-10.508 -13.697,6.093 0.068,3.484C0.222,3.454 0.459,3.406 0.709,3.34C0.606,2.394 0.354,1.023 0.068,-0.153" style="fill:rgb(0,122,119);fill-rule:nonzero;"/>
    </g>
    <g transform="matrix(0.542413,-0.840112,-0.840112,-0.542413,47.7586,105.675)">
        <path d="M-3.18,-3.2C-8.921,-4.03 -13.143,-0.62 -14.3,0.445C-14.294,0.498 -9.434,5.793 -3.18,5.953C-0.242,6.028 3.633,3.932 6.035,0.968C5.009,0.154 1.311,-2.551 -3.18,-3.2" style="fill:rgb(0,122,119);fill-rule:nonzero;"/>
    </g>
    <g transform="matrix(1,0,0,1,63.7621,114.933)">
        <path d="M0,5.161C-2.903,8.833 -7.889,10.57 -9.348,11.015C-9.909,9.718 -11.033,-2.607 2.7,-5.854C3.299,-1.852 2.289,2.265 0,5.161" style="fill:rgb(0,122,119);fill-rule:nonzero;"/>
    </g>
    <g transform="matrix(1,0,0,1,77.7621,120.765)">
        <path d="M0,8.894C-2.984,11.148 -6.984,12.703 -7.187,12.671C-8.852,6.791 -4.5,0.322 3.9,-3.809C4.875,-1.611 6.445,4.026 0,8.894" style="fill:rgb(0,122,119);fill-rule:nonzero;"/>
    </g>
    <g transform="matrix(1,0,0,1,95.9421,118.414)">
        <path d="M0,13.297C-0.361,13.547 -1.647,14.422 -3.043,15.173C-5.853,11.081 -2.65,4.707 5.526,-1.876C6.937,-0.193 10.708,5.875 0,13.297" style="fill:rgb(0,122,119);fill-rule:nonzero;"/>
    </g>
    <g transform="matrix(0.918315,0.395849,0.395849,-0.918315,112.463,124.599)">
        <path d="M3.543,-0.34C0.834,-0.236 -1.858,2.819 0.699,16.782C2.137,16.644 2.949,16.077 3.543,15.661C8.018,11.763 4.712,2.427 3.592,-0.341C3.577,-0.34 3.557,-0.341 3.543,-0.34" style="fill:rgb(0,122,119);fill-rule:nonzero;"/>
    </g>
    <g transform="matrix(0.999998,-0.00210674,-0.00210674,-0.999998,133.506,109.277)">
        <path d="M-0.014,0.001C-0.859,-0.561 -3.465,-1.664 -1.543,7.669C-1.053,10.049 -0.262,13.289 -0.014,14.241C1.588,14.517 2.634,13.861 3.093,12.289C3.944,8.271 0.037,0.034 -0.014,0.001" style="fill:rgb(0,122,119);fill-rule:nonzero;"/>
    </g>
    <g transform="matrix(1,0,0,1,142.122,76.175)">
        <path d="M0,7.224C-0.2,9.007 -0.588,9.929 -0.965,9.517C-1.708,8.707 -2.312,-0.968 -2.309,-1.056C-2.306,-1.164 -1.248,-2.705 -0.633,-2.611C-0.503,-2.591 -0.158,-2.539 0.074,-1.256C0.534,1.891 0.134,6.03 0,7.224" style="fill:rgb(0,122,119);fill-rule:nonzero;"/>
    </g>
    <g transform="matrix(1,0,0,1,140.842,51.235)">
        <path d="M0,8.455C0.15,9.209 0.127,9.316 0.097,9.465C0.078,9.465 0.053,9.466 0.034,9.466C-0.389,9.013 -2.708,2.918 -2.722,2.867C-2.729,2.841 -2.946,-0.707 -2.804,-1.011C-2.735,-0.984 -2.675,-0.96 -2.393,-0.158L-1.742,1.833C-1.211,3.788 -0.463,6.386 -0.019,8.362C-0.014,8.39 -0.005,8.427 0,8.455" style="fill:rgb(0,122,119);fill-rule:nonzero;"/>
    </g>
    <g transform="matrix(0.686834,-0.726814,-0.726814,-0.686834,121.627,20.2889)">
        <path d="M-2.181,-0.94C-2.247,-0.856 -2.407,0.777 -2.388,0.969C-2.178,3.008 -2.171,4.11 -2.181,5.063C-2.154,3.27 -2.133,0.878 -2.174,-0.915C-2.176,-0.922 -2.179,-0.932 -2.181,-0.94" style="fill:rgb(0,122,119);fill-rule:nonzero;"/>
    </g>
    <g transform="matrix(0.680097,0.733122,0.733122,-0.680097,51.3606,4.06777)">
        <path d="M0.393,1.397C-2.089,-1.803 -3.605,-3.361 -4.112,-3.233C-4.61,-2.278 -1.894,2.593 0.393,5.301C0.847,5.785 0.935,5.77 1.069,5.749C1.306,5.317 0.681,1.769 0.393,1.397" style="fill:rgb(0,122,119);fill-rule:nonzero;"/>
    </g>
    <g transform="matrix(1,0,0,1,32.2491,14.458)">
        <path d="M0,-0.374C-5.352,1.824 -11.485,3.858 -10.304,1.065C-9.03,-1.948 -1.798,-4.232 -0.652,-4.218C1.886,-3.946 0.054,-0.406 0,-0.374" style="fill:rgb(0,122,119);fill-rule:nonzero;"/>
    </g>
    <g transform="matrix(0.719973,-0.694002,-0.694002,-0.719973,12.8855,29.4319)">
        <path d="M1.093,-6.08C-17.882,-5.707 -12.285,0.276 -12.185,0.335C-12.103,0.384 -1.774,2.393 1.093,-1.229C1.49,-1.953 2.314,-3.457 1.184,-6.082C1.157,-6.082 1.121,-6.08 1.093,-6.08" style="fill:rgb(0,122,119);fill-rule:nonzero;"/>
    </g>
    <g transform="matrix(0.508967,-0.860786,-0.860786,-0.508967,7.34392,53.183)">
        <path d="M-0.025,-8.2C-13.901,-9.482 -16.431,-4.988 -16.109,-0.993C-15.98,-0.899 -2.225,4.245 -0.025,-5.082C0.08,-5.747 0.239,-6.752 0.076,-8.127C0.045,-8.149 0.01,-8.187 -0.025,-8.2" style="fill:rgb(0,122,119);fill-rule:nonzero;"/>
    </g>
    <g transform="matrix(0.881337,-0.472489,-0.472489,-0.881337,18.3507,79.2733)">
        <path d="M1.788,-3.698C-4.255,-12.007 -9.619,-14.372 -14.155,-10.73C-14.222,-9.741 -7.815,5.965 1.788,-2.661C1.944,-2.802 2.09,-2.942 2.223,-3.08C2.082,-3.29 1.936,-3.495 1.788,-3.698" style="fill:rgb(0,122,119);fill-rule:nonzero;"/>
    </g>
    <g transform="matrix(1,0,0,1,34.7511,108.746)">
        <path d="M0,-0.45C-1.465,6.097 -5.609,7.6 -7.322,7.942C-8.029,7.225 -12.107,-8.329 0.488,-8.392C0.667,-6.534 0.647,-3.339 0,-0.45" style="fill:rgb(0,122,119);fill-rule:nonzero;"/>
    </g>
    <g transform="matrix(1,0,0,1,50.0821,119.798)">
        <path d="M0,4.847C-2.229,8.187 -6.184,9.87 -6.954,10.174C-7.598,8.755 -9.352,-2.526 1.923,-5.327C2.516,-1.649 1.797,2.154 0,4.847" style="fill:rgb(0,122,119);fill-rule:nonzero;"/>
    </g>
    <g transform="matrix(1,0,0,1,64.5721,125.041)">
        <path d="M0,7.342C-1.771,8.686 -4.402,10.036 -7.039,10.954C-7.464,10.315 -8.202,1.379 3.83,-3.612C4.45,-1.664 5.32,3.303 0,7.342" style="fill:rgb(0,122,119);fill-rule:nonzero;"/>
    </g>
    <g transform="matrix(1,0,0,1,82.6821,126.237)">
        <path d="M0,10.23C-2.154,11.417 -4.215,12.197 -4.795,12.408C-6.55,8.434 -2.27,2.709 6.107,-2.178C7.4,-0.17 9.391,5.058 0,10.23" style="fill:rgb(0,122,119);fill-rule:nonzero;"/>
    </g>
    <g transform="matrix(1,0,0,1,102.252,120.463)">
        <path d="M0,15.111C-1.983,13.582 -2.261,9.72 7.671,0C8.296,0.474 8.618,0.966 8.854,1.324C12.13,7.088 2.053,13.82 0,15.111" style="fill:rgb(0,122,119);fill-rule:nonzero;"/>
    </g>
    <g transform="matrix(1,0,0,1,124.462,109.801)">
        <path d="M0,13.157C-3.989,14.017 1.103,3.969 3.55,-0.86C5.34,-0.75 5.689,0.547 5.858,1.17C6.317,5.246 0.07,13.142 0,13.157" style="fill:rgb(0,122,119);fill-rule:nonzero;"/>
    </g>
    <g transform="matrix(1,0,0,1,138.412,88.442)">
        <path d="M0,11.693C-0.161,12.099 -0.229,12.119 -0.309,12.141C-0.791,11.588 0.966,0.83 0.989,0.727C0.992,0.713 1.984,-0.448 2.432,-0.346C2.532,-0.323 2.798,-0.263 2.729,0.868C2.671,1.465 2.585,2.367 2.109,4.408C1.514,6.544 0.764,9.406 0.066,11.511C0.046,11.565 0.021,11.639 0,11.693" style="fill:rgb(0,122,119);fill-rule:nonzero;"/>
    </g>
    <g transform="matrix(1,0,0,1,142.482,62.297)">
        <path d="M0,10.491C-0.017,10.176 -0.064,9.71 -0.065,9.706C-0.216,8.306 -0.434,6.586 -1.002,3.501C-1.036,3.317 -1.036,3.317 -1.031,2.929C-1.015,1.559 -1.05,0.58 -1.139,-0.063L-0.637,3.112C-0.421,5.342 -0.103,8.316 0.003,10.554C0.002,10.535 0.001,10.51 0,10.491" style="fill:rgb(0,122,119);fill-rule:nonzero;"/>
    </g>
    <g transform="matrix(60.5314,-49.6032,-49.6032,-60.5314,60.6707,75.6416)">
        <path d="M0.643,0.099L0.656,0.099C0.701,0.194 0.751,0.193 0.769,0.192C0.772,0.209 0.777,0.244 0.767,0.288C0.652,0.297 0.63,0.177 0.643,0.099ZM0.643,0.374C0.562,0.325 0.552,0.225 0.619,0.118C0.619,0.118 0.62,0.118 0.62,0.118C0.625,0.121 0.628,0.123 0.631,0.126C0.629,0.242 0.673,0.27 0.689,0.28C0.686,0.292 0.684,0.299 0.679,0.31C0.658,0.359 0.643,0.373 0.643,0.374ZM0.655,0.069C0.66,0.066 0.664,0.064 0.667,0.062C0.72,0.097 0.764,0.101 0.801,0.075C0.802,0.075 0.804,0.073 0.805,0.073C0.814,0.085 0.831,0.112 0.839,0.156C0.765,0.211 0.692,0.177 0.655,0.069ZM0.488,0.386C0.437,0.271 0.503,0.17 0.591,0.121C0.591,0.122 0.592,0.122 0.592,0.122C0.595,0.127 0.596,0.131 0.598,0.135C0.543,0.243 0.569,0.299 0.577,0.318C0.563,0.334 0.55,0.346 0.538,0.355C0.508,0.38 0.488,0.386 0.488,0.386ZM0.654,0.037C0.656,0.032 0.659,0.027 0.661,0.023C0.755,0.02 0.78,-0.037 0.79,-0.058C0.799,-0.055 0.811,-0.05 0.827,-0.036C0.837,-0.027 0.846,-0.017 0.854,-0.006C0.842,0.022 0.826,0.043 0.808,0.058C0.766,0.093 0.71,0.087 0.654,0.037ZM0.344,0.303C0.37,0.104 0.533,0.105 0.566,0.108C0.566,0.108 0.566,0.108 0.567,0.108C0.566,0.115 0.566,0.119 0.565,0.124C0.468,0.193 0.462,0.265 0.459,0.288C0.385,0.315 0.345,0.303 0.344,0.303ZM0.639,0.01C0.643,-0.151 0.725,-0.197 0.801,-0.17C0.801,-0.17 0.801,-0.17 0.801,-0.17C0.802,-0.14 0.797,-0.115 0.794,-0.102C0.79,-0.083 0.78,-0.043 0.746,-0.016C0.724,0.003 0.69,0.016 0.639,0.01ZM0.583,0.07C0.575,0.05 0.593,0.027 0.611,0.035C0.618,0.037 0.629,0.048 0.624,0.067C0.623,0.067 0.623,0.068 0.623,0.069C0.621,0.074 0.618,0.077 0.615,0.079C0.605,0.088 0.589,0.085 0.583,0.07ZM0.371,0.188C0.331,0.181 0.293,0.165 0.26,0.14C0.26,0.137 0.354,-0.023 0.516,0.059C0.525,0.064 0.538,0.071 0.551,0.081C0.547,0.087 0.544,0.091 0.542,0.095C0.427,0.102 0.385,0.167 0.371,0.188ZM0.614,-0.004C0.597,-0.024 0.531,-0.216 0.68,-0.285C0.681,-0.285 0.681,-0.285 0.681,-0.285C0.703,-0.239 0.708,-0.199 0.71,-0.177C0.694,-0.169 0.643,-0.142 0.63,-0.014C0.625,-0.011 0.621,-0.008 0.614,-0.004ZM0.535,0.056C0.433,-0.003 0.364,0.033 0.342,0.046C0.279,-0.012 0.267,-0.056 0.267,-0.056C0.289,-0.067 0.367,-0.1 0.437,-0.073C0.491,-0.051 0.53,0.004 0.549,0.048C0.543,0.051 0.538,0.054 0.535,0.056ZM0.573,-0.011C0.568,-0.138 0.504,-0.18 0.482,-0.195C0.487,-0.248 0.508,-0.289 0.517,-0.303C0.517,-0.304 0.517,-0.304 0.517,-0.305C0.56,-0.275 0.583,-0.241 0.595,-0.222C0.583,-0.2 0.551,-0.142 0.596,-0.02C0.592,-0.013 0.588,-0.004 0.585,-0.002C0.58,-0.005 0.577,-0.008 0.573,-0.011ZM0.546,0.016C0.486,-0.092 0.408,-0.095 0.383,-0.096C0.354,-0.175 0.363,-0.219 0.363,-0.219C0.396,-0.217 0.431,-0.208 0.459,-0.194C0.562,-0.143 0.565,-0.029 0.562,0.017C0.556,0.017 0.55,0.017 0.546,0.016Z" style="fill:url(#_Linear2);fill-rule:nonzero;"/>
    </g>
    <defs>
        <linearGradient id="_Linear1" x1="0" y1="0" x2="1" y2="0" gradientUnits="userSpaceOnUse" gradientTransform="matrix(1,0,0,-1,0,-1.66949e-05)"><stop offset="0" style="stop-color:rgb(181,143,95);stop-opacity:1"/><stop offset="0.28" style="stop-color:rgb(141,106,67);stop-opacity:1"/><stop offset="0.63" style="stop-color:rgb(253,198,132);stop-opacity:1"/><stop offset="1" style="stop-color:rgb(141,106,67);stop-opacity:1"/></linearGradient>
        <linearGradient id="_Linear2" x1="0" y1="0" x2="1" y2="0" gradientUnits="userSpaceOnUse" gradientTransform="matrix(1,-5.55112e-17,-5.55112e-17,-1,0,0.0816204)"><stop offset="0" style="stop-color:rgb(181,143,95);stop-opacity:1"/><stop offset="0.28" style="stop-color:rgb(141,106,67);stop-opacity:1"/><stop offset="0.63" style="stop-color:rgb(253,198,132);stop-opacity:1"/><stop offset="1" style="stop-color:rgb(141,106,67);stop-opacity:1"/></linearGradient>
    </defs>
</svg>
