<svg width="100" height="101" viewBox="0 0 100 101" fill="none" xmlns="http://www.w3.org/2000/svg">
<path d="M52.0832 29.6105H65.6248C71.0936 29.6105 75.9113 26.6123 78.3853 21.9196C78.9061 21.1375 80.2082 21.1375 80.4686 21.9196C82.2915 26.7427 83.3332 31.9568 83.3332 37.5621C83.3332 58.549 69.4009 75.495 52.2134 75.495H52.0832C41.4061 75.495 32.4217 68.3256 29.8175 58.4187C25.5207 62.4596 22.9165 68.1952 22.9165 74.4522V76.5378C22.9165 78.3628 21.4842 79.6663 19.7915 79.6663C17.9686 79.6663 16.6665 78.3628 16.6665 76.5378V74.4522C16.6665 64.6756 21.6144 56.0723 29.1665 51.1189C31.9009 49.1635 35.0259 47.86 38.4113 47.0779C40.4946 46.5565 42.578 46.2958 44.7915 46.2958H56.2498C57.2915 46.2958 58.3332 45.3833 58.3332 44.2101C58.3332 43.1673 57.2915 42.1244 56.2498 42.1244H44.7915C39.453 42.1244 34.505 43.428 30.2082 45.644C33.0728 36.3889 41.7967 29.6105 52.0832 29.6105Z" fill="#006980"/>
</svg>
