<svg width="100" height="100" viewBox="0 0 100 100" fill="none" xmlns="http://www.w3.org/2000/svg">
<path d="M23.854 23.3402L28.854 26.7256C29.9998 27.5719 30.3123 29.1589 29.5832 30.3226C28.7498 31.4863 27.1873 31.8037 26.0415 30.9574L21.0415 27.5719C19.8957 26.8314 19.5832 25.2445 20.4165 24.0807C21.1457 22.917 22.7082 22.5996 23.854 23.3402ZM78.854 27.5719L73.854 30.9574C72.7082 31.8037 71.1457 31.4863 70.4165 30.3226C69.5832 29.1589 69.8957 27.5719 71.0415 26.7256L76.0415 23.3402C77.1873 22.5996 78.7498 22.917 79.5832 24.0807C80.3123 25.2445 79.9998 26.8314 78.854 27.5719ZM19.1665 39.8441H25.8332C27.1873 39.8441 28.3332 41.0078 28.3332 42.3831C28.3332 43.8643 27.1873 44.9222 25.8332 44.9222H19.1665C17.7082 44.9222 16.6665 43.8643 16.6665 42.3831C16.6665 41.0078 17.7082 39.8441 19.1665 39.8441ZM74.1665 39.8441H80.8332C82.1873 39.8441 83.3332 41.0078 83.3332 42.3831C83.3332 43.8643 82.1873 44.9222 80.8332 44.9222H74.1665C72.7082 44.9222 71.6665 43.8643 71.6665 42.3831C71.6665 41.0078 72.7082 39.8441 74.1665 39.8441ZM28.854 58.0407L23.854 61.4261C22.7082 62.2725 21.1457 61.9551 20.4165 60.7913C19.5832 59.6276 19.8957 58.0407 21.0415 57.1943L26.0415 53.8089C27.1873 53.0684 28.7498 53.3857 29.5832 54.5495C30.3123 55.7132 29.9998 57.3001 28.854 58.0407ZM73.854 53.9147L78.854 57.3001C79.9998 58.0407 80.3123 59.6276 79.5832 60.7913C78.7498 61.9551 77.1873 62.2725 76.0415 61.5319L71.0415 58.1465C69.8957 57.3001 69.5832 55.7132 70.4165 54.5495C71.1457 53.3857 72.7082 53.0684 73.854 53.9147ZM63.4373 54.4437C61.354 57.3001 59.2707 60.2624 58.3332 63.542H41.6665C40.6248 60.2624 38.5415 57.3001 36.4582 54.4437C35.9373 53.7031 35.4165 52.9626 34.8957 52.222C32.8123 49.154 31.6665 45.557 31.6665 41.5368C31.6665 31.2747 39.7915 22.917 49.9998 22.917C60.104 22.917 68.3332 31.2747 68.3332 41.5368C68.3332 45.557 67.0832 49.154 64.9998 52.222C64.479 52.9626 63.9582 53.7031 63.4373 54.4437ZM58.3332 68.6201C58.3332 73.3809 54.5832 77.0837 49.9998 77.0837C45.3123 77.0837 41.6665 73.3809 41.6665 68.6201V66.9274H58.3332V68.6201ZM49.9998 33.0732C50.8332 33.0732 51.6665 32.3327 51.6665 31.3805C51.6665 30.5342 50.8332 29.6878 49.9998 29.6878C43.5415 29.6878 38.3332 35.0833 38.3332 41.5368C38.3332 42.4889 39.0623 43.2295 39.9998 43.2295C40.8332 43.2295 41.6665 42.4889 41.6665 41.5368C41.6665 36.8818 45.3123 33.0732 49.9998 33.0732Z" fill="#006980"/>
</svg>
