<?xml version="1.0" encoding="UTF-8" standalone="no"?>
<!DOCTYPE svg PUBLIC "-//W3C//DTD SVG 1.1//EN" "http://www.w3.org/Graphics/SVG/1.1/DTD/svg11.dtd">
<svg width="100%" height="100%" viewBox="0 0 143 136" version="1.1" xmlns="http://www.w3.org/2000/svg" xmlns:xlink="http://www.w3.org/1999/xlink" xml:space="preserve" xmlns:serif="http://www.serif.com/" style="fill-rule:evenodd;clip-rule:evenodd;stroke-linejoin:round;stroke-miterlimit:2;">
    <g transform="matrix(121.889,0.328069,0.328069,-121.889,18.6432,60.8661)">
        <path d="M0.416,0.481C0.385,0.462 0.43,0.443 0.458,0.436C0.458,0.436 0.459,0.437 0.459,0.437C0.499,0.471 0.47,0.48 0.454,0.485C0.446,0.487 0.44,0.489 0.436,0.489C0.43,0.489 0.425,0.486 0.416,0.481ZM0.534,0.477C0.506,0.468 0.556,0.439 0.556,0.439C0.56,0.441 0.567,0.444 0.573,0.448C0.579,0.453 0.594,0.464 0.556,0.478C0.554,0.479 0.551,0.479 0.549,0.479C0.543,0.479 0.538,0.478 0.534,0.477ZM0.278,0.458C0.25,0.431 0.266,0.403 0.349,0.402C0.35,0.402 0.351,0.403 0.351,0.403C0.372,0.446 0.345,0.454 0.336,0.457C0.324,0.46 0.309,0.461 0.298,0.461C0.288,0.461 0.28,0.46 0.278,0.458ZM0.622,0.456C0.606,0.454 0.629,0.431 0.64,0.421C0.64,0.422 0.657,0.424 0.66,0.431C0.662,0.437 0.652,0.446 0.634,0.454C0.629,0.456 0.625,0.456 0.623,0.456C0.623,0.456 0.622,0.456 0.622,0.456ZM0.69,0.426C0.683,0.423 0.713,0.387 0.714,0.386C0.714,0.386 0.739,0.384 0.731,0.397C0.729,0.399 0.723,0.408 0.702,0.42L0.694,0.425C0.692,0.426 0.691,0.426 0.691,0.426C0.69,0.426 0.69,0.426 0.69,0.426ZM0.127,0.371C0.12,0.358 0.128,0.295 0.253,0.331C0.254,0.331 0.254,0.332 0.254,0.332C0.251,0.373 0.228,0.382 0.22,0.385C0.213,0.387 0.206,0.388 0.198,0.388C0.165,0.387 0.128,0.372 0.127,0.371ZM0.763,0.378C0.759,0.375 0.786,0.331 0.786,0.33C0.786,0.33 0.796,0.326 0.803,0.325C0.817,0.323 0.81,0.335 0.802,0.345C0.797,0.351 0.788,0.361 0.771,0.374C0.77,0.375 0.766,0.378 0.764,0.378C0.764,0.378 0.763,0.378 0.763,0.378ZM0.848,0.296C0.842,0.293 0.858,0.247 0.858,0.247C0.858,0.246 0.878,0.23 0.887,0.228C0.902,0.225 0.887,0.253 0.872,0.274C0.87,0.277 0.868,0.28 0.866,0.283C0.863,0.286 0.853,0.296 0.849,0.296C0.848,0.296 0.848,0.296 0.848,0.296ZM0.023,0.221C0.048,0.169 0.112,0.17 0.189,0.223C0.189,0.223 0.19,0.224 0.19,0.224C0.175,0.251 0.154,0.261 0.144,0.265C0.136,0.268 0.129,0.269 0.121,0.269C0.078,0.269 0.036,0.233 0.023,0.221ZM0.924,0.177C0.915,0.176 0.915,0.139 0.915,0.138C0.915,0.138 0.94,0.103 0.952,0.097C0.965,0.091 0.963,0.116 0.953,0.143C0.953,0.143 0.951,0.147 0.944,0.158C0.941,0.163 0.931,0.177 0.924,0.177C0.924,0.177 0.924,0.177 0.924,0.177ZM0,0.031C0.08,-0.025 0.148,0.053 0.173,0.089C0.173,0.089 0.173,0.09 0.173,0.09C0.162,0.099 0.152,0.104 0.145,0.107C0.131,0.113 0.117,0.116 0.105,0.116C0.034,0.116 -0,0.032 0,0.031ZM0.942,0.014C0.945,0.006 0.962,-0.038 0.975,-0.053C0.989,-0.07 0.998,-0.055 1,-0.032C1,-0.032 0.996,-0.008 0.982,0.02C0.979,0.025 0.973,0.035 0.965,0.035C0.958,0.035 0.951,0.03 0.942,0.014ZM0.106,-0.053C0.065,-0.084 0.057,-0.15 0.058,-0.152C0.097,-0.163 0.168,-0.163 0.208,-0.051C0.209,-0.048 0.21,-0.046 0.21,-0.045C0.208,-0.044 0.205,-0.043 0.204,-0.043C0.197,-0.04 0.18,-0.036 0.161,-0.036C0.143,-0.036 0.123,-0.04 0.106,-0.053ZM0.926,-0.111C0.927,-0.123 0.932,-0.183 0.946,-0.208C0.956,-0.227 0.972,-0.225 0.983,-0.213C0.983,-0.213 0.99,-0.159 0.973,-0.124C0.965,-0.11 0.954,-0.107 0.945,-0.107C0.937,-0.107 0.93,-0.109 0.926,-0.111ZM0.187,-0.198C0.158,-0.232 0.161,-0.301 0.163,-0.304C0.192,-0.302 0.243,-0.291 0.269,-0.233C0.281,-0.207 0.285,-0.178 0.286,-0.161L0.277,-0.16C0.252,-0.161 0.213,-0.166 0.187,-0.198ZM0.895,-0.366C0.895,-0.366 0.896,-0.366 0.896,-0.366C0.902,-0.353 0.93,-0.284 0.904,-0.244C0.898,-0.237 0.887,-0.222 0.863,-0.219C0.831,-0.349 0.875,-0.366 0.895,-0.366ZM0.288,-0.409C0.288,-0.409 0.288,-0.409 0.289,-0.409C0.298,-0.406 0.346,-0.39 0.371,-0.352C0.392,-0.32 0.394,-0.277 0.388,-0.247C0.358,-0.254 0.262,-0.284 0.288,-0.409ZM0.756,-0.458C0.781,-0.431 0.832,-0.361 0.779,-0.303C0.775,-0.3 0.77,-0.294 0.762,-0.289C0.755,-0.292 0.683,-0.411 0.756,-0.458ZM0.429,-0.469C0.431,-0.47 0.469,-0.451 0.494,-0.423C0.537,-0.374 0.515,-0.316 0.508,-0.299C0.449,-0.328 0.397,-0.387 0.429,-0.469ZM0.591,-0.489C0.594,-0.489 0.614,-0.473 0.627,-0.46C0.691,-0.394 0.655,-0.336 0.636,-0.314C0.611,-0.335 0.533,-0.412 0.591,-0.489Z" style="fill:url(#_Linear1);fill-rule:nonzero;"/>
    </g>
    <g transform="matrix(1,0,0,1,104.808,14.2668)">
        <path d="M0,3.499C-0.566,5.93 -4.605,6.459 -5.064,6.512C-8.814,0.813 -8.071,-3.013 -3.215,-3.01C-1.79,-1.585 0.491,1.389 0,3.499" style="fill:rgb(0,122,119);fill-rule:nonzero;"/>
    </g>
    <g transform="matrix(1,0,0,1,95.88,10.9976)">
        <path d="M0,4.323C-0.724,5.729 -2.424,6.893 -3.66,7.463C-9.039,2.45 -9.089,-1.91 -3.78,-3.14C-2.477,-2.199 1.647,1.122 0,4.323" style="fill:rgb(0,122,119);fill-rule:nonzero;"/>
    </g>
    <g transform="matrix(1,0,0,1,85.7375,8.43193)">
        <path d="M0,8.046C-0.416,8.669 -1,9.372 -1.488,9.836C-2.06,9.526 -7.102,6.718 -8.069,3.436C-8.868,0.728 -5.632,-1.524 -4.91,-1.776C-4.873,-1.79 -4.815,-1.776 -4.779,-1.76C-0.766,-0.034 3.32,3.069 0,8.046" style="fill:rgb(0,122,119);fill-rule:nonzero;"/>
    </g>
    <g transform="matrix(1,0,0,1,76.1688,8.54833)">
        <path d="M0,11.846C-2.587,11.212 -7.459,9.448 -9.313,6.858C-11.748,3.456 -8.536,0 -8.495,-0.022C-8.488,-0.026 -6.879,-0.002 -3.653,1.222C1.256,3.363 2.521,6.946 0.108,11.872C0.075,11.864 0.032,11.854 0,11.846" style="fill:rgb(0,122,119);fill-rule:nonzero;"/>
    </g>
    <g transform="matrix(1,0,0,1,69.0731,14.4078)">
        <path d="M0,10.71C-15.497,11.353 -15.809,1.857 -14.8,0.305C-14.786,0.283 -9.811,-0.643 -4.985,1.161C0.847,3.67 0.084,10.672 0,10.71" style="fill:rgb(0,122,119);fill-rule:nonzero;"/>
    </g>
    <g transform="matrix(0.775966,-0.630774,-0.630774,-0.775966,63.6746,25.0973)">
        <path d="M-4.406,-5.672C-14.694,-2 -19.316,5.032 -16.181,12.243C-15.876,12.317 -7.324,10.069 -4.406,4.487C-3.001,1.359 -2.965,-2.047 -4.297,-5.636C-4.33,-5.646 -4.372,-5.672 -4.406,-5.672" style="fill:rgb(0,122,119);fill-rule:nonzero;"/>
    </g>
    <g transform="matrix(0.64678,-0.762676,-0.762676,-0.64678,57.8949,32.0478)">
        <path d="M-4.799,-8.75C-15.96,-6.487 -21.796,0.503 -20.03,9.49C-16.234,9.137 -7.154,7.419 -4.799,-0.889C-4.514,-2.288 -3.922,-5.202 -4.709,-8.767C-4.736,-8.762 -4.772,-8.755 -4.799,-8.75" style="fill:rgb(0,122,119);fill-rule:nonzero;"/>
    </g>
    <g transform="matrix(0.565391,-0.824823,-0.824823,-0.565391,55.0575,42.7943)">
        <path d="M-2.947,-10.908C-7.163,-11.032 -21.015,-10.284 -22.257,4.551C-22.096,4.698 -4.907,8.285 -2.947,-8.93C-2.902,-9.428 -2.84,-10.11 -2.852,-10.905C-2.881,-10.905 -2.919,-10.906 -2.947,-10.908" style="fill:rgb(0,122,119);fill-rule:nonzero;"/>
    </g>
    <g transform="matrix(0.999874,-0.015871,-0.015871,-0.999874,65.3025,64.3067)">
        <path d="M0.027,-0.146C-5.026,-10.858 -13.489,-11.437 -19.699,-10.037C-19.827,-9.818 -17.244,8.079 0.027,3.823C0.154,3.791 0.814,3.626 1.395,3.427C0.964,1.956 0.413,0.672 0.027,-0.146" style="fill:rgb(0,122,119);fill-rule:nonzero;"/>
    </g>
    <g transform="matrix(1,0,0,1,71.3415,77.3568)">
        <path d="M0,1.65C-3.439,8.394 -10.505,9.962 -14.411,10.296C-14.762,9.974 -15.042,1.507 -10.985,-3.354C-7.276,-7.797 -1.099,-8.522 1.385,-8.628C1.823,-8.646 2.108,-8.642 2.215,-8.64C2.294,-5.072 1.466,-1.225 0,1.65" style="fill:rgb(0,122,119);fill-rule:nonzero;"/>
    </g>
    <g transform="matrix(-0.575625,-0.817714,-0.817714,0.575625,74.6025,78.2176)">
        <path d="M-12.647,1.167C-14.607,6.222 -13.225,12.057 -12.755,13.726C-12.722,13.744 -12.679,13.767 -12.647,13.786C3.284,8.419 0.17,-4.754 -1.164,-8.663C-5.406,-7.286 -10.651,-3.979 -12.647,1.167" style="fill:rgb(0,122,119);fill-rule:nonzero;"/>
    </g>
    <g transform="matrix(1,0,0,1,92.8984,83.1315)">
        <path d="M0,11.546C-2.398,15.113 -6.412,17.917 -6.741,17.865C-13.137,7.261 -7.847,-1.607 -0.763,-6.371C0.711,-4.093 5.12,3.93 0,11.546" style="fill:rgb(0,122,119);fill-rule:nonzero;"/>
    </g>
    <g transform="matrix(1,0,0,1,104.801,79.0992)">
        <path d="M0,18.696C-0.469,19.413 -1.242,20.503 -2.26,21.63C-3.13,21.635 -14.106,11.683 -2.904,-2.939C0.371,-0.106 7.21,7.674 0,18.696" style="fill:rgb(0,122,119);fill-rule:nonzero;"/>
    </g>
    <g transform="matrix(1,0,0,1,117.174,72.3824)">
        <path d="M0,22.815C-3.677,21.245 -11.689,15.883 -6.68,0.05L-6.546,-0.002C-4.386,0.959 -3.063,2.096 -2.096,2.927C4.315,9.148 2.656,17.15 0.136,22.768C0.095,22.782 0.043,22.817 0,22.815" style="fill:rgb(0,122,119);fill-rule:nonzero;"/>
    </g>
    <g transform="matrix(0.974277,-0.225355,-0.225355,-0.974277,130.09,82.6606)">
        <path d="M-2.13,-0.943C-7.314,-0.322 -12.249,5.388 -9.1,19.435C-7.103,18.869 -4.273,17.505 -2.13,14.224C1.1,8.645 -1.528,0.607 -2.087,-0.948C-2.1,-0.946 -2.118,-0.945 -2.13,-0.943" style="fill:rgb(0,122,119);fill-rule:nonzero;"/>
    </g>
    <g transform="matrix(0.916725,-0.399518,-0.399518,-0.916725,135.136,66.0352)">
        <path d="M-2.618,-2.27C-7.473,-3.828 -11.74,0.581 -10.326,13.941C-8.938,13.889 -4.279,13.352 -2.618,8.581C-1.398,4.424 -2.066,0.008 -2.572,-2.254C-2.586,-2.259 -2.604,-2.265 -2.618,-2.27" style="fill:rgb(0,122,119);fill-rule:nonzero;"/>
    </g>
    <g transform="matrix(1,0,0,1,133.175,51.185)">
        <path d="M0,1.94C-1.137,6.321 -5.539,8.613 -13.006,-3.029C-9.984,-6.604 -6.779,-6.673 -3.481,-3.236C-0.808,-0.145 0.002,1.931 0,1.94" style="fill:rgb(0,122,119);fill-rule:nonzero;"/>
    </g>
    <g transform="matrix(1,0,0,1,127.912,43.7342)">
        <path d="M0,-5.622C0.171,-4.605 1.423,4.141 -7.143,-1.89C-8.243,-2.665 -10.455,-4.455 -10.442,-4.636C-10.438,-4.682 -9.325,-9.396 -6.557,-9.689C-5.853,-9.763 -3.858,-9.576 -0.532,-6.235C-0.013,-5.701 -0.012,-5.696 0,-5.622" style="fill:rgb(0,122,119);fill-rule:nonzero;"/>
    </g>
    <g transform="matrix(1,0,0,1,120.665,28.8444)">
        <path d="M0,-0.415C2.111,7.501 -6.259,3.344 -7.958,2.431C-8.205,-0.084 -8.432,-7.916 -1.014,-3.098C-0.403,-1.846 -0.083,-0.728 0,-0.415" style="fill:rgb(0,122,119);fill-rule:nonzero;"/>
    </g>
    <g transform="matrix(1,0,0,1,113.081,18.9034)">
        <path d="M0,3.7C0.147,7.245 -4.889,6.488 -6.436,6.172C-8.355,0.982 -7.894,-3.545 -2.537,-1.96C-1.412,-0.454 -0.073,1.932 0,3.7" style="fill:rgb(0,122,119);fill-rule:nonzero;"/>
    </g>
    <g transform="matrix(1,0,0,1,100.782,7.08643)">
        <path d="M0,0.864C-0.2,0.778 -0.421,0.748 -0.611,0.635C-0.869,0.48 -1.349,0.193 -1.824,-0.034L-1.593,0.076L0.075,0.898C0.052,0.888 0.023,0.874 0,0.864" style="fill:rgb(0,122,119);fill-rule:nonzero;"/>
    </g>
    <g transform="matrix(1,0,0,1,93.5417,3.52563)">
        <path d="M0,1.215C-0.437,1.066 -0.989,0.976 -1.855,0.861C-1.893,0.856 -1.944,0.857 -1.98,0.845C-1.986,0.842 -3.195,0.186 -3.46,-0.011L-3.454,-0.011L-2.445,0.328C-1.701,0.595 -0.708,0.946 0.031,1.226C0.022,1.223 0.009,1.218 0,1.215" style="fill:rgb(0,122,119);fill-rule:nonzero;"/>
    </g>
    <g transform="matrix(1,0,0,1,81.1728,0.82693)">
        <path d="M0,1.198C-0.437,1.25 -0.873,1.309 -1.309,1.367C-1.438,1.384 -1.561,1.455 -1.698,1.418C-1.721,1.412 -4.061,0.64 -4.162,0.085C-3.917,-0.257 -2.602,-0.115 -1.542,0.064L0.411,0.435L2.836,0.971C1.891,1.046 0.942,1.085 0,1.198" style="fill:rgb(0,122,119);fill-rule:nonzero;"/>
    </g>
    <g transform="matrix(0.767737,0.640766,0.640766,-0.767737,61.4002,3.53207)">
        <path d="M0.996,1.058C0.453,0.686 -4.303,-2.531 -4.164,-0.766C-4.161,-0.74 -3.577,2.229 0.996,5.288C2.307,6.097 2.663,5.996 2.407,4.888C2.331,4.566 1.208,1.205 0.996,1.058" style="fill:rgb(0,122,119);fill-rule:nonzero;"/>
    </g>
    <g transform="matrix(1,0,0,1,44.5445,7.14923)">
        <path d="M0,3.21C-2.766,3.719 -11.592,5.091 -9.057,1.372C-8.441,0.467 -7.233,-0.432 -7.079,-0.484C-6.381,-0.719 -2.76,-1.881 -0.014,-1.673C3.277,-1.229 0.13,3.111 0.088,3.153C0.066,3.175 0.029,3.198 0,3.21" style="fill:rgb(0,122,119);fill-rule:nonzero;"/>
    </g>
    <g transform="matrix(1,0,0,1,29.3195,26.7751)">
        <path d="M0,-2.295C-14.885,5.752 -14.333,-1.691 -13.801,-2.789C-13.672,-3.056 -7.025,-8.047 -3.173,-7.368C0.153,-6.453 0.186,-2.451 0,-2.295" style="fill:rgb(0,122,119);fill-rule:nonzero;"/>
    </g>
    <g transform="matrix(0.634325,-0.773067,-0.773067,-0.634325,15.9455,39.5003)">
        <path d="M-0.434,-7.871C-16.884,-7.453 -15.986,-0.15 -15.318,2.08C-13.288,2.444 -3.03,3.96 -0.434,-2.112C-0.15,-3.071 0.443,-5.065 -0.34,-7.873C-0.368,-7.871 -0.406,-7.871 -0.434,-7.871" style="fill:rgb(0,122,119);fill-rule:nonzero;"/>
    </g>
    <g transform="matrix(0.512819,-0.858497,-0.858497,-0.512819,16.3596,62.4157)">
        <path d="M0.019,-8.868C-6.183,-9.962 -16.669,-10.391 -17.223,-0.977C-17.071,-0.886 -1.813,6.299 0.019,-7.289C0.057,-7.651 0.116,-8.2 0.109,-8.823C0.082,-8.836 0.048,-8.859 0.019,-8.868" style="fill:rgb(0,122,119);fill-rule:nonzero;"/>
    </g>
    <g transform="matrix(0.999739,-0.0228653,-0.0228653,-0.999739,33.1561,90.0759)">
        <path d="M0.068,-0.153C-1.912,-8.287 -5.875,-12.036 -11.714,-11.297C-12.268,-10.487 -13.671,6.082 0.068,3.477C0.222,3.447 0.459,3.399 0.708,3.333C0.605,2.389 0.354,1.021 0.068,-0.153" style="fill:rgb(0,122,119);fill-rule:nonzero;"/>
    </g>
    <g transform="matrix(0.542389,-0.840128,-0.840128,-0.542389,47.6657,105.471)">
        <path d="M-3.174,-3.194C-8.904,-4.021 -13.117,-0.618 -14.272,0.445C-14.266,0.497 -9.415,5.78 -3.174,5.941C-0.241,6.016 3.627,3.923 6.023,0.965C4.999,0.154 1.308,-2.546 -3.174,-3.194" style="fill:rgb(0,122,119);fill-rule:nonzero;"/>
    </g>
    <g transform="matrix(1,0,0,1,63.6425,114.71)">
        <path d="M0,5.151C-2.898,8.816 -7.874,10.549 -9.33,10.993C-9.89,9.7 -11.012,-2.602 2.695,-5.842C3.292,-1.849 2.285,2.261 0,5.151" style="fill:rgb(0,122,119);fill-rule:nonzero;"/>
    </g>
    <g transform="matrix(1,0,0,1,77.6136,120.531)">
        <path d="M0,8.876C-2.978,11.125 -6.971,12.678 -7.173,12.646C-8.835,6.777 -4.492,0.321 3.892,-3.802C4.865,-1.609 6.433,4.018 0,8.876" style="fill:rgb(0,122,119);fill-rule:nonzero;"/>
    </g>
    <g transform="matrix(1,0,0,1,95.7553,118.185)">
        <path d="M0,13.271C-0.36,13.521 -1.644,14.393 -3.037,15.144C-5.842,11.059 -2.645,4.698 5.515,-1.873C6.923,-0.193 10.687,5.864 0,13.271" style="fill:rgb(0,122,119);fill-rule:nonzero;"/>
    </g>
    <g transform="matrix(0.918314,0.395853,0.395853,-0.918314,112.243,124.357)">
        <path d="M3.536,-0.34C0.832,-0.236 -1.854,2.813 0.698,16.749C2.133,16.613 2.944,16.045 3.536,15.631C8.003,11.74 4.703,2.423 3.585,-0.34C3.571,-0.339 3.55,-0.34 3.536,-0.34" style="fill:rgb(0,122,119);fill-rule:nonzero;"/>
    </g>
    <g transform="matrix(0.999998,-0.00211089,-0.00211089,-0.999998,133.245,109.064)">
        <path d="M-0.014,0.001C-0.857,-0.559 -3.459,-1.661 -1.54,7.654C-1.051,10.029 -0.262,13.264 -0.014,14.213C1.585,14.489 2.629,13.834 3.087,12.265C3.936,8.255 0.037,0.034 -0.014,0.001" style="fill:rgb(0,122,119);fill-rule:nonzero;"/>
    </g>
    <g transform="matrix(1,0,0,1,141.85,76.0265)">
        <path d="M0,7.211C-0.199,8.991 -0.587,9.91 -0.964,9.499C-1.705,8.691 -2.307,-0.965 -2.305,-1.053C-2.302,-1.161 -1.246,-2.699 -0.631,-2.605C-0.502,-2.585 -0.157,-2.533 0.073,-1.253C0.533,1.889 0.133,6.02 0,7.211" style="fill:rgb(0,122,119);fill-rule:nonzero;"/>
    </g>
    <g transform="matrix(1,0,0,1,140.566,51.1356)">
        <path d="M0,8.438C0.149,9.191 0.127,9.298 0.097,9.446C0.078,9.446 0.053,9.447 0.034,9.448C-0.389,8.995 -2.703,2.912 -2.717,2.861C-2.724,2.835 -2.94,-0.706 -2.798,-1.01C-2.729,-0.982 -2.67,-0.959 -2.388,-0.158L-1.738,1.829C-1.208,3.78 -0.462,6.373 -0.019,8.345C-0.014,8.373 -0.005,8.41 0,8.438" style="fill:rgb(0,122,119);fill-rule:nonzero;"/>
    </g>
    <g transform="matrix(0.686878,-0.726772,-0.726772,-0.686878,121.395,20.2491)">
        <path d="M-2.177,-0.938C-2.243,-0.854 -2.403,0.776 -2.384,0.967C-2.175,3.002 -2.167,4.102 -2.177,5.053C-2.15,3.264 -2.128,0.877 -2.169,-0.913C-2.172,-0.92 -2.175,-0.93 -2.177,-0.938" style="fill:rgb(0,122,119);fill-rule:nonzero;"/>
    </g>
    <g transform="matrix(0.680175,0.733049,0.733049,-0.680175,51.2638,4.05976)">
        <path d="M0.393,1.394C-2.085,-1.799 -3.598,-3.354 -4.105,-3.226C-4.602,-2.273 -1.89,2.588 0.393,5.29C0.846,5.775 0.935,5.76 1.068,5.737C1.304,5.307 0.681,1.765 0.393,1.394" style="fill:rgb(0,122,119);fill-rule:nonzero;"/>
    </g>
    <g transform="matrix(1,0,0,1,32.186,14.4296)">
        <path d="M0,-0.373C-5.342,1.821 -11.462,3.851 -10.284,1.063C-9.012,-1.944 -1.794,-4.224 -0.651,-4.209C1.883,-3.938 0.054,-0.405 0,-0.373" style="fill:rgb(0,122,119);fill-rule:nonzero;"/>
    </g>
    <g transform="matrix(0.719999,-0.693975,-0.693975,-0.719999,12.8605,29.3742)">
        <path d="M1.091,-6.069C-17.848,-5.696 -12.262,0.275 -12.162,0.334C-12.08,0.383 -1.771,2.389 1.091,-1.227C1.487,-1.949 2.31,-3.451 1.181,-6.07C1.154,-6.07 1.118,-6.069 1.091,-6.069" style="fill:rgb(0,122,119);fill-rule:nonzero;"/>
    </g>
    <g transform="matrix(0.508957,-0.860792,-0.860792,-0.508957,7.32958,53.0799)">
        <path d="M-0.025,-8.184C-13.875,-9.464 -16.399,-4.979 -16.078,-0.992C-15.95,-0.897 -2.221,4.237 -0.025,-5.072C0.081,-5.736 0.238,-6.738 0.075,-8.112C0.045,-8.133 0.01,-8.171 -0.025,-8.184" style="fill:rgb(0,122,119);fill-rule:nonzero;"/>
    </g>
    <g transform="matrix(0.881308,-0.472543,-0.472543,-0.881308,18.314,79.1194)">
        <path d="M1.785,-3.692C-4.246,-11.984 -9.601,-14.345 -14.127,-10.708C-14.195,-9.721 -7.799,5.953 1.785,-2.657C1.94,-2.797 2.087,-2.938 2.219,-3.076C2.078,-3.284 1.933,-3.488 1.785,-3.692" style="fill:rgb(0,122,119);fill-rule:nonzero;"/>
    </g>
    <g transform="matrix(1,0,0,1,34.6833,108.535)">
        <path d="M0,-0.449C-1.463,6.086 -5.598,7.585 -7.308,7.927C-8.013,7.211 -12.083,-8.313 0.487,-8.376C0.666,-6.521 0.645,-3.332 0,-0.449" style="fill:rgb(0,122,119);fill-rule:nonzero;"/>
    </g>
    <g transform="matrix(1,0,0,1,49.9834,119.566)">
        <path d="M0,4.837C-2.224,8.17 -6.172,9.851 -6.941,10.154C-7.583,8.737 -9.334,-2.522 1.919,-5.317C2.511,-1.647 1.794,2.149 0,4.837" style="fill:rgb(0,122,119);fill-rule:nonzero;"/>
    </g>
    <g transform="matrix(1,0,0,1,102.05,120.23)">
        <path d="M0,15.081C-1.979,13.555 -2.257,9.701 7.656,0C8.279,0.473 8.602,0.963 8.837,1.321C12.107,7.074 2.049,13.793 0,15.081" style="fill:rgb(0,122,119);fill-rule:nonzero;"/>
    </g>
    <g transform="matrix(1,0,0,1,124.224,109.588)">
        <path d="M0,13.132C-3.981,13.99 1.101,3.962 3.543,-0.858C5.329,-0.748 5.678,0.546 5.846,1.169C6.305,5.236 0.07,13.117 0,13.132" style="fill:rgb(0,122,119);fill-rule:nonzero;"/>
    </g>
    <g transform="matrix(1,0,0,1,138.146,88.2701)">
        <path d="M0,11.671C-0.16,12.077 -0.229,12.096 -0.309,12.118C-0.79,11.566 0.964,0.829 0.987,0.726C0.99,0.713 1.981,-0.447 2.427,-0.345C2.527,-0.322 2.793,-0.262 2.723,0.867C2.666,1.463 2.58,2.363 2.105,4.4C1.511,6.532 0.763,9.389 0.066,11.489C0.046,11.543 0.021,11.617 0,11.671" style="fill:rgb(0,122,119);fill-rule:nonzero;"/>
    </g>
    <g transform="matrix(1,0,0,1,142.205,62.175)">
        <path d="M0,10.471C-0.017,10.157 -0.064,9.692 -0.065,9.687C-0.215,8.291 -0.433,6.574 -1,3.495C-1.034,3.311 -1.034,3.311 -1.029,2.924C-1.013,1.556 -1.048,0.579 -1.136,-0.063L-0.636,3.106C-0.42,5.332 -0.103,8.3 0.003,10.534C0.002,10.515 0.001,10.49 0,10.471" style="fill:rgb(0,122,119);fill-rule:nonzero;"/>
    </g>
    <g transform="matrix(60.4142,-49.5072,-49.5072,-60.4142,60.5559,75.5014)">
        <path d="M0.643,0.099L0.656,0.099C0.702,0.194 0.751,0.193 0.769,0.193C0.772,0.209 0.777,0.244 0.767,0.288C0.652,0.297 0.63,0.177 0.643,0.099ZM0.643,0.374C0.562,0.325 0.552,0.225 0.619,0.119C0.619,0.118 0.62,0.118 0.621,0.118C0.625,0.121 0.628,0.124 0.631,0.126C0.629,0.242 0.673,0.27 0.689,0.281C0.686,0.292 0.684,0.299 0.679,0.311C0.658,0.359 0.643,0.373 0.643,0.374L0.643,0.374ZM0.655,0.07C0.66,0.066 0.664,0.064 0.667,0.062C0.72,0.097 0.764,0.101 0.801,0.076C0.802,0.075 0.804,0.074 0.805,0.073C0.814,0.086 0.831,0.112 0.839,0.156C0.765,0.211 0.692,0.177 0.655,0.07ZM0.488,0.386C0.437,0.271 0.503,0.17 0.591,0.121C0.592,0.122 0.592,0.122 0.592,0.122C0.595,0.127 0.596,0.131 0.598,0.135C0.543,0.243 0.569,0.3 0.577,0.318C0.563,0.334 0.55,0.346 0.538,0.356C0.508,0.38 0.488,0.386 0.488,0.386ZM0.654,0.037C0.656,0.032 0.659,0.027 0.661,0.024C0.755,0.02 0.78,-0.037 0.79,-0.058C0.799,-0.055 0.811,-0.05 0.827,-0.036C0.837,-0.027 0.846,-0.017 0.854,-0.006C0.842,0.022 0.826,0.043 0.809,0.058C0.766,0.093 0.71,0.087 0.654,0.037ZM0.344,0.303C0.37,0.104 0.533,0.105 0.566,0.108C0.566,0.108 0.566,0.108 0.567,0.108C0.566,0.115 0.566,0.119 0.565,0.124C0.468,0.193 0.462,0.265 0.459,0.288C0.385,0.315 0.344,0.303 0.344,0.303ZM0.639,0.01C0.643,-0.151 0.725,-0.197 0.801,-0.17C0.801,-0.17 0.801,-0.17 0.801,-0.17C0.802,-0.14 0.797,-0.115 0.794,-0.102C0.79,-0.083 0.78,-0.043 0.747,-0.016C0.724,0.003 0.69,0.016 0.639,0.01ZM0.583,0.07C0.575,0.05 0.593,0.027 0.611,0.035C0.618,0.037 0.629,0.048 0.624,0.067C0.623,0.068 0.623,0.069 0.623,0.069C0.621,0.074 0.618,0.077 0.615,0.08C0.605,0.088 0.589,0.085 0.583,0.07ZM0.371,0.189C0.331,0.181 0.293,0.165 0.26,0.14C0.26,0.138 0.354,-0.022 0.516,0.059C0.525,0.064 0.538,0.071 0.551,0.081C0.547,0.087 0.544,0.092 0.542,0.095C0.427,0.102 0.385,0.167 0.371,0.189ZM0.614,-0.004C0.597,-0.024 0.531,-0.216 0.68,-0.285C0.681,-0.285 0.681,-0.285 0.681,-0.285C0.703,-0.239 0.708,-0.199 0.711,-0.177C0.694,-0.169 0.643,-0.142 0.63,-0.014C0.626,-0.011 0.621,-0.008 0.614,-0.004ZM0.535,0.056C0.433,-0.003 0.364,0.034 0.342,0.046C0.279,-0.012 0.267,-0.056 0.267,-0.056C0.289,-0.067 0.367,-0.1 0.437,-0.073C0.491,-0.051 0.53,0.004 0.549,0.048C0.543,0.051 0.539,0.054 0.535,0.056ZM0.573,-0.011C0.569,-0.138 0.504,-0.18 0.482,-0.194C0.487,-0.248 0.508,-0.288 0.517,-0.303C0.517,-0.304 0.517,-0.304 0.518,-0.305C0.56,-0.275 0.583,-0.241 0.595,-0.222C0.583,-0.2 0.551,-0.142 0.596,-0.02C0.592,-0.013 0.588,-0.004 0.585,-0.002C0.58,-0.005 0.577,-0.008 0.573,-0.011ZM0.546,0.017C0.486,-0.091 0.408,-0.095 0.383,-0.096C0.354,-0.175 0.363,-0.219 0.363,-0.219C0.396,-0.217 0.431,-0.207 0.459,-0.194C0.562,-0.143 0.565,-0.029 0.562,0.017C0.556,0.017 0.55,0.017 0.546,0.017Z" style="fill:url(#_Linear2);fill-rule:nonzero;"/>
    </g>
    <defs>
        <linearGradient id="_Linear1" x1="0" y1="0" x2="1" y2="0" gradientUnits="userSpaceOnUse" gradientTransform="matrix(1,4.33681e-19,4.33681e-19,-1,0,-9.04095e-06)"><stop offset="0" style="stop-color:rgb(181,143,95);stop-opacity:1"/><stop offset="0.28" style="stop-color:rgb(141,106,67);stop-opacity:1"/><stop offset="0.63" style="stop-color:rgb(253,198,132);stop-opacity:1"/><stop offset="1" style="stop-color:rgb(141,106,67);stop-opacity:1"/></linearGradient>
        <linearGradient id="_Linear2" x1="0" y1="0" x2="1" y2="0" gradientUnits="userSpaceOnUse" gradientTransform="matrix(1,0,0,-1,0,0.0817365)"><stop offset="0" style="stop-color:rgb(181,143,95);stop-opacity:1"/><stop offset="0.28" style="stop-color:rgb(141,106,67);stop-opacity:1"/><stop offset="0.63" style="stop-color:rgb(253,198,132);stop-opacity:1"/><stop offset="1" style="stop-color:rgb(141,106,67);stop-opacity:1"/></linearGradient>
    </defs>
</svg>
