<?xml version="1.0" encoding="utf-8"?>
<!-- Generator: Adobe Illustrator 24.2.1, SVG Export Plug-In . SVG Version: 6.00 Build 0)  -->
<svg version="1.1" id="Capa_1" xmlns="http://www.w3.org/2000/svg" xmlns:xlink="http://www.w3.org/1999/xlink" x="0px" y="0px"
	 viewBox="0 0 499.4 156.1" style="enable-background:new 0 0 499.4 156.1;" xml:space="preserve">
<style type="text/css">
	.st0{fill:#FFFFFF;}
	.st1{enable-background:new    ;}
	.st2{clip-path:url(#SVGID_2_);}
	.st3{clip-path:url(#SVGID_4_);fill:#FFFFFF;}
	.st4{clip-path:url(#SVGID_6_);fill:#FFFFFF;}
	.st5{clip-path:url(#SVGID_8_);fill:#FFFFFF;}
	.st6{clip-path:url(#SVGID_10_);fill:#FFFFFF;}
	.st7{clip-path:url(#SVGID_12_);fill:#FFFFFF;}
	.st8{clip-path:url(#SVGID_14_);fill:#FFFFFF;}
</style>
<g>
	<g>
		<g>
			<g>
				<path class="st0" d="M132.6,35.4l-0.5,0l-0.5,5.2L121.2,87L108,87l16.1-72l13.3,0l18,50.8l0.9,0l0.4-4.4l10.3-46.3l12.9,0
					l-16.2,72l-13.7,0L132.6,35.4z"/>
				<path class="st0" d="M175.4,87.2l12.8-56.6l13.5,0L189,87.2L175.4,87.2z M189.6,21.1c0-2.1,0.7-3.9,2.2-5.2c1.5-1.3,3.7-2,6.8-2
					c2.3,0,4,0.4,5,1.2c1,0.8,1.5,2,1.5,3.5c0,1-0.2,2-0.5,2.8c-0.3,0.9-0.8,1.6-1.6,2.3c-0.7,0.6-1.7,1.2-2.8,1.5
					c-1.2,0.4-2.6,0.6-4.2,0.6c-2.2,0-3.9-0.4-4.9-1.2S189.6,22.6,189.6,21.1z"/>
				<g>
					<path class="st0" d="M201.7,55.9c0.4-2,0.9-4,1.6-6.1c0.6-2.1,1.4-4.1,2.4-6.1c0.9-2,2.1-3.9,3.4-5.6c1.3-1.8,2.9-3.3,4.7-4.6
						c1.8-1.3,3.9-2.3,6.3-3.1c2.4-0.8,5-1.1,8.1-1.1c1.9,0,3.6,0.2,5,0.7c1.4,0.5,2.7,1.1,3.7,2c1.1,0.8,1.9,1.8,2.6,3
						c0.7,1.1,1.3,2.4,1.7,3.7l5.8-24.8l13.3,0l-10,43.9c-0.9,4.5-2,8.5-3.3,11.8c-1.3,3.3-2.8,6.1-4.4,8.4
						c-1.6,2.3-3.4,4.2-5.4,5.6c-1.9,1.4-4,2.5-6.1,3.3c-2.1,0.8-4.4,1.3-6.7,1.6c-2.3,0.3-4.7,0.4-7.1,0.4c-3,0-5.6-0.3-7.7-1
						c-2.1-0.7-3.9-1.6-5.3-2.8c-1.4-1.2-2.5-2.6-3.3-4.3c-0.8-1.6-1.3-3.4-1.6-5.4c-0.3-1.9-0.3-4-0.1-6.1c0.2-2.1,0.5-4.3,1-6.6
						L201.7,55.9z M212.8,62.8c-0.5,2.3-0.8,4.4-0.8,6.3c0,1.9,0.3,3.4,0.9,4.7c0.6,1.3,1.5,2.3,2.7,3c1.2,0.7,2.8,1.1,4.7,1.1
						c2.2,0,4.1-0.4,5.8-1.1c1.6-0.8,3-1.8,4.2-3.1c1.2-1.3,2.1-2.8,2.9-4.5c0.7-1.7,1.4-3.5,1.8-5.4l1.9-8.8
						c0.3-1.9,0.5-3.8,0.5-5.6c0-1.8-0.2-3.4-0.7-4.8c-0.5-1.4-1.4-2.5-2.7-3.4c-1.2-0.9-3-1.3-5.2-1.3c-2.3,0-4.3,0.4-5.9,1.2
						c-1.6,0.8-3,1.9-4.1,3.3c-1.1,1.4-2,3-2.7,4.8c-0.7,1.8-1.2,3.8-1.7,5.7L212.8,62.8z"/>
					<path class="st0" d="M302.3,36.9c-1.3-2.4-3.3-4.2-6.1-5.6c-2.8-1.3-6.6-2-11.3-2c-4.9,0-9,0.7-12.4,2
						c-3.4,1.3-6.2,3.2-8.5,5.6c-2.3,2.4-4.1,5.3-5.4,8.6c-1.4,3.3-2.5,6.9-3.3,10.9L254,62c-0.5,2.5-0.9,4.8-1,7.1
						c-0.1,2.3,0,4.4,0.3,6.4c0.4,2,1,3.8,1.9,5.4c0.9,1.6,2.2,3.1,3.8,4.2c1.6,1.2,3.6,2.1,6,2.7c2.4,0.7,5.2,1,8.4,1
						c3.9,0,7.4-0.5,10.2-1.5c2.9-1,5.3-2.4,7.4-4.2c2.1-1.8,3.8-3.9,5.2-6.3c1.4-2.4,2.6-5.1,3.5-7.9l-12.8,1.3
						c-0.4,1-0.8,1.9-1.3,2.7c-0.7,1.2-1.6,2.2-2.6,3.1c-1,0.8-2.2,1.5-3.6,1.9c-1.4,0.4-3,0.6-4.9,0.6c-2,0-3.7-0.4-5-1.1
						c-1.3-0.7-2.3-1.7-2.9-2.9c-0.7-1.2-1-2.6-1.1-4.3c-0.1-1.6,0.1-3.4,0.6-5.3l18.7-1.8l16.9-1.7l0-0.1l1-4.6
						c0.9-4.1,1.3-7.8,1.4-11.2C304.2,42.2,303.6,39.3,302.3,36.9z M268.3,55.1l0.4-1.9c0.4-2.1,1-4,1.9-5.6
						c0.8-1.7,1.8-3.1,3.1-4.3c1.2-1.2,2.6-2.1,4.2-2.8c1.6-0.6,3.4-1,5.4-1c2,0,3.7,0.3,4.9,0.8c1.3,0.5,2.2,1.3,2.9,2.4
						c0.6,1.1,1,2.4,1.1,4.1c0.1,1.6-0.1,3.6-0.6,5.9l0,0.4L268.3,55.1z"/>
				</g>
			</g>
			<g>
				<path class="st0" d="M355.8,62.4c-0.4,2-0.9,4-1.6,6.1c-0.6,2.1-1.4,4.1-2.4,6.1c-0.9,2-2.1,3.9-3.4,5.6
					c-1.3,1.8-2.9,3.3-4.7,4.6c-1.8,1.3-3.9,2.3-6.3,3.1c-2.4,0.8-5,1.1-8.1,1.1c-1.9,0-3.6-0.2-5-0.7c-1.4-0.5-2.7-1.1-3.7-2
					c-1.1-0.8-1.9-1.8-2.6-3c-0.7-1.1-1.3-2.4-1.7-3.7l-5.8,25.4l-13.3,0l10-44.5c0.9-4.5,2-8.5,3.3-11.8c1.3-3.3,2.8-6.1,4.4-8.4
					c1.6-2.3,3.4-4.2,5.4-5.6c1.9-1.4,4-2.5,6.1-3.3c2.1-0.8,4.4-1.3,6.7-1.6c2.3-0.3,4.7-0.4,7.1-0.4c3,0,5.6,0.3,7.7,1
					c2.1,0.7,3.9,1.6,5.3,2.8s2.5,2.6,3.3,4.3c0.8,1.6,1.3,3.4,1.6,5.4c0.3,1.9,0.3,4,0.1,6.1c-0.2,2.1-0.5,4.3-1,6.6L355.8,62.4z
					 M344.6,55.5c0.5-2.3,0.8-4.4,0.8-6.3c0-1.9-0.3-3.4-0.9-4.7c-0.6-1.3-1.5-2.3-2.7-3c-1.2-0.7-2.8-1.1-4.7-1.1
					c-2.2,0-4.1,0.4-5.8,1.1c-1.6,0.8-3,1.8-4.2,3.1c-1.2,1.3-2.1,2.8-2.9,4.5c-0.7,1.7-1.4,3.5-1.8,5.4l-1.9,8.8
					c-0.3,1.9-0.5,3.8-0.5,5.6c0,1.8,0.2,3.4,0.7,4.8c0.5,1.4,1.4,2.5,2.7,3.4c1.2,0.9,3,1.3,5.2,1.3c2.3,0,4.3-0.4,5.9-1.2
					c1.6-0.8,3-1.9,4.1-3.3c1.1-1.4,2-3,2.7-4.8c0.7-1.8,1.2-3.8,1.7-5.7L344.6,55.5z"/>
			</g>
			<path class="st0" d="M361.3,57.5c0.9-4.2,2.1-8,3.6-11.3c1.5-3.4,3.4-6.3,5.8-8.6c2.4-2.4,5.3-4.2,8.7-5.5
				c3.4-1.3,7.5-1.9,12.2-1.9c4.7,0,8.5,0.7,11.4,2c2.9,1.3,5,3.2,6.4,5.6c1.4,2.4,2.1,5.3,2.2,8.7c0.1,3.4-0.3,7.2-1.2,11.4l-1,4.4
				c-0.9,4.2-2.1,8-3.6,11.4c-1.5,3.4-3.4,6.3-5.7,8.7c-2.3,2.4-5.2,4.2-8.6,5.5c-3.4,1.3-7.4,1.9-12.2,1.9c-4.7,0-8.6-0.7-11.5-2
				c-2.9-1.3-5.1-3.2-6.5-5.6c-1.4-2.4-2.2-5.3-2.3-8.7c-0.1-3.4,0.3-7.2,1.2-11.5L361.3,57.5z M373.2,64c-0.4,2-0.7,3.8-0.7,5.6
				c0,1.8,0.3,3.3,0.8,4.7c0.6,1.4,1.5,2.4,2.8,3.2c1.3,0.8,3,1.2,5.2,1.2c2.1,0,4-0.4,5.6-1.1c1.6-0.8,3-1.8,4.1-3.1
				c1.1-1.3,2.1-2.9,2.8-4.7c0.7-1.8,1.3-3.7,1.8-5.7l1.8-8.5c0.4-1.8,0.6-3.5,0.7-5.3c0.1-1.8-0.1-3.3-0.6-4.7
				c-0.5-1.4-1.4-2.5-2.7-3.4c-1.3-0.9-3.1-1.3-5.4-1.3c-2.3,0-4.3,0.4-5.9,1.2c-1.6,0.8-3,1.9-4.1,3.3c-1.1,1.4-2,2.9-2.7,4.7
				c-0.7,1.8-1.2,3.6-1.6,5.4L373.2,64z"/>
			<path class="st0" d="M481.1,31.7l3-13.4l-13.5-0.1l-3,13.5l-6.8,0l-2.5,10.7l7,0L458.8,71c-0.4,1.7-0.6,3.3-0.8,4.9
				c-0.2,1.6-0.2,3.1-0.1,4.4c0.1,1.4,0.4,2.7,1,3.8c0.5,1.2,1.3,2.2,2.3,3c1,0.8,2.4,1.5,4.1,2c1.7,0.5,3.7,0.7,6,0.7
				c2.9,0,5.5-0.3,7.6-0.8c2.1-0.6,3.8-1.2,5-1.8l1.3-9.5c-1,0.3-2.2,0.6-3.4,0.9c-1.3,0.3-2.9,0.4-5,0.4c-1.3,0-2.3-0.3-3-0.9
				c-0.7-0.6-1.2-1.3-1.4-2.2c-0.3-0.9-0.3-2-0.2-3.3c0.1-1.2,0.5-2.6,0.8-3.9l3.4-15.3l2.4-11l15,0l2.4-10.7L481.1,31.7z"/>
			<path class="st0" d="M444.7,32.1C444.7,32.1,444.7,32.1,444.7,32.1c-4.3,0.9-8.1,3-11.2,6.1l1.4-6.5l-12.6,0l-12.7,56.6l12.6,0
				l1.6-7.6l2.7-11.9l2.4-9.4c2.4-10.2,11.6-17.4,22.1-17.2l3.6,0.1l2.5-10.7C456.9,31.5,448.9,31.1,444.7,32.1z"/>
		</g>
	</g>
	<g>
		<g class="st1">
			<g class="st1">
				<g>
					<path class="st0" d="M74.5,13.8c0.7,1-1.3,0.8-1.3,0.8c0,0-2.3-2.8-1.8-3c0.1,0,0.2,0,0.3,0.1l0.6,0.4
						C73.9,13,74.4,13.7,74.5,13.8 M69.2,11.2c0.2-0.5-0.6-1.1-1.9-1.7c-0.5-0.2-0.8-0.2-0.9-0.2c-1.2,0.1,0.5,1.9,1.3,2.6
						C67.7,11.9,69,11.7,69.2,11.2 M62.6,9.9c0.4-0.3,1.6-1.2-1.3-2.3c-0.6-0.1-1.3,0-1.7,0.1c-2.1,0.7,1.6,2.8,1.7,2.9
						C61.6,10.5,62.2,10.2,62.6,9.9 M54,10.7c3-2.6,0.8-3.3-0.4-3.6c-1.4-0.4-1.6-0.5-2.8,0.3C48.4,8.8,51.7,10.2,54,10.7
						C53.9,10.8,53.9,10.7,54,10.7 M45.6,13.3c0,0,0.1,0,0.1,0c1.6-3.3-0.4-3.9-1.1-4.1c-1.8-0.4-4-0.4-4.4-0.1
						C38.1,11.1,39.3,13.2,45.6,13.3 M38.4,18.7C38.4,18.7,38.4,18.6,38.4,18.7c-0.1-3.1-1.9-3.8-2.5-4.1c-2.6-0.8-7,0.9-7,1
						C28.2,16.6,28.8,21.4,38.4,18.7 M33.5,26.8C33.5,26.8,33.5,26.8,33.5,26.8c-1.1-2.1-2.7-2.8-3.4-3.2c-3.8-1.3-8,2.2-9.2,3.3
						C22.8,30.9,27.6,30.9,33.5,26.8 M32.2,37C32.3,37,32.2,37,32.2,37c-0.9-0.8-1.6-1.1-2.1-1.4c-7.4-3.1-11,5.6-11,5.7
						C25.1,45.6,30.3,39.7,32.2,37 M34.8,47.6c0.1-0.3,0.1-0.4,0.2-0.5c-0.2-0.1-0.3-0.1-0.4-0.2c-1.1-0.3-4.7-1.3-7.4,0.7
						c-3.2,2.4-3.8,7.4-3.7,7.6C26.4,56.1,31.8,56.1,34.8,47.6 M39.4,61.4c0.9-1.9,1.2-4.1,1.3-5.4c-0.1,0-0.2,0-0.2,0
						c-1.8-0.1-5.1,0.2-7.3,2.8c-2.2,2.6-2,7.8-1.8,8C33.5,66.6,37.4,65.8,39.4,61.4 M47.1,70.5c1.6-2.4,1.8-5.7,1.3-8
						c-2.3,0.5-9.6,2.7-7.6,12.2c0,0,0,0,0.1,0C41.6,74.5,45.2,73.3,47.1,70.5 M56.4,75.8c3.3-3.7,1.7-8.1,1.1-9.4
						c-4.5,2.2-8.4,6.7-6,12.9C51.7,79.4,54.6,77.9,56.4,75.8 M66.5,78.6c4.9-5,2.1-9.4,0.8-11c-1.9,1.6-7.8,7.4-3.5,13.2
						C63.9,80.8,65.5,79.6,66.5,78.6 M76.3,78.6c1.9-2.1,5.8-7.3,1.8-11.7c-0.3-0.3-0.7-0.7-1.3-1.1C76.2,66,70.7,75,76.3,78.6
						 M86.8,71.6C86.8,71.6,86.8,71.6,86.8,71.6c0.5-1,2.7-6.2,0.7-9.3c-0.4-0.5-1.3-1.6-3.1-1.9C81.9,70.3,85.3,71.6,86.8,71.6
						 M93.5,60c0,0,0.5-4.1-0.8-6.7c-1-1.8-2.8-1.3-3.5-1c0.1,0.9,0.4,5.5,1.5,7.4C91.4,61.1,92.7,60.9,93.5,60 M94.8,46.3
						c0,0-0.3-1.8-1.4-3.9c-0.4-0.7-1.4-2.4-3.1,0.4c0.2,0.6,1.5,3.9,2.5,5.1C93.9,49.2,94.7,48,94.8,46.3 M91.3,33.1
						c0,0-0.2-0.3-0.7-1.1c-0.3-0.4-1.1-1.6-1.5-1.5c-0.7,0.1-0.7,2.9-0.7,2.9c0,0,1.9,2.7,2.8,3.1C92.2,37,92,35.1,91.3,33.1
						 M85.2,23.1c-0.1-0.2-0.3-0.5-0.5-0.7c-0.2-0.3-1.1-1.1-1.4-0.9c-0.4,0.2,0.7,3.7,0.8,3.7c0,0.1,1.5,1.3,2.2,1.4
						C87.4,26.9,86.3,24.7,85.2,23.1 M79.9,17.7c-0.3-0.4-1.1-1.2-2.3-2.2c-0.1-0.1-0.5-0.3-0.6-0.3c-0.3,0.2,1.7,3.6,1.7,3.6
						c0,0,0.8,0.3,1.3,0.4C81.1,19.4,80.5,18.5,79.9,17.7"/>
					<path class="st0" d="M72.6,16.9c-0.4,1.5-2.9,1.8-3.1,1.9c-2.3-3.5-1.9-5.9,1.1-5.9C71.5,13.8,72.9,15.6,72.6,16.9"/>
					<path class="st0" d="M67.1,15.4c-0.4,0.9-1.5,1.6-2.3,2c-3.3-3.1-3.4-5.8-0.1-6.6C65.5,11.4,68.1,13.4,67.1,15.4"/>
					<path class="st0" d="M60.8,16.1c-0.3,0.4-0.6,0.8-0.9,1.1c-0.4-0.2-3.5-1.9-4.1-4c-0.5-1.7,1.5-3.1,2-3.2c0,0,0.1,0,0.1,0
						C60.3,11.1,62.8,13,60.8,16.1"/>
					<path class="st0" d="M54.8,18.6c-1.6-0.4-4.6-1.5-5.8-3.1c-1.5-2.1,0.5-4.3,0.5-4.3c0,0,1,0,3,0.8
						C55.6,13.3,56.4,15.5,54.8,18.6C54.9,18.6,54.9,18.6,54.8,18.6"/>
					<path class="st0" d="M50.4,21.5c-9.6,0.4-9.8-5.5-9.2-6.5c0,0,3.1-0.6,6.1,0.5C51,17.1,50.5,21.5,50.4,21.5"/>
					<path class="st0" d="M47.2,25.9c-6.4,2.3-11.4,0.7-12.7-4c0.1-0.2,5.1-2.4,8.7-0.9C45.1,22,46.4,23.6,47.2,25.9
						C47.2,25.9,47.2,25.9,47.2,25.9"/>
					<path class="st0" d="M45.7,31.6c-5.6,4.4-11.2,4.3-14.8-0.1c1.7-1.7,6.2-5.3,11-3C42.8,28.9,44.4,29.8,45.7,31.6
						C45.7,31.6,45.7,31.6,45.7,31.6"/>
					<path class="st0" d="M46.3,37.8c-1.4,2.2-6.7,9-14.7,4.5c0-0.1,4.2-10.2,13.7-5.2C45.5,37.3,45.9,37.5,46.3,37.8
						C46.3,37.8,46.3,37.8,46.3,37.8"/>
					<path class="st0" d="M48.1,45.9c-3,6.7-8.3,7.1-12.2,6.3c-0.1-0.1,1.3-11.3,12.1-8.8c0.1,0,0.5,0.1,0.9,0.2
						C48.7,44.6,48.3,45.4,48.1,45.9"/>
					<path class="st0" d="M51.8,55c-2.1,4.2-6.5,5.2-9,5.4c-0.2-0.2-0.4-5.5,2.1-8.5c2.3-2.8,6.1-3.2,7.7-3.3c0.3,0,0.4,0,0.5,0
						C53.3,50.8,52.7,53.2,51.8,55"/>
					<path class="st0" d="M57.8,61.3c-1.9,2.8-5.3,4.2-6.3,4.5c0,0,0,0-0.1,0c-3-10,4.8-13.1,7.3-13.9
						C59.5,54.6,59.7,58.5,57.8,61.3"/>
					<path class="st0" d="M65.2,64.7c-1.5,2.2-4,4-4.2,3.9c-4-6.6-0.7-12.1,3.7-15.1C65.7,55,68.4,60,65.2,64.7"/>
					<path class="st0" d="M72.6,66.6c-0.3,0.4-0.8,1.1-1.4,1.8c-0.5,0-7.4-6.2-0.4-15.3C72.9,55,77.1,59.8,72.6,66.6"/>
					<path class="st0" d="M80.3,65c-2.3-1-7.3-4.3-4.1-14.1c0,0,0.1,0,0.1,0c1.3,0.6,2.2,1.3,2.8,1.8C83,56.5,82,61.5,80.3,65
						C80.4,65,80.3,65,80.3,65"/>
					<path class="st0" d="M87.2,58.1c-3.2,0.3-7-2.4-7.1-11.4c1.3,0.1,3.2,0.5,4.9,2.2C87.8,51.9,87.3,57.1,87.2,58.1
						C87.2,58.1,87.2,58.1,87.2,58.1"/>
					<path class="st0" d="M90.5,48.9c-2.4,2.1-5.9,0.6-8.4-7.3c0.8-0.3,3.6-1.2,5.7,1.1C89.6,44.7,90.3,47.4,90.5,48.9
						C90.6,48.8,90.6,48.9,90.5,48.9"/>
					<path class="st0" d="M90.3,38.9c-0.7,2.7-3.4,4.1-8.1-3.1c1.9-2.2,3.9-2.3,5.9-0.1C89.8,37.6,90.3,38.9,90.3,38.9"/>
					<path class="st0" d="M87,29.6c0.1,0.6,0.9,6.1-4.4,2.3c-0.7-0.5-2.1-1.6-2-1.7c0,0,0.7-3,2.4-3.1c0.4,0,1.7,0.1,3.7,2.1
						C87,29.5,87,29.5,87,29.6"/>
					<path class="st0" d="M82.5,23.6c1.3,4.9-3.9,2.3-4.9,1.8c-0.2-1.6-0.3-6.4,4.3-3.4C82.2,22.7,82.4,23.4,82.5,23.6"/>
					<path class="st0" d="M77.8,19.9c0.1,2.2-3,1.7-4,1.5c-1.2-3.2-0.9-6,2.4-5.1C76.9,17.4,77.7,18.8,77.8,19.9"/>
					<path class="st0" d="M70.1,10.8c-0.1-0.1-0.3-0.1-0.4-0.1c-0.2-0.1-0.5-0.3-0.8-0.4l0.1,0.1L70.1,10.8
						C70.2,10.8,70.1,10.8,70.1,10.8"/>
					<path class="st0" d="M65.6,8.8c-0.3-0.1-0.6-0.1-1.2-0.2c0,0-0.1,0-0.1,0c0,0-0.8-0.4-0.9-0.5c0,0,0,0,0,0l0.6,0.2
						C64.6,8.5,65.2,8.7,65.6,8.8C65.6,8.8,65.6,8.8,65.6,8.8"/>
					<path class="st0" d="M57.9,7.2c-0.3,0-0.5,0.1-0.8,0.1c-0.1,0-0.2,0.1-0.2,0c0,0-1.5-0.5-1.5-0.8c0.2-0.2,1-0.1,1.6,0l1.2,0.2
						L59.7,7C59.1,7.1,58.5,7.1,57.9,7.2"/>
					<path class="st0" d="M46.6,8c-0.4,0-4-0.4-3.2-1.2c0,0,1.5-1.2,4.9-0.8c0.9,0.1,1.1,0.3,0.5,0.8C48.6,6.8,46.7,8,46.6,8"/>
					<path class="st0" d="M35.2,12.3c-1.7,0.3-7.2,1.2-5.6-1.1c0.4-0.6,1.1-1.1,1.2-1.2c0.4-0.1,2.7-0.9,4.4-0.7
						C37.2,9.6,35.3,12.3,35.2,12.3C35.2,12.3,35.2,12.3,35.2,12.3"/>
					<path class="st0" d="M25.7,21.1c-9.2,5-8.9,0.4-8.6-0.3c0.1-0.2,4.2-3.3,6.6-2.8C25.8,18.5,25.8,21,25.7,21.1"/>
					<path class="st0" d="M21,33.7c-6.7,7.7-9.8,4.4-10.6,3.2c0.6-1.1,3.9-6.6,7.9-5.5C18.8,31.7,20,32.2,21,33.7
						C21.1,33.7,21,33.7,21,33.7"/>
					<path class="st0" d="M22.4,47.5c-1.4,3.7-4.5,9.4-9.7,6.7c0-0.1,1-10.5,8.9-7.2C21.8,47.1,22.1,47.2,22.4,47.5
						C22.4,47.4,22.4,47.5,22.4,47.5"/>
					<path class="st0" d="M28.2,61.9C27,67,24.6,69.4,21,69c-0.4-0.5-1.5-10.8,7.1-9.3c0.1,0,0.2,0,0.4,0.1
						C28.5,60.4,28.3,61.2,28.2,61.9"/>
					<path class="st0" d="M37.7,74.1c-1.5,3.3-4.7,4.3-5.6,4.6c0,0-1.1-4.3,0.9-7.6c0.9-1.6,3.3-2.9,5.7-3.1
						C38.7,68.8,38.9,71.6,37.7,74.1"/>
					<path class="st0" d="M47.1,80.4c-1.8,2.3-4.9,3.4-5.8,3.6c-0.3-0.8-1-8.4,7.5-10.5C49.1,76,48.5,78.6,47.1,80.4"/>
					<path class="st0" d="M55.7,86.3c-1.9,1.4-4.3,2.4-4.5,2.3c-1-3.6,1.7-7.7,6.9-10.2C58.8,79.8,59.7,83.3,55.7,86.3"/>
					<path class="st0" d="M67,87.6c-0.2,0.2-1,0.7-1.9,1.2c-1.7-2.5,0.2-6.5,5.3-10.6C71.3,79.2,73.6,83,67,87.6"/>
					<path class="st0" d="M79.2,84.2c-1.5-0.7-2.3-3.1,2.6-10.4c0.8,0.4,1.1,1,1.3,1.3C84.7,78.4,80.5,82.9,79.2,84.2
						C79.2,84.2,79.2,84.2,79.2,84.2"/>
					<path class="st0" d="M90.3,73.6c-0.5,0.3-2.1,1-1-4.8c0.3-1.5,0.8-3.5,0.9-4.1c1-0.2,1.6,0.2,1.9,1.2
						C92.7,68.5,90.3,73.6,90.3,73.6"/>
					<path class="st0" d="M95.6,57.6c-0.1,1.1-0.4,1.7-0.6,1.4c-0.5-0.5-0.8-6.5-0.8-6.6c0-0.1,0.7-1,1-1c0.1,0,0.3,0,0.4,0.8
						C96,54.3,95.7,56.9,95.6,57.6"/>
					<path class="st0" d="M94.8,42.9c0.1,0.5,0.1,0.5,0.1,0.6c0,0,0,0,0,0c-0.3-0.3-1.7-4.1-1.7-4.1c0,0-0.1-2.2-0.1-2.4
						c0,0,0.1,0,0.3,0.5l0.4,1.2C94.1,40,94.6,41.6,94.8,42.9C94.8,42.9,94.8,42.9,94.8,42.9"/>
					<path class="st0" d="M82.4,19.9c-0.1,0-0.9-0.6-0.9-0.7c-0.8-1-1.3-1.4-1.8-1.8C80.5,18.1,81.6,19.1,82.4,19.9
						C82.4,19.8,82.4,19.9,82.4,19.9"/>
					<path class="st0" d="M40.2,8c-2.5,0.2-3.8,0.2-4-0.1c0.2-0.6,3.6-1.4,5.8-1.6c0.4,0,0.4,0,0.5,0.1C42.3,6.8,40.5,8,40.2,8"/>
					<path class="st0" d="M27.5,14.6c-3.3,1.4-7.1,2.6-6.4,0.9c0.8-1.9,5.3-3.3,6-3.3C28.7,12.4,27.5,14.6,27.5,14.6"/>
					<path class="st0" d="M18.6,26.4c-8.6,8-8.7,2.9-8.7,2.8c0-0.1,3.8-5.4,6.6-5C17,24.4,18,24.7,18.6,26.4
						C18.6,26.4,18.6,26.4,18.6,26.4"/>
					<path class="st0" d="M16.4,41.5c-3.7,7.8-6.9,7.7-8.9,6.3c0-0.1,1.6-9.1,7.3-7.3C15.2,40.6,15.8,40.9,16.4,41.5
						C16.4,41.4,16.4,41.4,16.4,41.5"/>
					<path class="st0" d="M21,56.5c-0.9,6.3-3.1,9.2-6.7,8.5c-0.3-0.5-1.4-11,6.3-9.1c0.1,0,0.2,0.1,0.4,0.1
						C21,56.2,21,56.4,21,56.5"/>
					<path class="st0" d="M29.1,73c-0.9,4.1-3.5,5-4.5,5.2c-0.4-0.4-3-10.1,4.8-10.1C29.5,69.3,29.5,71.2,29.1,73"/>
					<path class="st0" d="M38.6,83.2c-1.4,2.1-3.8,3.1-4.3,3.3c-0.4-0.9-1.5-7.9,5.5-9.6C40.1,79.1,39.7,81.5,38.6,83.2"/>
					<path class="st0" d="M47.6,88c-1.1,0.8-2.7,1.7-4.4,2.2c-0.3-0.4-0.7-5.9,6.7-9C50.3,82.4,50.9,85.5,47.6,88"/>
					<path class="st0" d="M58.8,90.5c-1.3,0.7-2.6,1.2-3,1.4c-1.1-2.5,1.6-6,6.8-9C63.4,84.1,64.6,87.3,58.8,90.5"/>
					<path class="st0" d="M70.9,90c-1.2-0.9-1.4-3.3,4.8-9.4c0.4,0.3,0.6,0.6,0.7,0.8C78.4,85,72.2,89.2,70.9,90"/>
					<path class="st0" d="M84.7,82.1c-2.5,0.5,0.7-5.7,2.2-8.7c1.1,0.1,1.3,0.9,1.4,1.3C88.6,77.2,84.7,82.1,84.7,82.1"/>
					<path class="st0" d="M93.3,68c-0.1,0.3-0.1,0.3-0.2,0.3c-0.3-0.3,0.8-7,0.8-7.1c0,0,0.6-0.7,0.9-0.7c0.1,0,0.2,0.1,0.2,0.8
						c0,0.4-0.1,0.9-0.4,2.2c-0.4,1.3-0.8,3.1-1.3,4.4C93.4,67.9,93.4,67.9,93.3,68"/>
					<path class="st0" d="M95.9,51c0-0.2,0-0.5,0-0.5c-0.1-0.9-0.2-1.9-0.6-3.8c0-0.1,0-0.1,0-0.4c0-0.8,0-1.5-0.1-1.9l0.3,2
						C95.6,47.8,95.8,49.7,95.9,51C95.9,51.1,95.9,51,95.9,51"/>
					<g>
						<defs>
							<path id="SVGID_1_" d="M73.9,48.3c-0.8-0.3-2.8-1.2-4.6-3c0.4-1.2,1.5-4.8-2.2-9.7c0-0.2,0.1-0.4,0.2-0.7
								c0.1,0,0.6,0.2,0.9,0.4c2.1,6,5.1,7.2,6.2,7.6C74.4,43.9,74.6,45.9,73.9,48.3C73.9,48.3,73.9,48.3,73.9,48.3 M68.3,46
								c2.3-5.1-1.1-9.4-2.6-11.1c-0.2,0.2-0.4,0.4-0.5,0.5c1.1,5.9-1.8,8.4-2.7,9.3c1.4,3.8,3,5.2,3,5.2
								C66.7,48.8,67.7,47.3,68.3,46 M63.8,42.1c1.4-2.5,1.2-5.7,0.5-8c-0.3,0-0.6,0.1-0.8,0.1c-2,5.3-5.7,6.1-6.9,6.3
								c-0.6,4.1,0.3,6.1,0.3,6.1C58.1,46.4,62,45.2,63.8,42.1 M62.7,34.7c0.2-0.4,0.5-1.1,0.6-1.9c-0.3-0.1-0.6-0.2-0.8-0.3
								c-4.5,3.3-8.1,2.1-9.3,1.8c-1.3,1.5-2.2,3.3-2.7,5.3C50.7,39.6,59.1,42.7,62.7,34.7 M63.1,31.4
								C63.1,31.4,63.1,31.3,63.1,31.4c-0.2-0.3-0.3-0.4-0.5-0.6c-5.8,0.4-8.2-2.1-9-2.9c-3.6,1.3-4.8,3-4.8,3
								C55.8,37.5,61.9,32.4,63.1,31.4 M63.6,30.1C63.6,30,63.6,30,63.6,30.1c0-0.3-0.1-0.5-0.2-0.7c-5.4-2.4-6.1-5.3-6.4-6.2
								c-3.6-0.6-5.4,0.2-5.4,0.2C53.2,29.2,58.8,31,63.6,30.1 M64.7,29.3C64.7,29.3,64.8,29.3,64.7,29.3c0.1-0.3,0.2-0.5,0.2-0.6
								c-3.6-4.3-2.9-6.7-2.6-7.6c-0.5-0.3-0.8-0.5-1.3-0.8c-2.3-1.2-3.3-1.2-3.3-1.2C56.2,23.3,58.9,27.4,64.7,29.3 M66.6,29
								c0,0,0.1-0.1,0.1-0.1c-1.2-4.9,0.7-6.4,1.4-7c-0.4-0.7-1.3-2.2-3-3.5c-4.6,3.2-1.7,8.4,1.2,10.9C66.3,29.3,66.4,29.2,66.6,29
								 M72.9,25.3c0.1,0,0.2,0,0.2,0c-0.1-0.7-0.2-2.3-1.3-4.2c-4.5,0.2-6.2,3.7-4.2,8.9c0.3,0,0.5-0.1,0.7-0.1
								C69.2,27,70.7,25.5,72.9,25.3 M77.3,28.7c0.1-0.6,0.1-1.3,0.1-1.9c-4.6-2.3-8-0.5-8.8,4.5c0.3,0.1,0.5,0.2,0.7,0.3
								c3.6-2.8,6.3-1.4,7.3-0.9C76.8,30.3,77.1,29.7,77.3,28.7 M79.4,42.6C79.4,42.6,79.5,42.5,79.4,42.6c-0.6-2.4-1.6-4.1-2.2-5
								c-0.9,0.2-3.6,0.8-8.1-3.7c-0.3,0-0.5,0-0.9,0.1C68.3,35.3,71.7,44.6,79.4,42.6 M80.4,34.6C80.4,34.6,80.4,34.5,80.4,34.6
								c-0.9-1.2-1.8-2-2.4-2.4c-1.2-0.9-5-3.8-9.3,0.6C73.9,38.7,78.4,37.9,80.4,34.6 M67,32.7c0.2-0.3,0.3-1-0.5-1.6
								c0,0-0.1,0-0.1-0.1c-0.9-0.5-1.8,0.2-1.5,1.2C65.2,33.2,66.5,33.5,67,32.7"/>
						</defs>
						<use xlink:href="#SVGID_1_"  style="overflow:visible;fill:#FFFFFF;"/>
						<clipPath id="SVGID_2_">
							<use xlink:href="#SVGID_1_"  style="overflow:visible;"/>
						</clipPath>
						<g class="st2">
							
								<rect x="44.6" y="7.2" transform="matrix(1 2.691543e-03 -2.691543e-03 1 8.487274e-02 -0.1747)" class="st0" width="40.7" height="48.5"/>
							<g>
								<polygon class="st0" points="44.5,55.7 44.6,55.7 44.5,55.5 								"/>
							</g>
						</g>
					</g>
				</g>
			</g>
		</g>
	</g>
</g>
<g>
	<path class="st0" d="M289.4,147.7l5.6-26.1h3.9l-1.7,7.9c0.4-0.7,0.9-1.2,1.4-1.6c0.6-0.4,1.2-0.6,2-0.6c0.7,0,1.4,0.1,1.9,0.3
		c0.5,0.2,0.9,0.5,1.2,0.8c0.3,0.3,0.5,0.8,0.6,1.2c0.1,0.5,0.2,1,0.2,1.6c0,0.5,0,1-0.1,1.6c-0.1,0.5-0.2,1.1-0.3,1.7l-1.4,6.4
		c-0.2,1-0.5,1.9-0.8,2.8c-0.3,0.9-0.7,1.6-1.2,2.3c-0.5,0.6-1.1,1.2-1.8,1.5s-1.6,0.6-2.7,0.6c-0.8,0-1.4-0.2-1.8-0.6
		c-0.4-0.4-0.6-0.9-0.7-1.6l-0.4,1.9H289.4z M299,131.1c-0.5,0-0.9,0.1-1.2,0.3s-0.6,0.5-0.8,0.9c-0.2,0.4-0.4,0.8-0.5,1.2
		c-0.1,0.4-0.2,0.9-0.3,1.3l-1.2,5.7c-0.1,0.3-0.1,0.7-0.2,1c-0.1,0.3-0.1,0.7-0.1,1c0,0.2,0,0.5,0.1,0.7c0,0.2,0.1,0.4,0.2,0.5
		s0.3,0.3,0.5,0.4s0.4,0.1,0.7,0.1c0.5,0,0.9-0.1,1.2-0.3c0.3-0.2,0.6-0.4,0.8-0.7c0.2-0.3,0.4-0.6,0.5-1c0.1-0.4,0.2-0.8,0.3-1.2
		l1.4-6.6c0.1-0.3,0.1-0.6,0.2-0.9c0.1-0.3,0.1-0.6,0.1-0.8c0-0.2,0-0.4-0.1-0.6c0-0.2-0.1-0.3-0.3-0.5c-0.1-0.1-0.3-0.2-0.5-0.3
		C299.5,131.1,299.3,131.1,299,131.1z"/>
	<path class="st0" d="M311.3,127.6l-1,16.6h0l0.6-1.5c0.9-2.5,1.9-5,2.8-7.5s1.8-5,2.8-7.5h4.1c-0.9,2.3-1.8,4.6-2.7,6.9
		c-0.9,2.3-1.8,4.6-2.7,6.9l-2.6,6.7c-0.4,1-0.8,1.8-1.3,2.6c-0.5,0.8-1,1.5-1.6,2.1c-0.6,0.6-1.1,1.1-1.8,1.5
		c-0.6,0.4-1.2,0.8-1.9,1l-1.1-2.8c0.3-0.2,0.7-0.3,1-0.6c0.4-0.2,0.7-0.5,1-0.8c0.3-0.3,0.7-0.7,1-1.2s0.6-1.1,0.9-1.7l0.2-0.4
		h-2.5l0.8-20H311.3z"/>
</g>
<g>
	<g>
		<defs>
			<path id="SVGID_3_" d="M396.9,138.6h28.4c2.8,0,4.1,1.6,4.1,3.6c0,2-1.3,3.6-4.1,3.6h-28.4V138.6z M391.6,122.2v4.9h5.3h28.2
				c2.1,0,3.4,1.3,3.4,3.3c0,2-1.3,3.3-3.4,3.3h-28.2v0h-5.3v16.9h33c6.4,0,10.2-3,10.2-8c0-2.8-1.1-5.3-4.9-6.7
				c2.8-1.6,3.9-3.7,3.9-6.5c0-5.3-4.2-7.3-10.3-7.3H391.6z"/>
		</defs>
		<use xlink:href="#SVGID_3_"  style="overflow:visible;fill:#FFFFFF;"/>
		<clipPath id="SVGID_4_">
			<use xlink:href="#SVGID_3_"  style="overflow:visible;"/>
		</clipPath>
		<rect x="391.6" y="122.2" class="st3" width="43.2" height="28.5"/>
	</g>
</g>
<g>
	<g>
		<defs>
			<path id="SVGID_5_" d="M396.9,138.6h28.4c2.8,0,4.1,1.6,4.1,3.6c0,2-1.3,3.6-4.1,3.6h-28.4V138.6z M391.6,122.2L391.6,122.2
				l0,4.9h5.3h28.2c2.1,0,3.4,1.3,3.4,3.3c0,2-1.3,3.3-3.4,3.3h-28.2v0h-5.3v16.9v0h33c6.4,0,10.2-3,10.2-8c0-2.8-1.1-5.3-4.9-6.7
				c2.8-1.6,3.9-3.7,3.9-6.5c0-5.3-4.2-7.3-10.3-7.3H391.6z"/>
		</defs>
		<use xlink:href="#SVGID_5_"  style="overflow:visible;fill:#FFFFFF;"/>
		<clipPath id="SVGID_6_">
			<use xlink:href="#SVGID_5_"  style="overflow:visible;"/>
		</clipPath>
		<polygon class="st4" points="434.7,120.1 436.2,150.7 391.7,152.9 390.2,122.3 		"/>
	</g>
</g>
<g>
	<g>
		<defs>
			<path id="SVGID_7_" d="M356.6,122.2c-9.8,0-14.9,5.1-14.9,14.3c0,9.1,5.1,14.3,14.9,14.3h29v-16.8h-7.5l2.1,3.6v8.1h-23.6
				c-5.8,0-9.3-2.5-9.3-9.2c0-6.7,3.5-9.2,9.3-9.2h29v-5.1H356.6z"/>
		</defs>
		<use xlink:href="#SVGID_7_"  style="overflow:visible;fill:#FFFFFF;"/>
		<clipPath id="SVGID_8_">
			<use xlink:href="#SVGID_7_"  style="overflow:visible;"/>
		</clipPath>
		<rect x="341.7" y="122.2" class="st5" width="43.9" height="28.5"/>
	</g>
</g>
<g>
	<g>
		<defs>
			<path id="SVGID_9_" d="M356.6,122.2c-9.8,0-14.9,5.1-14.9,14.3c0,9.1,5.1,14.3,14.9,14.3h29h0v-16.8h-7.5l2.1,3.6v8.1h-23.6
				c-5.8,0-9.3-2.5-9.3-9.2c0-6.7,3.5-9.2,9.3-9.2h29v-5.1L356.6,122.2L356.6,122.2z"/>
		</defs>
		<use xlink:href="#SVGID_9_"  style="overflow:visible;fill:#FFFFFF;"/>
		<clipPath id="SVGID_10_">
			<use xlink:href="#SVGID_9_"  style="overflow:visible;"/>
		</clipPath>
		<polygon class="st6" points="385.5,120 387,150.6 341.8,152.9 340.3,122.3 		"/>
	</g>
</g>
<g>
	<g>
		<defs>
			<polygon id="SVGID_11_" points="485.4,122.3 482.2,122.3 481.6,122.3 463.1,146 444.8,122.3 443.9,122.3 440.9,122.3 
				438.7,122.3 440.9,125.3 440.9,150.8 446.2,150.8 446.2,132.5 459.9,150.8 466.2,150.8 480.1,132.4 480.1,150.8 485.4,150.8 
				485.4,125.4 487.7,122.3 			"/>
		</defs>
		<use xlink:href="#SVGID_11_"  style="overflow:visible;fill:#FFFFFF;"/>
		<clipPath id="SVGID_12_">
			<use xlink:href="#SVGID_11_"  style="overflow:visible;"/>
		</clipPath>
		<rect x="438.7" y="122.3" class="st7" width="49" height="28.5"/>
	</g>
</g>
<g>
	<g>
		<defs>
			<polygon id="SVGID_13_" points="485.4,122.3 482.2,122.3 481.6,122.3 463.1,146 444.8,122.3 443.9,122.3 440.9,122.3 
				438.7,122.3 440.9,125.3 440.9,150.8 446.2,150.8 446.2,132.5 459.9,150.8 466.2,150.8 480.1,132.4 480.1,150.8 485.4,150.8 
				485.4,125.4 487.7,122.3 			"/>
		</defs>
		<use xlink:href="#SVGID_13_"  style="overflow:visible;fill:#FFFFFF;"/>
		<clipPath id="SVGID_14_">
			<use xlink:href="#SVGID_13_"  style="overflow:visible;"/>
		</clipPath>
		<polygon class="st8" points="487.6,119.9 489.1,150.8 438.8,153.3 437.3,122.4 		"/>
	</g>
</g>
</svg>
