<?xml version="1.0" encoding="utf-8"?>
<!-- Generator: Adobe Illustrator 26.0.1, SVG Export Plug-In . SVG Version: 6.00 Build 0)  -->
<svg version="1.1" id="Capa_1" xmlns="http://www.w3.org/2000/svg" xmlns:xlink="http://www.w3.org/1999/xlink" x="0px" y="0px"
	 viewBox="0 0 1080 444.72" style="enable-background:new 0 0 1080 444.72;" xml:space="preserve">
<style type="text/css">
	.st0{fill:#0FAEA9;}
	.st1{fill:#007A77;}
	.st2{enable-background:new    ;}
	.st3{fill:url(#SVGID_1_);}
	.st4{clip-path:url(#SVGID_00000047030218721917156840000010778823049033169594_);}
	.st5{fill:url(#SVGID_00000175291459414766315730000014570384775868679353_);}
	.st6{fill:url(#SVGID_00000170999184513159674250000016398200895693937074_);}
	.st7{fill:url(#SVGID_00000152981854719398098000000005339982546502832790_);}
	.st8{clip-path:url(#SVGID_00000000183243018534667110000007876414922739672720_);}
	.st9{fill:url(#SVGID_00000085218740438176721340000004415518572257717692_);}
	.st10{fill:url(#SVGID_00000124853253019071768780000003775519114659543683_);}
	.st11{clip-path:url(#SVGID_00000149381985201405252500000007231010019596772506_);}
	.st12{fill:url(#SVGID_00000088112004610676300410000010852506303903511962_);}
	.st13{clip-path:url(#SVGID_00000147190129244855864980000000758008752522383490_);}
	.st14{fill:url(#SVGID_00000079459162182189844290000015814073867992011956_);}
	.st15{fill:url(#SVGID_00000145020004364418449920000012076500843304942976_);}
	.st16{fill:url(#SVGID_00000161604013705490794610000008817357142447107733_);}
	.st17{clip-path:url(#SVGID_00000060749053904293095310000011231213113712063882_);}
	.st18{fill:url(#SVGID_00000073691113161687224100000010745879658845994641_);}
	.st19{fill:url(#SVGID_00000076591548525166031670000009418989333285449642_);}
	.st20{clip-path:url(#SVGID_00000145759817096858427790000011571239101540838062_);}
</style>
<g>
	<g>
		<g>
			<g>
				<path class="st0" d="M329.91,189.3l-0.93,0l-0.96,9.33l-18.54,83.27l-23.65-0.06l28.91-129.06l23.93,0.06l32.25,91.13l1.53,0
					l0.78-7.97l18.53-83.02l23.19,0.06l-29.04,129.06l-24.52-0.07L329.91,189.3z"/>
				<path class="st0" d="M406.59,282.16l22.88-101.42l24.16,0.07l-22.64,101.42L406.59,282.16z M432.18,163.76
					c0.01-3.83,1.34-6.95,3.99-9.36c2.65-2.4,6.69-3.6,12.14-3.58c4.14,0.01,7.13,0.76,8.97,2.24c1.83,1.48,2.75,3.54,2.74,6.19
					c0,1.81-0.3,3.51-0.87,5.09c-0.58,1.58-1.51,2.95-2.81,4.11c-1.3,1.16-2.99,2.08-5.06,2.75c-2.08,0.67-4.59,1-7.54,0.99
					c-3.99-0.01-6.91-0.76-8.78-2.24C433.1,168.46,432.17,166.4,432.18,163.76z"/>
				<g>
					<path class="st0" d="M453.71,226.12c0.74-3.56,1.69-7.22,2.83-10.98c1.14-3.76,2.55-7.42,4.23-10.98
						c1.68-3.56,3.7-6.92,6.05-10.08c2.35-3.16,5.16-5.91,8.42-8.25c3.26-2.34,7-4.19,11.21-5.57c4.22-1.37,9.04-2.05,14.47-2.04
						c3.39,0.01,6.38,0.44,8.95,1.3c2.57,0.85,4.8,2.04,6.69,3.54c1.89,1.5,3.46,3.28,4.69,5.32c1.24,2.04,2.25,4.28,3.04,6.71
						l10.41-44.52l23.93,0.06l-17.97,78.69c-1.61,8.14-3.58,15.18-5.91,21.11c-2.34,5.93-4.98,10.96-7.93,15.08
						c-2.95,4.12-6.16,7.45-9.62,9.99c-3.46,2.54-7.11,4.51-10.96,5.91c-3.85,1.4-7.86,2.34-12.01,2.81
						c-4.16,0.47-8.39,0.7-12.69,0.69c-5.38-0.01-9.97-0.62-13.78-1.82c-3.82-1.2-6.99-2.87-9.53-5.03
						c-2.54-2.16-4.51-4.71-5.92-7.65c-1.41-2.94-2.35-6.14-2.82-9.6c-0.47-3.45-0.55-7.1-0.22-10.95
						c0.32-3.84,0.91-7.77,1.77-11.79L453.71,226.12z M473.72,238.48c-0.92,4.19-1.38,7.94-1.39,11.28
						c-0.01,3.34,0.51,6.17,1.55,8.49c1.04,2.32,2.65,4.12,4.82,5.4c2.17,1.28,4.99,1.92,8.44,1.93c3.96,0.01,7.4-0.66,10.32-2.01
						c2.92-1.35,5.41-3.18,7.48-5.5c2.07-2.31,3.78-4.98,5.11-8c1.34-3.02,2.44-6.23,3.29-9.62l3.44-15.69
						c0.57-3.45,0.89-6.8,0.96-10.05c0.06-3.25-0.38-6.14-1.33-8.66c-0.96-2.52-2.55-4.55-4.78-6.08c-2.23-1.53-5.33-2.31-9.28-2.32
						c-4.13-0.01-7.64,0.73-10.53,2.22c-2.89,1.49-5.31,3.48-7.27,5.96c-1.96,2.49-3.55,5.38-4.78,8.69
						c-1.23,3.31-2.24,6.74-3.04,10.3L473.72,238.48z"/>
					<path class="st0" d="M634.12,192.12c-2.3-4.28-5.96-7.6-11-9.95c-5.03-2.36-11.79-3.56-20.27-3.58
						c-8.77-0.02-16.19,1.17-22.28,3.6c-6.09,2.42-11.17,5.78-15.21,10.09c-4.07,4.31-7.32,9.45-9.77,15.42
						c-2.45,5.96-4.42,12.45-5.9,19.46l-2.15,9.84c-0.97,4.4-1.59,8.66-1.86,12.76c-0.27,4.1-0.07,7.94,0.61,11.5
						c0.67,3.56,1.83,6.82,3.49,9.76c1.65,2.95,3.92,5.47,6.81,7.57c2.88,2.1,6.45,3.75,10.72,4.92c4.28,1.17,9.29,1.76,15.06,1.77
						c7.06,0.02,13.18-0.88,18.33-2.7c5.16-1.83,9.57-4.33,13.26-7.52c3.68-3.19,6.78-6.97,9.28-11.35
						c2.49-4.35,4.58-9.06,6.29-14.13l-23.04,2.38c-0.66,1.75-1.41,3.34-2.25,4.78c-1.24,2.15-2.78,3.97-4.6,5.47
						c-1.82,1.49-3.97,2.62-6.46,3.37c-2.49,0.75-5.4,1.13-8.74,1.12c-3.62-0.01-6.59-0.64-8.9-1.89c-2.32-1.25-4.07-2.97-5.25-5.15
						c-1.19-2.18-1.85-4.74-1.98-7.69c-0.13-2.93,0.2-6.1,1.01-9.5l33.58-3.3l30.32-2.97l0.04-0.18l1.86-8.31
						c1.6-7.35,2.41-14.06,2.43-20.11C637.57,201.56,636.43,196.39,634.12,192.12z M573.19,224.66l0.69-3.48
						c0.75-3.73,1.85-7.1,3.34-10.13c1.48-3.02,3.31-5.6,5.5-7.75c2.18-2.15,4.71-3.8,7.6-4.95c2.89-1.15,6.14-1.73,9.77-1.72
						c3.61,0.01,6.57,0.47,8.86,1.39c2.29,0.91,4.02,2.33,5.17,4.25c1.15,1.93,1.79,4.37,1.89,7.31c0.11,2.93-0.26,6.48-1.13,10.6
						l-0.08,0.68L573.19,224.66z"/>
				</g>
			</g>
			<g>
				<path class="st1" d="M729.98,237.82c-0.74,3.56-1.69,7.22-2.83,10.98c-1.14,3.76-2.55,7.42-4.23,10.98
					c-1.68,3.56-3.7,6.92-6.05,10.08c-2.35,3.16-5.16,5.91-8.42,8.25c-3.26,2.34-7,4.19-11.21,5.57c-4.22,1.37-9.04,2.05-14.47,2.04
					c-3.39-0.01-6.38-0.44-8.95-1.3c-2.57-0.85-4.8-2.04-6.69-3.54c-1.89-1.5-3.46-3.28-4.69-5.32c-1.24-2.04-2.25-4.28-3.04-6.71
					l-10.35,45.62l-23.93-0.06l17.91-79.8c1.61-8.14,3.58-15.18,5.91-21.11c2.34-5.93,4.98-10.96,7.93-15.08
					c2.95-4.12,6.16-7.45,9.61-9.99c3.46-2.54,7.11-4.51,10.96-5.91c3.85-1.4,7.85-2.34,12.01-2.81c4.16-0.47,8.39-0.7,12.69-0.69
					c5.38,0.01,9.97,0.62,13.78,1.82c3.82,1.2,6.99,2.87,9.53,5.03s4.51,4.71,5.92,7.65c1.41,2.94,2.35,6.14,2.82,9.6
					c0.47,3.45,0.55,7.1,0.22,10.95c-0.32,3.84-0.91,7.77-1.77,11.79L729.98,237.82z M709.97,225.46c0.92-4.19,1.38-7.94,1.39-11.28
					c0.01-3.34-0.51-6.17-1.55-8.49c-1.04-2.32-2.65-4.12-4.82-5.4c-2.17-1.28-4.99-1.92-8.44-1.93c-3.96-0.01-7.4,0.66-10.31,2.01
					c-2.92,1.35-5.41,3.18-7.48,5.5c-2.07,2.31-3.77,4.98-5.11,8c-1.34,3.02-2.43,6.23-3.29,9.62l-3.44,15.69
					c-0.57,3.45-0.89,6.8-0.96,10.05c-0.06,3.25,0.38,6.14,1.33,8.66c0.96,2.52,2.55,4.55,4.78,6.08c2.23,1.53,5.33,2.31,9.28,2.32
					c4.13,0.01,7.64-0.73,10.53-2.22c2.89-1.49,5.31-3.48,7.27-5.96c1.96-2.49,3.55-5.38,4.78-8.69c1.23-3.31,2.24-6.74,3.04-10.3
					L709.97,225.46z"/>
			</g>
			<path class="st1" d="M739.83,229.01c1.6-7.52,3.74-14.3,6.42-20.35c2.67-6.04,6.14-11.21,10.39-15.5
				c4.25-4.29,9.42-7.58,15.51-9.89c6.09-2.3,13.37-3.44,21.86-3.42c8.49,0.02,15.33,1.2,20.52,3.53c5.2,2.33,9.03,5.65,11.51,9.96
				c2.48,4.31,3.79,9.49,3.95,15.54c0.15,6.05-0.57,12.84-2.18,20.36l-1.72,7.89c-1.66,7.58-3.8,14.42-6.42,20.52
				c-2.62,6.1-6.03,11.3-10.22,15.59c-4.2,4.29-9.33,7.58-15.38,9.89c-6.06,2.3-13.33,3.44-21.82,3.42
				c-8.49-0.02-15.34-1.2-20.57-3.53c-5.23-2.33-9.11-5.65-11.64-9.96c-2.53-4.31-3.89-9.51-4.07-15.62
				c-0.18-6.11,0.56-12.98,2.22-20.61L739.83,229.01z M761.27,240.69c-0.8,3.51-1.22,6.84-1.26,10.01c-0.04,3.17,0.45,5.97,1.46,8.4
				c1.01,2.44,2.66,4.36,4.95,5.78c2.29,1.42,5.38,2.14,9.29,2.15c3.85,0.01,7.21-0.66,10.1-2.01c2.89-1.35,5.35-3.21,7.4-5.58
				s3.72-5.15,5.03-8.34c1.31-3.19,2.36-6.63,3.17-10.3l3.27-15.26c0.69-3.17,1.11-6.32,1.26-9.46c0.15-3.14-0.24-5.95-1.17-8.45
				c-0.93-2.49-2.53-4.5-4.82-6.04c-2.29-1.53-5.5-2.31-9.62-2.32c-4.13-0.01-7.65,0.73-10.57,2.22c-2.92,1.49-5.38,3.46-7.4,5.92
				c-2.02,2.46-3.64,5.27-4.86,8.43c-1.23,3.16-2.21,6.39-2.95,9.66L761.27,240.69z"/>
			<path class="st1" d="M954.62,182.7l5.42-23.94l-24.12-0.25l-5.42,24.12l-12.26-0.03l-4.4,19.12l12.63,0.03l-11.79,51.33
				c-0.65,2.99-1.15,5.9-1.49,8.72c-0.34,2.83-0.4,5.48-0.17,7.97c0.23,2.49,0.8,4.78,1.71,6.85c0.91,2.08,2.31,3.87,4.19,5.39
				c1.88,1.52,4.3,2.7,7.26,3.55c2.96,0.85,6.56,1.3,10.8,1.34c5.26,0.05,9.78-0.45,13.55-1.52c3.77-1.06,6.74-2.12,8.9-3.18
				l2.3-17.12c-1.82,0.6-3.86,1.16-6.13,1.68c-2.27,0.51-5.24,0.75-8.92,0.71c-2.32-0.02-4.1-0.54-5.33-1.54
				c-1.24-1-2.08-2.34-2.55-4.02c-0.46-1.67-0.59-3.62-0.36-5.86c0.22-2.23,0.85-4.59,1.39-7.07l6.09-27.47l4.39-19.72l26.98,0.07
				l4.3-19.12L954.62,182.7z"/>
			<path class="st1" d="M889.45,183.42c-0.01,0-0.02,0-0.04,0.01c-7.65,1.6-14.57,5.42-19.98,10.84l2.51-11.62l-22.68-0.06
				l-22.68,101.48l22.6,0.06l2.88-13.56l4.88-21.32l4.24-16.9c4.33-18.33,20.87-31.16,39.7-30.77l6.54,0.13l4.41-19.09
				C911.27,182.42,896.99,181.68,889.45,183.42z"/>
		</g>
	</g>
	<g>
		<g class="st2">
			<g class="st2">
				<g>
					
						<linearGradient id="SVGID_1_" gradientUnits="userSpaceOnUse" x1="132.4714" y1="200.1238" x2="268.2237" y2="200.1238" gradientTransform="matrix(1 2.691543e-03 -2.691543e-03 1 -5.4968 3.7598)">
						<stop  offset="0" style="stop-color:#B58F5F"/>
						<stop  offset="0.2784" style="stop-color:#8D6A43"/>
						<stop  offset="0.4375" style="stop-color:#C79964"/>
						<stop  offset="0.5624" style="stop-color:#EEB97B"/>
						<stop  offset="0.6275" style="stop-color:#FDC684"/>
						<stop  offset="0.7037" style="stop-color:#ECB77A"/>
						<stop  offset="0.8549" style="stop-color:#BE925F"/>
						<stop  offset="1" style="stop-color:#8D6A43"/>
					</linearGradient>
					<path class="st3" d="M225.75,150.59c1.18,1.85-2.25,1.49-2.3,1.46c-0.07-0.04-4.17-5.05-3.19-5.37c0.11-0.04,0.27,0,0.48,0.11
						l1.13,0.64C224.71,149.11,225.6,150.36,225.75,150.59 M216.17,145.93c0.29-0.83-1.04-2-3.46-3.05
						c-0.88-0.37-1.47-0.35-1.68-0.33c-2.22,0.23,0.98,3.48,2.4,4.71C213.52,147.24,215.83,146.89,216.17,145.93 M204.39,143.57
						c0.79-0.59,2.9-2.15-2.25-4.07c-1.16-0.11-2.31-0.04-3.07,0.21c-3.84,1.24,2.95,5.07,3.02,5.11
						C202.59,144.62,203.62,144.14,204.39,143.57 M188.91,145.1c5.45-4.64,1.46-5.86-0.68-6.52c-2.48-0.7-2.93-0.83-5.11,0.5
						c-4.19,2.55,1.84,5.14,5.62,6.16C188.79,145.19,188.86,145.14,188.91,145.1 M174.01,149.74c0.07-0.01,0.17-0.04,0.24-0.05
						c2.84-5.87-0.8-6.98-2-7.35c-3.16-0.72-7.22-0.79-7.9-0.14C160.57,145.81,162.67,149.56,174.01,149.74 M160.97,159.36
						c0.03-0.02,0.06-0.07,0.09-0.1c-0.36-5.54-3.57-6.78-4.62-7.18c-4.75-1.43-12.49,1.6-12.62,1.84
						C142.84,155.66,143.87,164.17,160.97,159.36 M152.21,174.01c0.03-0.02,0.06-0.04,0.08-0.06c-2.07-3.71-4.86-5.02-6.21-5.65
						c-6.75-2.32-14.35,3.97-16.51,5.95C133.07,181.31,141.74,181.21,152.21,174.01 M150.01,192.23c0.01-0.04-0.01-0.1-0.01-0.15
						c-1.53-1.23-2.89-1.89-3.8-2.33c-13.27-5.54-19.76,10.07-19.76,10.26C137.24,207.66,146.52,197.12,150.01,192.23
						 M154.63,211.23c0.16-0.45,0.25-0.73,0.28-0.84c-0.31-0.12-0.61-0.22-0.8-0.28c-1.89-0.61-8.45-2.3-13.26,1.3
						c-5.67,4.24-6.73,13.27-6.59,13.54C139.52,226.37,149.19,226.48,154.63,211.23 M162.92,235.91c1.56-3.44,2.2-7.4,2.27-9.75
						c-0.12-0.01-0.28-0.02-0.39-0.02c-3.19-0.13-9.12,0.36-13.05,5.02c-3.91,4.64-3.62,13.97-3.26,14.35
						C152.33,245.32,159.32,243.82,162.92,235.91 M176.65,252.21c2.91-4.38,3.14-10.24,2.38-14.27c-4.08,0.84-17.12,4.9-13.68,21.86
						c0.03,0.02,0.07,0.04,0.1,0.06C166.73,259.48,173.27,257.3,176.65,252.21 M193.28,261.85c5.85-6.68,2.97-14.57,1.95-16.83
						c-8,3.86-15.01,11.94-10.72,23.06C184.81,268.16,190.01,265.6,193.28,261.85 M211.35,266.85c8.7-8.92,3.84-16.79,1.35-19.77
						c-3.44,2.92-14.05,13.25-6.22,23.71C206.83,270.79,209.59,268.65,211.35,266.85 M228.93,266.75
						c3.36-3.7,10.39-13.15,3.17-21.04c-0.5-0.5-1.25-1.26-2.35-1.97C228.88,244.21,218.98,260.29,228.93,266.75 M247.79,254.3
						c0.04,0,0.08,0,0.12,0c0.81-1.82,4.66-11.2,1.17-16.65c-0.77-0.94-2.36-2.91-5.57-3.4
						C239.08,251.98,245.03,254.18,247.79,254.3 M259.83,233.51c0.03-0.03,0.89-7.31-1.38-12.08c-1.83-3.28-5.06-2.36-6.36-1.82
						c0.11,1.62,0.77,9.86,2.63,13.2C256.13,235.35,258.36,235.08,259.83,233.51 M262.18,208.93c0-0.02-0.52-3.24-2.42-7.01
						c-0.68-1.18-2.5-4.3-5.5,0.77c0.44,1.15,2.7,7.01,4.46,9.13C260.61,214.06,261.91,212,262.18,208.93 M255.88,185.2
						c0,0-0.27-0.59-1.2-2.01c-0.47-0.69-1.91-2.79-2.77-2.68c-1.19,0.16-1.26,5.22-1.24,5.27c0.01,0.04,3.41,4.78,5.05,5.62
						C257.49,192.3,257.18,188.88,255.88,185.2 M244.97,167.38c-0.27-0.38-0.61-0.84-0.91-1.24c-0.44-0.46-1.91-1.95-2.43-1.7
						c-0.8,0.37,1.31,6.55,1.35,6.6c0.06,0.1,2.77,2.24,3.98,2.54C248.95,174.08,246.99,170.25,244.97,167.38 M235.37,157.64
						c-0.58-0.7-1.9-2.15-4.15-3.93c-0.21-0.15-0.86-0.63-1.07-0.46c-0.54,0.42,3.09,6.41,3.14,6.47c0,0,1.37,0.6,2.32,0.72
						C237.52,160.67,236.54,159.04,235.37,157.64"/>
					<path class="st1" d="M222.4,156.24c-0.63,2.71-5.13,3.3-5.64,3.36c-4.18-6.35-3.35-10.61,2.06-10.6
						C220.41,150.57,222.95,153.89,222.4,156.24"/>
					<path class="st1" d="M212.46,153.51c-0.81,1.57-2.7,2.86-4.08,3.5c-5.99-5.58-6.05-10.44-0.13-11.81
						C209.7,146.25,214.29,149.95,212.46,153.51"/>
					<path class="st1" d="M201.16,154.8c-0.46,0.69-1.11,1.48-1.66,1.99c-0.64-0.34-6.25-3.47-7.33-7.13
						c-0.89-3.02,2.71-5.52,3.52-5.81c0.04-0.01,0.11,0,0.15,0.02C200.31,145.8,204.86,149.26,201.16,154.8"/>
					<path class="st1" d="M190.5,159.16c-2.88-0.71-8.31-2.67-10.37-5.56c-2.71-3.79,0.87-7.64,0.91-7.66c0.01,0,1.8,0.02,5.39,1.39
						c5.47,2.38,6.88,6.37,4.19,11.86C190.59,159.18,190.54,159.17,190.5,159.16"/>
					<path class="st1" d="M182.6,164.42c-17.26,0.72-17.61-9.86-16.48-11.59c0.02-0.03,5.56-1.06,10.93,0.95
						C183.54,156.58,182.69,164.38,182.6,164.42"/>
					<path class="st1" d="M176.77,172.4c-11.47,4.05-20.4,1.22-22.76-7.21c0.21-0.28,9.18-4.34,15.62-1.57
						c3.41,1.72,5.84,4.63,7.21,8.67C176.81,172.32,176.8,172.37,176.77,172.4"/>
					<path class="st1" d="M174.13,182.52c-9.96,7.85-20.1,7.77-26.46-0.2c3.03-2.97,11.03-9.45,19.79-5.46
						c1.39,0.77,4.3,2.36,6.76,5.6C174.18,182.48,174.15,182.5,174.13,182.52"/>
					<path class="st1" d="M175.16,193.69c-2.54,3.95-11.95,16.2-26.36,8c-0.03-0.24,7.49-18.29,24.54-9.25
						c0.49,0.27,1.15,0.65,1.87,1.16C175.2,193.62,175.17,193.66,175.16,193.69"/>
					<path class="st1" d="M178.43,208.23c-5.44,12.02-14.85,12.81-21.79,11.36c-0.15-0.24,2.41-20.22,21.72-15.78
						c0.14,0.03,0.88,0.21,1.53,0.42C179.44,205.88,178.85,207.32,178.43,208.23"/>
					<path class="st1" d="M185.13,224.44c-3.83,7.51-11.7,9.26-16.05,9.63c-0.39-0.36-0.7-9.79,3.82-15.2
						c4.13-4.95,11.01-5.76,13.78-5.87c0.49-0.02,0.81-0.02,0.92-0.01C187.68,216.96,186.76,221.24,185.13,224.44"/>
					<path class="st1" d="M195.8,235.83c-3.35,5.03-9.55,7.51-11.37,8.15c-0.04-0.02-0.09-0.04-0.12-0.06
						c-5.33-17.95,8.67-23.56,13.08-24.85C198.86,223.82,199.21,230.71,195.8,235.83"/>
					<path class="st1" d="M209.14,241.9c-2.67,3.97-7.14,7.1-7.51,7.04c-7.12-11.81-1.23-21.69,6.66-26.99
						C209.93,224.48,214.84,233.41,209.14,241.9"/>
					<path class="st1" d="M222.39,245.37c-0.52,0.8-1.38,2.01-2.52,3.27c-0.97,0.01-13.19-11.08-0.72-27.36
						C222.81,224.43,230.42,233.09,222.39,245.37"/>
					<path class="st1" d="M236.17,242.47c-4.1-1.75-13.02-7.72-7.44-25.35c0.04-0.02,0.1-0.04,0.15-0.06
						c2.41,1.07,3.88,2.34,4.96,3.26c7.14,6.93,5.29,15.84,2.49,22.1C236.28,242.44,236.22,242.48,236.17,242.47"/>
					<path class="st1" d="M248.48,230.07c-5.78,0.63-12.57-4.33-12.68-20.36c2.31,0.11,5.72,0.88,8.87,3.9
						c4.91,5.24,4.07,14.62,3.85,16.45C248.52,230.07,248.5,230.07,248.48,230.07"/>
					<path class="st1" d="M254.52,213.48c-4.26,3.75-10.58,1.15-15.08-13.12c1.44-0.57,6.44-2.09,10.25,2.04
						c3.09,3.7,4.38,8.51,4.87,11.04C254.54,213.45,254.53,213.47,254.52,213.48"/>
					<path class="st1" d="M253.99,195.62c-1.27,4.88-6.17,7.43-14.49-5.53c3.37-3.98,6.94-4.06,10.61-0.23
						C253.1,193.3,254,195.61,253.99,195.62"/>
					<path class="st1" d="M248.13,178.9c0.19,1.13,1.58,10.87-7.96,4.16c-1.23-0.86-3.69-2.86-3.67-3.06c0-0.05,1.24-5.3,4.33-5.63
						c0.78-0.08,3.01,0.13,6.71,3.85C248.12,178.81,248.12,178.81,248.13,178.9"/>
					<path class="st1" d="M240.06,168.11c2.35,8.82-6.97,4.19-8.86,3.17c-0.27-2.8-0.53-11.52,7.73-6.16
						C239.61,166.52,239.97,167.76,240.06,168.11"/>
					<path class="st1" d="M231.62,161.62c0.16,3.95-5.45,3.11-7.17,2.75c-2.14-5.78-1.62-10.82,4.34-9.06
						C230.04,157,231.53,159.66,231.62,161.62"/>
					<path class="st1" d="M217.92,145.3c-0.22-0.1-0.47-0.13-0.68-0.26c-0.29-0.17-0.82-0.49-1.35-0.74l0.26,0.12l1.86,0.92
						C217.97,145.33,217.94,145.32,217.92,145.3"/>
					<path class="st1" d="M209.85,141.73c-0.49-0.17-1.1-0.27-2.07-0.39c-0.04-0.01-0.1,0-0.14-0.02c-0.01,0-1.35-0.73-1.65-0.95
						c0,0,0,0,0.01,0l1.12,0.38c0.83,0.3,1.94,0.69,2.76,1C209.88,141.74,209.86,141.73,209.85,141.73"/>
					<path class="st1" d="M196.08,138.71c-0.49,0.06-0.97,0.12-1.46,0.19c-0.14,0.02-0.28,0.1-0.43,0.06
						c-0.03-0.01-2.63-0.87-2.75-1.48c0.27-0.38,1.74-0.22,2.92-0.02l2.18,0.41l2.7,0.6C198.18,138.54,197.13,138.58,196.08,138.71"
						/>
					<path class="st1" d="M175.66,140.19c-0.73-0.07-7.09-0.71-5.71-2.12c0.02-0.02,2.64-2.14,8.73-1.5
						c1.7,0.24,1.93,0.58,0.92,1.35C179.31,138.14,175.95,140.22,175.66,140.19"/>
					<path class="st1" d="M155.28,147.99c-3.08,0.57-12.91,2.09-10.09-2.05c0.69-1.01,2.03-2.01,2.2-2.07
						c0.78-0.26,4.81-1.56,7.87-1.32c3.67,0.5,0.16,5.33,0.11,5.38C155.36,147.95,155.32,147.97,155.28,147.99"/>
					<path class="st1" d="M138.33,163.71c-16.58,8.96-15.96,0.67-15.37-0.55c0.14-0.3,7.55-5.86,11.84-5.1
						C138.5,159.08,138.53,163.54,138.33,163.71"/>
					<path class="st1" d="M129.9,186.38c-11.98,13.87-17.63,7.94-19.08,5.79c1.12-2.01,7.06-11.91,14.12-9.85
						c1.03,0.43,3.16,1.33,5.03,3.99C129.95,186.32,129.92,186.35,129.9,186.38"/>
					<path class="st1" d="M132.38,211.01c-2.5,6.55-8.08,16.82-17.39,11.98c0-0.2,1.84-18.89,15.88-12.88
						c0.37,0.17,0.93,0.43,1.52,0.79C132.39,210.93,132.39,210.98,132.38,211.01"/>
					<path class="st1" d="M142.68,236.94c-2,9.11-6.32,13.38-12.83,12.71c-0.64-0.89-2.62-19.3,12.74-16.75
						c0.17,0.03,0.44,0.08,0.72,0.14C143.21,234.1,142.97,235.63,142.68,236.94"/>
					<path class="st1" d="M159.83,258.82c-2.69,5.86-8.42,7.75-10.11,8.19c-0.05-0.04-2.06-7.77,1.56-13.7
						c1.7-2.79,6-5.14,10.21-5.6C161.64,249.15,161.93,254.23,159.83,258.82"/>
					<path class="st1" d="M176.55,269.94c-3.23,4.08-8.77,6.01-10.39,6.51c-0.62-1.44-1.87-15.14,13.39-18.75
						C180.22,262.15,179.1,266.73,176.55,269.94"/>
					<path class="st1" d="M192.11,280.58c-3.32,2.5-7.76,4.23-7.99,4.2c-1.85-6.54,2.99-13.73,12.32-18.32
						C197.53,268.9,199.28,275.17,192.11,280.58"/>
					<path class="st1" d="M212.32,282.86c-0.4,0.28-1.83,1.25-3.38,2.09c-3.12-4.55,0.44-11.63,9.53-18.95
						C220.03,267.86,224.22,274.61,212.32,282.86"/>
					<path class="st1" d="M234.15,276.86c-2.72-1.3-4.12-5.6,4.63-18.73c1.41,0.77,1.99,1.71,2.41,2.39
						c2.85,5.95-4.63,14.02-6.99,16.36C234.18,276.87,234.16,276.86,234.15,276.86"/>
					<path class="st1" d="M254.06,257.92c-0.94,0.63-3.83,1.86-1.72-8.52c0.54-2.65,1.41-6.25,1.69-7.31
						c1.78-0.31,2.94,0.41,3.46,2.16C258.44,248.72,254.11,257.88,254.06,257.92"/>
					<path class="st1" d="M263.66,229.15c-0.22,1.98-0.65,3.01-1.07,2.55c-0.83-0.9-1.5-11.65-1.49-11.75
						c0-0.12,1.18-1.83,1.86-1.73c0.14,0.02,0.53,0.08,0.79,1.51C264.25,223.23,263.8,227.83,263.66,229.15"/>
					<path class="st1" d="M262.23,202.8c0.17,0.84,0.14,0.96,0.11,1.12c-0.02,0-0.05,0-0.07,0c-0.47-0.5-3.05-7.28-3.06-7.34
						c-0.01-0.03-0.25-3.97-0.09-4.31c0.08,0.03,0.14,0.06,0.46,0.95l0.72,2.21c0.59,2.17,1.42,5.06,1.91,7.26
						C262.21,202.73,262.22,202.77,262.23,202.8"/>
					<path class="st1" d="M239.97,161.48c-0.12-0.01-1.56-1.13-1.7-1.29c-1.49-1.73-2.37-2.57-3.15-3.29
						c1.47,1.35,3.42,3.16,4.84,4.56C239.96,161.46,239.96,161.47,239.97,161.48"/>
					<path class="st1" d="M164.2,140.24c-4.48,0.4-6.9,0.34-7.18-0.17c0.4-1.13,6.42-2.6,10.36-2.78c0.74,0,0.79,0.09,0.88,0.21
						C168.09,138.02,164.72,140.19,164.2,140.24"/>
					<path class="st1" d="M141.52,152.11c-5.95,2.44-12.77,4.7-11.45,1.6c1.42-3.35,9.46-5.89,10.73-5.87
						C143.62,148.14,141.58,152.07,141.52,152.11"/>
					<path class="st1" d="M125.56,173.19c-15.47,14.34-15.61,5.23-15.58,5.11c0.03-0.1,6.74-9.68,11.83-8.99
						c0.88,0.27,2.7,0.84,3.82,3.81C125.61,173.14,125.58,173.17,125.56,173.19"/>
					<path class="st1" d="M121.67,200.23c-6.62,14-12.35,13.88-16,11.31c-0.02-0.18,2.84-16.25,13.01-13.08
						c0.7,0.28,1.75,0.69,2.97,1.63C121.66,200.13,121.68,200.19,121.67,200.23"/>
					<path class="st1" d="M129.76,227.25c-1.56,11.31-5.57,16.45-11.93,15.26c-0.59-0.93-2.56-19.68,11.38-16.28
						c0.23,0.06,0.44,0.12,0.65,0.18C129.84,226.7,129.8,226.98,129.76,227.25"/>
					<path class="st1" d="M144.3,256.83c-1.63,7.28-6.23,8.95-8.14,9.33c-0.79-0.8-5.32-18.09,8.68-18.16
						C145.04,250.07,145.02,253.62,144.3,256.83"/>
					<path class="st1" d="M161.34,275c-2.48,3.71-6.87,5.58-7.73,5.92c-0.71-1.58-2.66-14.12,9.87-17.23
						C164.14,267.78,163.34,272.01,161.34,275"/>
					<path class="st1" d="M177.45,283.6c-1.97,1.49-4.89,2.99-7.82,4.01c-0.47-0.71-1.29-10.64,12.08-16.19
						C182.4,273.59,183.36,279.11,177.45,283.6"/>
					<path class="st1" d="M197.58,288.14c-2.39,1.32-4.69,2.19-5.33,2.42c-1.95-4.42,2.81-10.78,12.12-16.21
						C205.8,276.58,208.02,282.39,197.58,288.14"/>
					<path class="st1" d="M219.33,287.15c-2.2-1.7-2.51-5.99,8.53-16.8c0.69,0.53,1.05,1.07,1.32,1.47
						C232.81,278.23,221.61,285.72,219.33,287.15"/>
					<path class="st1" d="M244.02,273.13c-4.43,0.96,1.23-10.21,3.95-15.58c1.99,0.12,2.38,1.56,2.56,2.26
						C251.05,264.33,244.1,273.11,244.02,273.13"/>
					<path class="st1" d="M259.53,247.76c-0.18,0.45-0.26,0.47-0.34,0.5c-0.54-0.61,1.42-12.57,1.44-12.69
						c0-0.01,1.11-1.31,1.6-1.19c0.11,0.03,0.41,0.09,0.33,1.35c-0.06,0.66-0.16,1.67-0.69,3.94c-0.66,2.37-1.49,5.56-2.27,7.89
						C259.58,247.62,259.55,247.7,259.53,247.76"/>
					<path class="st1" d="M264.05,217.36c-0.02-0.35-0.07-0.87-0.07-0.87c-0.17-1.56-0.41-3.47-1.04-6.9
						c-0.04-0.21-0.04-0.21-0.03-0.64c0.02-1.52-0.02-2.61-0.12-3.33l0.56,3.53c0.24,2.48,0.59,5.78,0.71,8.27
						C264.05,217.41,264.05,217.38,264.05,217.36"/>
					<g>
						<defs>
							<path id="SVGID_00000151537958363886369210000005495562451108322723_" d="M224.61,212.46c-1.41-0.52-5.03-2.09-8.31-5.44
								c0.66-2.12,2.67-8.55-4-17.36c0.08-0.39,0.16-0.75,0.31-1.29c0.26,0.04,1.06,0.38,1.68,0.66
								c3.72,10.71,9.1,12.84,11.12,13.65c0.2,1.92,0.57,5.5-0.67,9.83C224.7,212.49,224.65,212.47,224.61,212.46 M214.66,208.27
								c4.12-9.12-1.93-16.93-4.72-19.87c-0.36,0.3-0.77,0.7-0.96,0.89c1.9,10.59-3.15,15.12-4.81,16.61
								c2.46,6.88,5.43,9.35,5.46,9.36C211.7,213.3,213.54,210.75,214.66,208.27 M206.51,201.34c2.5-4.45,2.1-10.29,0.89-14.27
								c-0.54,0.07-1.01,0.16-1.36,0.23c-3.58,9.56-10.26,10.89-12.45,11.33c-1.04,7.33,0.58,10.9,0.59,10.93
								C196.27,209.06,203.34,206.99,206.51,201.34 M204.56,188.1c0.34-0.77,0.81-1.98,1.14-3.37c-0.52-0.21-1-0.36-1.35-0.48
								c-8.14,5.89-14.55,3.83-16.66,3.15c-2.31,2.72-3.92,5.89-4.79,9.42C183.01,196.95,198.2,202.51,204.56,188.1 M205.24,182.11
								c0.02-0.02,0.03-0.06,0.04-0.08c-0.41-0.45-0.66-0.7-0.99-1.01c-10.35,0.7-14.72-3.74-16.16-5.2
								c-6.49,2.31-8.58,5.31-8.58,5.33C192.29,193.15,203.19,184.06,205.24,182.11 M206.19,179.78c0.02-0.03,0.04-0.07,0.06-0.11
								c-0.14-0.5-0.26-0.85-0.37-1.19c-9.61-4.27-11.02-9.46-11.48-11.17c-6.52-1.01-9.73,0.3-9.75,0.32
								C187.55,178.24,197.56,181.37,206.19,179.78 M208.22,178.43c0.04,0,0.1-0.03,0.14-0.04c0.13-0.46,0.19-0.79,0.26-1.11
								c-6.5-7.72-5.14-11.99-4.62-13.6c-0.82-0.61-1.38-0.97-2.31-1.49c-4.14-2.12-5.93-2.24-5.95-2.24
								C192.96,167.67,197.86,174.92,208.22,178.43 M211.6,177.85c0.06-0.05,0.13-0.12,0.18-0.18c-2.15-8.86,1.21-11.51,2.47-12.5
								c-0.76-1.25-2.33-3.86-5.45-6.32c-8.18,5.72-3.04,15.05,2.13,19.58C211.06,178.34,211.28,178.16,211.6,177.85 M222.86,171.27
								c0.13-0.01,0.3-0.02,0.42-0.03c-0.14-1.33-0.42-4.1-2.31-7.51c-8.05,0.4-11.04,6.68-7.61,16c0.48-0.04,0.91-0.12,1.22-0.17
								C216.22,174.31,218.93,171.59,222.86,171.27 M230.74,177.32c0.19-1.11,0.24-2.34,0.15-3.47c-8.19-4.13-14.41-0.93-15.84,8.14
								c0.48,0.21,0.93,0.38,1.26,0.5c6.51-4.95,11.33-2.5,13.15-1.58C229.87,180.19,230.43,179.2,230.74,177.32 M234.58,202.18
								c0.02-0.01,0.05-0.01,0.07-0.02c-1.06-4.33-2.94-7.28-3.95-8.86c-1.6,0.34-6.48,1.36-14.43-6.56
								c-0.47,0.04-0.91,0.08-1.6,0.21C214.58,189.25,220.74,205.83,234.58,202.18 M236.39,187.85c0.01-0.02,0.02-0.04,0.03-0.06
								c-1.64-2.04-3.35-3.45-4.27-4.21c-2.21-1.66-8.96-6.73-16.62,1.03C224.7,195.29,232.77,193.78,236.39,187.85 M212.31,184.51
								c0.3-0.55,0.49-1.86-0.91-2.86c-0.06-0.03-0.13-0.08-0.19-0.11c-1.63-0.87-3.25,0.39-2.7,2.11
								C209.08,185.45,211.5,186,212.31,184.51"/>
						</defs>
						<clipPath id="SVGID_00000088096322418242264570000014903785369168432570_">
							<use xlink:href="#SVGID_00000151537958363886369210000005495562451108322723_"  style="overflow:visible;"/>
						</clipPath>
						<g style="clip-path:url(#SVGID_00000088096322418242264570000014903785369168432570_);">
							
								<linearGradient id="SVGID_00000145774679800364200100000007881676630178431422_" gradientUnits="userSpaceOnUse" x1="174.6731" y1="210.8092" x2="241.8098" y2="155.4905" gradientTransform="matrix(1 2.691543e-03 -2.691543e-03 1 -5.4968 3.7598)">
								<stop  offset="0" style="stop-color:#B58F5F"/>
								<stop  offset="0.2784" style="stop-color:#8D6A43"/>
								<stop  offset="0.4375" style="stop-color:#C79964"/>
								<stop  offset="0.5624" style="stop-color:#EEB97B"/>
								<stop  offset="0.6275" style="stop-color:#FDC684"/>
								<stop  offset="0.7037" style="stop-color:#ECB77A"/>
								<stop  offset="0.8549" style="stop-color:#BE925F"/>
								<stop  offset="1" style="stop-color:#8D6A43"/>
							</linearGradient>
							<polygon style="fill:url(#SVGID_00000145774679800364200100000007881676630178431422_);" points="172.01,225.66 
								244.98,225.85 245.21,138.86 172.24,138.67 							"/>
							<g>
								
									<linearGradient id="SVGID_00000078732304921800245430000007563757967213914780_" gradientUnits="userSpaceOnUse" x1="178.0993" y1="221.325" x2="178.2857" y2="221.325" gradientTransform="matrix(1 2.691543e-03 -2.691543e-03 1 -5.4968 3.7598)">
									<stop  offset="0" style="stop-color:#FFE38C"/>
									<stop  offset="0.3011" style="stop-color:#9C4C0E"/>
									<stop  offset="0.3485" style="stop-color:#B66C23"/>
									<stop  offset="0.4437" style="stop-color:#E7A74B"/>
									<stop  offset="0.4892" style="stop-color:#FABE5A"/>
									<stop  offset="0.5954" style="stop-color:#FDDDA4"/>
									<stop  offset="0.6559" style="stop-color:#FFECC9"/>
									<stop  offset="0.6862" style="stop-color:#EBD0AB"/>
									<stop  offset="0.7446" style="stop-color:#C89E78"/>
									<stop  offset="0.8021" style="stop-color:#AB754D"/>
									<stop  offset="0.8575" style="stop-color:#95552B"/>
									<stop  offset="0.9101" style="stop-color:#853F13"/>
									<stop  offset="0.9589" style="stop-color:#7B3105"/>
									<stop  offset="1" style="stop-color:#782C00"/>
								</linearGradient>
								<polygon style="fill:url(#SVGID_00000078732304921800245430000007563757967213914780_);" points="172.01,225.66 
									172.19,225.66 172.01,225.47 								"/>
							</g>
						</g>
					</g>
				</g>
			</g>
		</g>
	</g>
</g>
</svg>
