<?xml version="1.0" encoding="utf-8"?>
<!-- Generator: Adobe Illustrator 24.2.1, SVG Export Plug-In . SVG Version: 6.00 Build 0)  -->
<svg version="1.1" id="Capa_1" xmlns="http://www.w3.org/2000/svg" xmlns:xlink="http://www.w3.org/1999/xlink" x="0px" y="0px"
	 viewBox="0 0 1080 444.7" style="enable-background:new 0 0 1080 444.7;" xml:space="preserve">
<style type="text/css">
	.st0{fill:#FFFFFF;}
	.st1{enable-background:new    ;}
	.st2{clip-path:url(#SVGID_2_);}
</style>
<g>
	<g>
		<g>
			<g>
				<path class="st0" d="M329.9,189.3H329l-1,9.3l-18.5,83.3l-23.6-0.1l28.9-129.1l23.9,0.1l32.3,91.1h1.5l0.8-8l18.5-83L415,153
					l-29,129.1l-24.5-0.1L329.9,189.3z"/>
				<path class="st0" d="M406.6,282.2l22.9-101.4l24.2,0.1L431,282.2L406.6,282.2z M432.2,163.8c0-3.8,1.3-6.9,4-9.4
					c2.6-2.4,6.7-3.6,12.1-3.6c4.1,0,7.1,0.8,9,2.2c1.8,1.5,2.8,3.5,2.7,6.2c0,1.8-0.3,3.5-0.9,5.1c-0.6,1.6-1.5,2.9-2.8,4.1
					s-3,2.1-5.1,2.8c-2.1,0.7-4.6,1-7.5,1c-4,0-6.9-0.8-8.8-2.2C433.1,168.5,432.2,166.4,432.2,163.8z"/>
				<g>
					<path class="st0" d="M453.7,226.1c0.7-3.6,1.7-7.2,2.8-11c1.1-3.8,2.5-7.4,4.2-11c1.7-3.6,3.7-6.9,6-10.1
						c2.4-3.2,5.2-5.9,8.4-8.3s7-4.2,11.2-5.6c4.2-1.4,9-2.1,14.5-2c3.4,0,6.4,0.4,9,1.3c2.6,0.9,4.8,2,6.7,3.5s3.5,3.3,4.7,5.3
						c1.2,2,2.3,4.3,3,6.7l10.4-44.5l23.9,0.1l-18,78.7c-1.6,8.1-3.6,15.2-5.9,21.1c-2.3,5.9-5,11-7.9,15.1s-6.2,7.5-9.6,10
						c-3.5,2.5-7.1,4.5-11,5.9s-7.9,2.3-12,2.8c-4.2,0.5-8.4,0.7-12.7,0.7c-5.4,0-10-0.6-13.8-1.8c-3.8-1.2-7-2.9-9.5-5
						s-4.5-4.7-5.9-7.6s-2.4-6.1-2.8-9.6c-0.5-3.5-0.5-7.1-0.2-10.9c0.3-3.8,0.9-7.8,1.8-11.8L453.7,226.1z M473.7,238.5
						c-0.9,4.2-1.4,7.9-1.4,11.3s0.5,6.2,1.5,8.5c1,2.3,2.6,4.1,4.8,5.4s5,1.9,8.4,1.9c4,0,7.4-0.7,10.3-2s5.4-3.2,7.5-5.5
						c2.1-2.3,3.8-5,5.1-8c1.3-3,2.4-6.2,3.3-9.6l3.4-15.7c0.6-3.4,0.9-6.8,1-10.1c0.1-3.3-0.4-6.1-1.3-8.7c-1-2.5-2.5-4.6-4.8-6.1
						s-5.3-2.3-9.3-2.3c-4.1,0-7.6,0.7-10.5,2.2c-2.9,1.5-5.3,3.5-7.3,6c-2,2.5-3.5,5.4-4.8,8.7s-2.2,6.7-3,10.3L473.7,238.5z"/>
					<path class="st0" d="M634.1,192.1c-2.3-4.3-6-7.6-11-9.9c-5-2.4-11.8-3.6-20.3-3.6c-8.8,0-16.2,1.2-22.3,3.6
						c-6.1,2.4-11.2,5.8-15.2,10.1c-4.1,4.3-7.3,9.4-9.8,15.4c-2.5,6-4.4,12.4-5.9,19.5l-2.2,9.8c-1,4.4-1.6,8.7-1.9,12.8
						c-0.3,4.1-0.1,7.9,0.6,11.5c0.7,3.6,1.8,6.8,3.5,9.8c1.7,3,3.9,5.5,6.8,7.6c2.9,2.1,6.5,3.8,10.7,4.9c4.3,1.2,9.3,1.8,15.1,1.8
						c7.1,0,13.2-0.9,18.3-2.7c5.2-1.8,9.6-4.3,13.3-7.5c3.7-3.2,6.8-7,9.3-11.4c2.5-4.4,4.6-9.1,6.3-14.1l-23,2.4
						c-0.7,1.8-1.4,3.3-2.3,4.8c-1.2,2.1-2.8,4-4.6,5.5c-1.8,1.5-4,2.6-6.5,3.4c-2.5,0.8-5.4,1.1-8.7,1.1c-3.6,0-6.6-0.6-8.9-1.9
						c-2.3-1.3-4.1-3-5.3-5.1c-1.2-2.2-1.8-4.7-2-7.7c-0.1-2.9,0.2-6.1,1-9.5l33.6-3.3l30.3-3l0-0.2l1.9-8.3
						c1.6-7.4,2.4-14.1,2.4-20.1C637.6,201.6,636.4,196.4,634.1,192.1z M573.2,224.7l0.7-3.5c0.8-3.7,1.8-7.1,3.3-10.1
						c1.5-3,3.3-5.6,5.5-7.8c2.2-2.1,4.7-3.8,7.6-4.9c2.9-1.1,6.1-1.7,9.8-1.7c3.6,0,6.6,0.5,8.9,1.4c2.3,0.9,4,2.3,5.2,4.3
						c1.2,1.9,1.8,4.4,1.9,7.3c0.1,2.9-0.3,6.5-1.1,10.6l-0.1,0.7L573.2,224.7z"/>
				</g>
			</g>
			<g>
				<path class="st0" d="M730,237.8c-0.7,3.6-1.7,7.2-2.8,11s-2.5,7.4-4.2,11s-3.7,6.9-6,10.1c-2.3,3.2-5.2,5.9-8.4,8.3
					s-7,4.2-11.2,5.6c-4.2,1.4-9,2-14.5,2c-3.4,0-6.4-0.4-9-1.3c-2.6-0.9-4.8-2-6.7-3.5s-3.5-3.3-4.7-5.3c-1.2-2-2.3-4.3-3-6.7
					l-10.3,45.6l-23.9-0.1l17.9-79.8c1.6-8.1,3.6-15.2,5.9-21.1c2.3-5.9,5-11,7.9-15.1s6.2-7.4,9.6-10c3.5-2.5,7.1-4.5,11-5.9
					c3.8-1.4,7.8-2.3,12-2.8c4.2-0.5,8.4-0.7,12.7-0.7c5.4,0,10,0.6,13.8,1.8c3.8,1.2,7,2.9,9.5,5s4.5,4.7,5.9,7.6
					c1.4,2.9,2.3,6.1,2.8,9.6c0.5,3.4,0.5,7.1,0.2,10.9c-0.3,3.8-0.9,7.8-1.8,11.8L730,237.8z M710,225.5c0.9-4.2,1.4-7.9,1.4-11.3
					s-0.5-6.2-1.5-8.5s-2.7-4.1-4.8-5.4s-5-1.9-8.4-1.9c-4,0-7.4,0.7-10.3,2c-2.9,1.4-5.4,3.2-7.5,5.5c-2.1,2.3-3.8,5-5.1,8
					c-1.3,3-2.4,6.2-3.3,9.6l-3.4,15.7c-0.6,3.4-0.9,6.8-1,10.1c-0.1,3.3,0.4,6.1,1.3,8.7c1,2.5,2.5,4.5,4.8,6.1
					c2.2,1.5,5.3,2.3,9.3,2.3c4.1,0,7.6-0.7,10.5-2.2s5.3-3.5,7.3-6c2-2.5,3.5-5.4,4.8-8.7c1.2-3.3,2.2-6.7,3-10.3L710,225.5z"/>
			</g>
			<path class="st0" d="M739.8,229c1.6-7.5,3.7-14.3,6.4-20.4c2.7-6,6.1-11.2,10.4-15.5s9.4-7.6,15.5-9.9c6.1-2.3,13.4-3.4,21.9-3.4
				s15.3,1.2,20.5,3.5c5.2,2.3,9,5.6,11.5,10c2.5,4.3,3.8,9.5,4,15.5c0.2,6.1-0.6,12.8-2.2,20.4l-1.7,7.9
				c-1.7,7.6-3.8,14.4-6.4,20.5s-6,11.3-10.2,15.6c-4.2,4.3-9.3,7.6-15.4,9.9c-6.1,2.3-13.3,3.4-21.8,3.4s-15.3-1.2-20.6-3.5
				s-9.1-5.6-11.6-10s-3.9-9.5-4.1-15.6c-0.2-6.1,0.6-13,2.2-20.6L739.8,229z M761.3,240.7c-0.8,3.5-1.2,6.8-1.3,10
				c0,3.2,0.5,6,1.5,8.4c1,2.4,2.7,4.4,5,5.8c2.3,1.4,5.4,2.1,9.3,2.1c3.8,0,7.2-0.7,10.1-2c2.9-1.4,5.3-3.2,7.4-5.6s3.7-5.1,5-8.3
				c1.3-3.2,2.4-6.6,3.2-10.3l3.3-15.3c0.7-3.2,1.1-6.3,1.3-9.5s-0.2-5.9-1.2-8.4c-0.9-2.5-2.5-4.5-4.8-6c-2.3-1.5-5.5-2.3-9.6-2.3
				c-4.1,0-7.7,0.7-10.6,2.2s-5.4,3.5-7.4,5.9c-2,2.5-3.6,5.3-4.9,8.4c-1.2,3.2-2.2,6.4-3,9.7L761.3,240.7z"/>
			<path class="st0" d="M954.6,182.7l5.4-23.9l-24.1-0.3l-5.4,24.1l-12.3,0l-4.4,19.1l12.6,0l-11.8,51.3c-0.7,3-1.2,5.9-1.5,8.7
				c-0.3,2.8-0.4,5.5-0.2,8c0.2,2.5,0.8,4.8,1.7,6.9c0.9,2.1,2.3,3.9,4.2,5.4c1.9,1.5,4.3,2.7,7.3,3.5c3,0.9,6.6,1.3,10.8,1.3
				c5.3,0,9.8-0.5,13.5-1.5c3.8-1.1,6.7-2.1,8.9-3.2l2.3-17.1c-1.8,0.6-3.9,1.2-6.1,1.7c-2.3,0.5-5.2,0.8-8.9,0.7
				c-2.3,0-4.1-0.5-5.3-1.5c-1.2-1-2.1-2.3-2.5-4c-0.5-1.7-0.6-3.6-0.4-5.9c0.2-2.2,0.8-4.6,1.4-7.1l6.1-27.5l4.4-19.7l27,0.1
				l4.3-19.1L954.6,182.7z"/>
			<path class="st0" d="M889.5,183.4C889.4,183.4,889.4,183.4,889.5,183.4c-7.7,1.6-14.6,5.4-20,10.8l2.5-11.6l-22.7-0.1
				l-22.7,101.5l22.6,0.1l2.9-13.6l4.9-21.3l4.2-16.9c4.3-18.3,20.9-31.2,39.7-30.8l6.5,0.1l4.4-19.1
				C911.3,182.4,897,181.7,889.5,183.4z"/>
		</g>
	</g>
	<g>
		<g class="st1">
			<g class="st1">
				<g>
					<path class="st0" d="M225.8,150.6c1.2,1.9-2.3,1.5-2.3,1.5c-0.1,0-4.2-5.1-3.2-5.4c0.1,0,0.3,0,0.5,0.1l1.1,0.6
						C224.7,149.1,225.6,150.4,225.8,150.6 M216.2,145.9c0.3-0.8-1-2-3.5-3.1c-0.9-0.4-1.5-0.4-1.7-0.3c-2.2,0.2,1,3.5,2.4,4.7
						C213.5,147.2,215.8,146.9,216.2,145.9 M204.4,143.6c0.8-0.6,2.9-2.1-2.3-4.1c-1.2-0.1-2.3,0-3.1,0.2c-3.8,1.2,2.9,5.1,3,5.1
						C202.6,144.6,203.6,144.1,204.4,143.6 M188.9,145.1c5.4-4.6,1.5-5.9-0.7-6.5c-2.5-0.7-2.9-0.8-5.1,0.5
						c-4.2,2.6,1.8,5.1,5.6,6.2C188.8,145.2,188.9,145.1,188.9,145.1 M174,149.7c0.1,0,0.2,0,0.2-0.1c2.8-5.9-0.8-7-2-7.4
						c-3.2-0.7-7.2-0.8-7.9-0.1C160.6,145.8,162.7,149.6,174,149.7 M161,159.4c0,0,0.1-0.1,0.1-0.1c-0.4-5.5-3.6-6.8-4.6-7.2
						c-4.8-1.4-12.5,1.6-12.6,1.8C142.8,155.7,143.9,164.2,161,159.4 M152.2,174C152.2,174,152.3,174,152.2,174
						c-2-3.8-4.8-5.1-6.1-5.7c-6.8-2.3-14.4,4-16.5,5.9C133.1,181.3,141.7,181.2,152.2,174 M150,192.2c0,0,0-0.1,0-0.1
						c-1.5-1.2-2.9-1.9-3.8-2.3c-13.3-5.5-19.8,10.1-19.8,10.3C137.2,207.7,146.5,197.1,150,192.2 M154.6,211.2
						c0.2-0.4,0.3-0.7,0.3-0.8c-0.3-0.1-0.6-0.2-0.8-0.3c-1.9-0.6-8.4-2.3-13.3,1.3c-5.7,4.2-6.7,13.3-6.6,13.5
						C139.5,226.4,149.2,226.5,154.6,211.2 M162.9,235.9c1.6-3.4,2.2-7.4,2.3-9.8c-0.1,0-0.3,0-0.4,0c-3.2-0.1-9.1,0.4-13.1,5
						c-3.9,4.6-3.6,14-3.3,14.4C152.3,245.3,159.3,243.8,162.9,235.9 M176.6,252.2c2.9-4.4,3.1-10.2,2.4-14.3
						c-4.1,0.8-17.1,4.9-13.7,21.9c0,0,0.1,0,0.1,0.1C166.7,259.5,173.3,257.3,176.6,252.2 M193.3,261.9c5.9-6.7,3-14.6,1.9-16.8
						c-8,3.9-15,11.9-10.7,23.1C184.8,268.2,190,265.6,193.3,261.9 M211.4,266.9c8.7-8.9,3.8-16.8,1.4-19.8
						c-3.4,2.9-14.1,13.3-6.2,23.7C206.8,270.8,209.6,268.6,211.4,266.9 M228.9,266.8c3.4-3.7,10.4-13.1,3.2-21
						c-0.5-0.5-1.3-1.3-2.4-2C228.9,244.2,219,260.3,228.9,266.8 M247.8,254.3c0,0,0.1,0,0.1,0c0.8-1.8,4.7-11.2,1.2-16.6
						c-0.8-0.9-2.4-2.9-5.6-3.4C239.1,252,245,254.2,247.8,254.3 M259.8,233.5c0,0,0.9-7.3-1.4-12.1c-1.8-3.3-5.1-2.4-6.4-1.8
						c0.1,1.6,0.8,9.9,2.6,13.2C256.1,235.4,258.4,235.1,259.8,233.5 M262.2,208.9c0,0-0.5-3.2-2.4-7c-0.7-1.2-2.5-4.3-5.5,0.8
						c0.4,1.1,2.7,7,4.5,9.1C260.6,214.1,261.9,212,262.2,208.9 M255.9,185.2c0,0-0.3-0.6-1.2-2c-0.5-0.7-1.9-2.8-2.8-2.7
						c-1.2,0.2-1.3,5.2-1.2,5.3c0,0,3.4,4.8,5.1,5.6C257.5,192.3,257.2,188.9,255.9,185.2 M245,167.4c-0.3-0.4-0.6-0.8-0.9-1.2
						c-0.4-0.5-1.9-1.9-2.4-1.7c-0.8,0.4,1.3,6.6,1.4,6.6c0.1,0.1,2.8,2.2,4,2.5C248.9,174.1,247,170.3,245,167.4 M235.4,157.6
						c-0.6-0.7-1.9-2.1-4.1-3.9c-0.2-0.1-0.9-0.6-1.1-0.5c-0.5,0.4,3.1,6.4,3.1,6.5c0,0,1.4,0.6,2.3,0.7
						C237.5,160.7,236.5,159,235.4,157.6"/>
					<path class="st0" d="M222.4,156.2c-0.6,2.7-5.1,3.3-5.6,3.4c-4.2-6.4-3.4-10.6,2.1-10.6C220.4,150.6,222.9,153.9,222.4,156.2"
						/>
					<path class="st0" d="M212.5,153.5c-0.8,1.6-2.7,2.9-4.1,3.5c-6-5.6-6.1-10.4-0.1-11.8C209.7,146.3,214.3,149.9,212.5,153.5"/>
					<path class="st0" d="M201.2,154.8c-0.5,0.7-1.1,1.5-1.7,2c-0.6-0.3-6.3-3.5-7.3-7.1c-0.9-3,2.7-5.5,3.5-5.8c0,0,0.1,0,0.1,0
						C200.3,145.8,204.9,149.3,201.2,154.8"/>
					<path class="st0" d="M190.5,159.2c-2.9-0.7-8.3-2.7-10.4-5.6c-2.7-3.8,0.9-7.6,0.9-7.7c0,0,1.8,0,5.4,1.4
						c5.5,2.4,6.9,6.4,4.2,11.9C190.6,159.2,190.5,159.2,190.5,159.2"/>
					<path class="st0" d="M182.6,164.4c-17.3,0.7-17.6-9.9-16.5-11.6c0,0,5.6-1.1,10.9,0.9C183.5,156.6,182.7,164.4,182.6,164.4"/>
					<path class="st0" d="M176.8,172.4c-11.5,4.1-20.4,1.2-22.8-7.2c0.2-0.3,9.2-4.3,15.6-1.6c3.4,1.7,5.8,4.6,7.2,8.7
						C176.8,172.3,176.8,172.4,176.8,172.4"/>
					<path class="st0" d="M174.1,182.5c-10,7.9-20.1,7.8-26.5-0.2c3-3,11-9.4,19.8-5.5C168.9,177.6,171.8,179.2,174.1,182.5
						C174.2,182.5,174.1,182.5,174.1,182.5"/>
					<path class="st0" d="M175.2,193.7c-2.5,3.9-11.9,16.2-26.4,8c0-0.2,7.5-18.3,24.5-9.3C173.8,192.7,174.5,193.1,175.2,193.7
						C175.2,193.6,175.2,193.7,175.2,193.7"/>
					<path class="st0" d="M178.4,208.2c-5.4,12-14.9,12.8-21.8,11.4c-0.1-0.2,2.4-20.2,21.7-15.8c0.1,0,0.9,0.2,1.5,0.4
						C179.4,205.9,178.9,207.3,178.4,208.2"/>
					<path class="st0" d="M185.1,224.4c-3.8,7.5-11.7,9.3-16.1,9.6c-0.4-0.4-0.7-9.8,3.8-15.2c4.1-4.9,11-5.8,13.8-5.9
						c0.5,0,0.8,0,0.9,0C187.7,217,186.8,221.2,185.1,224.4"/>
					<path class="st0" d="M195.8,235.8c-3.4,5-9.6,7.5-11.4,8.1c0,0-0.1,0-0.1-0.1c-5.3-17.9,8.7-23.6,13.1-24.9
						C198.9,223.8,199.2,230.7,195.8,235.8"/>
					<path class="st0" d="M209.1,241.9c-2.7,4-7.1,7.1-7.5,7c-7.1-11.8-1.2-21.7,6.7-27C209.9,224.5,214.8,233.4,209.1,241.9"/>
					<path class="st0" d="M222.4,245.4c-0.5,0.8-1.4,2-2.5,3.3c-1,0-13.2-11.1-0.7-27.4C222.8,224.4,230.4,233.1,222.4,245.4"/>
					<path class="st0" d="M236.2,242.5c-4.1-1.8-13-7.7-7.4-25.4c0,0,0.1,0,0.1-0.1c2.4,1.1,3.9,2.3,5,3.3
						c7.1,6.9,5.3,15.8,2.5,22.1C236.3,242.4,236.2,242.5,236.2,242.5"/>
					<path class="st0" d="M248.5,230.1c-5.8,0.6-12.6-4.3-12.7-20.4c2.3,0.1,5.7,0.9,8.9,3.9C249.6,218.9,248.7,228.2,248.5,230.1
						C248.5,230.1,248.5,230.1,248.5,230.1"/>
					<path class="st0" d="M254.5,213.5c-4.3,3.8-10.6,1.1-15.1-13.1c1.4-0.6,6.4-2.1,10.3,2C252.8,206.1,254.1,210.9,254.5,213.5
						C254.5,213.4,254.5,213.5,254.5,213.5"/>
					<path class="st0" d="M254,195.6c-1.3,4.9-6.2,7.4-14.5-5.5c3.4-4,6.9-4.1,10.6-0.2C253.1,193.3,254,195.6,254,195.6"/>
					<path class="st0" d="M248.1,178.9c0.2,1.1,1.6,10.9-8,4.2c-1.2-0.9-3.7-2.9-3.7-3.1c0-0.1,1.2-5.3,4.3-5.6
						c0.8-0.1,3,0.1,6.7,3.9C248.1,178.8,248.1,178.8,248.1,178.9"/>
					<path class="st0" d="M240.1,168.1c2.4,8.8-7,4.2-8.9,3.2c-0.3-2.8-0.5-11.5,7.7-6.2C239.6,166.5,240,167.8,240.1,168.1"/>
					<path class="st0" d="M231.6,161.6c0.2,3.9-5.4,3.1-7.2,2.8c-2.1-5.8-1.6-10.8,4.3-9.1C230,157,231.5,159.7,231.6,161.6"/>
					<path class="st0" d="M217.9,145.3c-0.2-0.1-0.5-0.1-0.7-0.3c-0.3-0.2-0.8-0.5-1.4-0.7l0.3,0.1L217.9,145.3
						C218,145.3,217.9,145.3,217.9,145.3"/>
					<path class="st0" d="M209.9,141.7c-0.5-0.2-1.1-0.3-2.1-0.4c0,0-0.1,0-0.1,0c0,0-1.4-0.7-1.6-0.9c0,0,0,0,0,0l1.1,0.4
						C207.9,141.1,209.1,141.4,209.9,141.7C209.9,141.7,209.9,141.7,209.9,141.7"/>
					<path class="st0" d="M196.1,138.7c-0.5,0.1-1,0.1-1.5,0.2c-0.1,0-0.3,0.1-0.4,0.1c0,0-2.6-0.9-2.8-1.5c0.3-0.4,1.7-0.2,2.9,0
						l2.2,0.4l2.7,0.6C198.2,138.5,197.1,138.6,196.1,138.7"/>
					<path class="st0" d="M175.7,140.2c-0.7-0.1-7.1-0.7-5.7-2.1c0,0,2.6-2.1,8.7-1.5c1.7,0.2,1.9,0.6,0.9,1.4
						C179.3,138.1,175.9,140.2,175.7,140.2"/>
					<path class="st0" d="M155.3,148c-3.1,0.6-12.9,2.1-10.1-2.1c0.7-1,2-2,2.2-2.1c0.8-0.3,4.8-1.6,7.9-1.3
						C158.9,143,155.4,147.9,155.3,148C155.4,147.9,155.3,148,155.3,148"/>
					<path class="st0" d="M138.3,163.7c-16.6,9-16,0.7-15.4-0.6c0.1-0.3,7.5-5.9,11.8-5.1C138.5,159.1,138.5,163.5,138.3,163.7"/>
					<path class="st0" d="M129.9,186.4c-12,13.9-17.6,7.9-19.1,5.8c1.1-2,7.1-11.9,14.1-9.9C126,182.7,128.1,183.6,129.9,186.4
						C129.9,186.3,129.9,186.4,129.9,186.4"/>
					<path class="st0" d="M132.4,211c-2.5,6.6-8.1,16.8-17.4,12c0-0.2,1.8-18.9,15.9-12.9c0.4,0.2,0.9,0.4,1.5,0.8
						C132.4,210.9,132.4,211,132.4,211"/>
					<path class="st0" d="M142.7,236.9c-2,9.1-6.3,13.4-12.8,12.7c-0.6-0.9-2.6-19.3,12.7-16.8c0.2,0,0.4,0.1,0.7,0.1
						C143.2,234.1,143,235.6,142.7,236.9"/>
					<path class="st0" d="M159.8,258.8c-2.7,5.9-8.4,7.8-10.1,8.2c-0.1,0-2.1-7.8,1.6-13.7c1.7-2.8,6-5.1,10.2-5.6
						C161.6,249.1,161.9,254.2,159.8,258.8"/>
					<path class="st0" d="M176.6,269.9c-3.2,4.1-8.8,6-10.4,6.5c-0.6-1.4-1.9-15.1,13.4-18.8C180.2,262.1,179.1,266.7,176.6,269.9"
						/>
					<path class="st0" d="M192.1,280.6c-3.3,2.5-7.8,4.2-8,4.2c-1.9-6.5,3-13.7,12.3-18.3C197.5,268.9,199.3,275.2,192.1,280.6"/>
					<path class="st0" d="M212.3,282.9c-0.4,0.3-1.8,1.3-3.4,2.1c-3.1-4.5,0.4-11.6,9.5-19C220,267.9,224.2,274.6,212.3,282.9"/>
					<path class="st0" d="M234.1,276.9c-2.7-1.3-4.1-5.6,4.6-18.7c1.4,0.8,2,1.7,2.4,2.4C244,266.5,236.6,274.5,234.1,276.9
						C234.2,276.9,234.2,276.9,234.1,276.9"/>
					<path class="st0" d="M254.1,257.9c-0.9,0.6-3.8,1.9-1.7-8.5c0.5-2.6,1.4-6.3,1.7-7.3c1.8-0.3,2.9,0.4,3.5,2.2
						C258.4,248.7,254.1,257.9,254.1,257.9"/>
					<path class="st0" d="M263.7,229.1c-0.2,2-0.6,3-1.1,2.6c-0.8-0.9-1.5-11.6-1.5-11.8c0-0.1,1.2-1.8,1.9-1.7
						c0.1,0,0.5,0.1,0.8,1.5C264.3,223.2,263.8,227.8,263.7,229.1"/>
					<path class="st0" d="M262.2,202.8c0.2,0.8,0.1,1,0.1,1.1c0,0,0,0-0.1,0c-0.5-0.5-3-7.3-3.1-7.3c0,0-0.3-4-0.1-4.3
						c0.1,0,0.1,0.1,0.5,0.9l0.7,2.2c0.6,2.2,1.4,5.1,1.9,7.3C262.2,202.7,262.2,202.8,262.2,202.8"/>
					<path class="st0" d="M240,161.5c-0.1,0-1.6-1.1-1.7-1.3c-1.5-1.7-2.4-2.6-3.1-3.3C236.6,158.3,238.5,160.1,240,161.5
						C240,161.5,240,161.5,240,161.5"/>
					<path class="st0" d="M164.2,140.2c-4.5,0.4-6.9,0.3-7.2-0.2c0.4-1.1,6.4-2.6,10.4-2.8c0.7,0,0.8,0.1,0.9,0.2
						C168.1,138,164.7,140.2,164.2,140.2"/>
					<path class="st0" d="M141.5,152.1c-5.9,2.4-12.8,4.7-11.4,1.6c1.4-3.4,9.5-5.9,10.7-5.9C143.6,148.1,141.6,152.1,141.5,152.1"
						/>
					<path class="st0" d="M125.6,173.2c-15.5,14.3-15.6,5.2-15.6,5.1c0-0.1,6.7-9.7,11.8-9C122.7,169.6,124.5,170.1,125.6,173.2
						C125.6,173.1,125.6,173.2,125.6,173.2"/>
					<path class="st0" d="M121.7,200.2c-6.6,14-12.3,13.9-16,11.3c0-0.2,2.8-16.3,13-13.1c0.7,0.3,1.8,0.7,3,1.6
						C121.7,200.1,121.7,200.2,121.7,200.2"/>
					<path class="st0" d="M129.8,227.3c-1.6,11.3-5.6,16.4-11.9,15.3c-0.6-0.9-2.6-19.7,11.4-16.3c0.2,0.1,0.4,0.1,0.6,0.2
						C129.8,226.7,129.8,227,129.8,227.3"/>
					<path class="st0" d="M144.3,256.8c-1.6,7.3-6.2,9-8.1,9.3c-0.8-0.8-5.3-18.1,8.7-18.2C145,250.1,145,253.6,144.3,256.8"/>
					<path class="st0" d="M161.3,275c-2.5,3.7-6.9,5.6-7.7,5.9c-0.7-1.6-2.7-14.1,9.9-17.2C164.1,267.8,163.3,272,161.3,275"/>
					<path class="st0" d="M177.4,283.6c-2,1.5-4.9,3-7.8,4c-0.5-0.7-1.3-10.6,12.1-16.2C182.4,273.6,183.4,279.1,177.4,283.6"/>
					<path class="st0" d="M197.6,288.1c-2.4,1.3-4.7,2.2-5.3,2.4c-1.9-4.4,2.8-10.8,12.1-16.2C205.8,276.6,208,282.4,197.6,288.1"/>
					<path class="st0" d="M219.3,287.1c-2.2-1.7-2.5-6,8.5-16.8c0.7,0.5,1.1,1.1,1.3,1.5C232.8,278.2,221.6,285.7,219.3,287.1"/>
					<path class="st0" d="M244,273.1c-4.4,1,1.2-10.2,3.9-15.6c2,0.1,2.4,1.6,2.6,2.3C251.1,264.3,244.1,273.1,244,273.1"/>
					<path class="st0" d="M259.5,247.8c-0.2,0.4-0.3,0.5-0.3,0.5c-0.5-0.6,1.4-12.6,1.4-12.7c0,0,1.1-1.3,1.6-1.2
						c0.1,0,0.4,0.1,0.3,1.4c-0.1,0.7-0.2,1.7-0.7,3.9c-0.7,2.4-1.5,5.6-2.3,7.9C259.6,247.6,259.5,247.7,259.5,247.8"/>
					<path class="st0" d="M264,217.4c0-0.4-0.1-0.9-0.1-0.9c-0.2-1.6-0.4-3.5-1-6.9c0-0.2,0-0.2,0-0.6c0-1.5,0-2.6-0.1-3.3l0.6,3.5
						C263.6,211.6,263.9,214.9,264,217.4C264,217.4,264,217.4,264,217.4"/>
					<g>
						<g>
							<defs>
								<path id="SVGID_1_" d="M224.6,212.5c-1.4-0.5-5-2.1-8.3-5.4c0.7-2.1,2.7-8.6-4-17.4c0.1-0.4,0.2-0.8,0.3-1.3
									c0.3,0,1.1,0.4,1.7,0.7c3.7,10.7,9.1,12.8,11.1,13.6c0.2,1.9,0.6,5.5-0.7,9.8C224.7,212.5,224.6,212.5,224.6,212.5
									 M214.7,208.3c4.1-9.1-1.9-16.9-4.7-19.9c-0.4,0.3-0.8,0.7-1,0.9c1.9,10.6-3.1,15.1-4.8,16.6c2.5,6.9,5.4,9.4,5.5,9.4
									C211.7,213.3,213.5,210.8,214.7,208.3 M206.5,201.3c2.5-4.4,2.1-10.3,0.9-14.3c-0.5,0.1-1,0.2-1.4,0.2
									c-3.6,9.6-10.3,10.9-12.4,11.3c-1,7.3,0.6,10.9,0.6,10.9C196.3,209.1,203.3,207,206.5,201.3 M204.6,188.1
									c0.3-0.8,0.8-2,1.1-3.4c-0.5-0.2-1-0.4-1.4-0.5c-8.1,5.9-14.6,3.8-16.7,3.1c-2.3,2.7-3.9,5.9-4.8,9.4
									C183,196.9,198.2,202.5,204.6,188.1 M205.2,182.1C205.3,182.1,205.3,182.1,205.2,182.1c-0.4-0.5-0.6-0.8-1-1.1
									c-10.4,0.7-14.7-3.7-16.2-5.2c-6.5,2.3-8.6,5.3-8.6,5.3C192.3,193.1,203.2,184.1,205.2,182.1 M206.2,179.8
									c0,0,0-0.1,0.1-0.1c-0.1-0.5-0.3-0.9-0.4-1.2c-9.6-4.3-11-9.5-11.5-11.2c-6.5-1-9.7,0.3-9.8,0.3
									C187.6,178.2,197.6,181.4,206.2,179.8 M208.2,178.4c0,0,0.1,0,0.1,0c0.1-0.5,0.2-0.8,0.3-1.1c-6.5-7.7-5.1-12-4.6-13.6
									c-0.8-0.6-1.4-1-2.3-1.5c-4.1-2.1-5.9-2.2-5.9-2.2C193,167.7,197.9,174.9,208.2,178.4 M211.6,177.9c0.1-0.1,0.1-0.1,0.2-0.2
									c-2.1-8.9,1.2-11.5,2.5-12.5c-0.8-1.3-2.3-3.9-5.4-6.3c-8.2,5.7-3,15.1,2.1,19.6C211.1,178.3,211.3,178.2,211.6,177.9
									 M222.9,171.3c0.1,0,0.3,0,0.4,0c-0.1-1.3-0.4-4.1-2.3-7.5c-8.1,0.4-11,6.7-7.6,16c0.5,0,0.9-0.1,1.2-0.2
									C216.2,174.3,218.9,171.6,222.9,171.3 M230.7,177.3c0.2-1.1,0.2-2.3,0.1-3.5c-8.2-4.1-14.4-0.9-15.8,8.1
									c0.5,0.2,0.9,0.4,1.3,0.5c6.5-4.9,11.3-2.5,13.1-1.6C229.9,180.2,230.4,179.2,230.7,177.3 M234.6,202.2
									C234.6,202.2,234.6,202.2,234.6,202.2c-1-4.4-2.9-7.3-3.9-8.9c-1.6,0.3-6.5,1.4-14.4-6.6c-0.5,0-0.9,0.1-1.6,0.2
									C214.6,189.3,220.7,205.8,234.6,202.2 M236.4,187.9C236.4,187.8,236.4,187.8,236.4,187.9c-1.6-2.1-3.3-3.5-4.2-4.3
									c-2.2-1.7-9-6.7-16.6,1C224.7,195.3,232.8,193.8,236.4,187.9 M212.3,184.5c0.3-0.6,0.5-1.9-0.9-2.9c-0.1,0-0.1-0.1-0.2-0.1
									c-1.6-0.9-3.3,0.4-2.7,2.1C209.1,185.4,211.5,186,212.3,184.5"/>
							</defs>
							<use xlink:href="#SVGID_1_"  style="overflow:visible;fill:#FFFFFF;"/>
							<clipPath id="SVGID_2_">
								<use xlink:href="#SVGID_1_"  style="overflow:visible;"/>
							</clipPath>
							<g class="st2">
								<polygon class="st0" points="172,225.7 245,225.9 245.2,138.9 172.2,138.7 								"/>
								<g>
									<polygon class="st0" points="172,225.7 172.2,225.7 172,225.5 									"/>
								</g>
							</g>
						</g>
					</g>
				</g>
			</g>
		</g>
	</g>
</g>
</svg>
