<?xml version="1.0" encoding="utf-8"?>
<!-- Generator: Adobe Illustrator 24.2.1, SVG Export Plug-In . SVG Version: 6.00 Build 0)  -->
<svg version="1.1" id="Capa_1" xmlns="http://www.w3.org/2000/svg" xmlns:xlink="http://www.w3.org/1999/xlink" x="0px" y="0px"
	 viewBox="0 0 504.9 169" style="enable-background:new 0 0 504.9 169;" xml:space="preserve">
<style type="text/css">
	.st0{fill:#0FAFAA;}
	.st1{fill:#037B78;}
	.st2{enable-background:new    ;}
	.st3{fill:url(#SVGID_1_);}
	.st4{clip-path:url(#SVGID_3_);}
	.st5{fill:url(#SVGID_4_);}
	.st6{fill:url(#SVGID_5_);}
	.st7{clip-path:url(#SVGID_7_);fill:url(#SVGID_8_);}
	.st8{fill:url(#SVGID_9_);}
	.st9{clip-path:url(#SVGID_11_);fill:url(#SVGID_12_);}
	.st10{fill:url(#SVGID_13_);}
	.st11{clip-path:url(#SVGID_15_);fill:url(#SVGID_16_);}
	.st12{fill:url(#SVGID_17_);}
</style>
<g>
	<g>
		<g>
			<g>
				<path class="st0" d="M130.8,43.7l-0.5,0l-0.5,5.2l-10.3,46.5l-13.2,0l16.1-72l13.3,0l18,50.8l0.9,0l0.4-4.4l10.3-46.3l12.9,0
					l-16.2,72l-13.7,0L130.8,43.7z"/>
				<path class="st0" d="M173.5,95.5l12.8-56.6l13.5,0l-12.6,56.6L173.5,95.5z M187.8,29.4c0-2.1,0.7-3.9,2.2-5.2
					c1.5-1.3,3.7-2,6.8-2c2.3,0,4,0.4,5,1.2c1,0.8,1.5,2,1.5,3.5c0,1-0.2,2-0.5,2.8c-0.3,0.9-0.8,1.6-1.6,2.3
					c-0.7,0.6-1.7,1.2-2.8,1.5c-1.2,0.4-2.6,0.6-4.2,0.6c-2.2,0-3.9-0.4-4.9-1.2S187.8,30.9,187.8,29.4z"/>
				<g>
					<path class="st0" d="M199.8,64.2c0.4-2,0.9-4,1.6-6.1c0.6-2.1,1.4-4.1,2.4-6.1c0.9-2,2.1-3.9,3.4-5.6c1.3-1.8,2.9-3.3,4.7-4.6
						c1.8-1.3,3.9-2.3,6.3-3.1c2.4-0.8,5-1.1,8.1-1.1c1.9,0,3.6,0.2,5,0.7c1.4,0.5,2.7,1.1,3.7,2c1.1,0.8,1.9,1.8,2.6,3
						c0.7,1.1,1.3,2.4,1.7,3.7l5.8-24.8l13.3,0l-10,43.9c-0.9,4.5-2,8.5-3.3,11.8c-1.3,3.3-2.8,6.1-4.4,8.4
						c-1.6,2.3-3.4,4.2-5.4,5.6c-1.9,1.4-4,2.5-6.1,3.3c-2.1,0.8-4.4,1.3-6.7,1.6c-2.3,0.3-4.7,0.4-7.1,0.4c-3,0-5.6-0.3-7.7-1
						c-2.1-0.7-3.9-1.6-5.3-2.8c-1.4-1.2-2.5-2.6-3.3-4.3c-0.8-1.6-1.3-3.4-1.6-5.4c-0.3-1.9-0.3-4-0.1-6.1c0.2-2.1,0.5-4.3,1-6.6
						L199.8,64.2z M211,71.1c-0.5,2.3-0.8,4.4-0.8,6.3c0,1.9,0.3,3.4,0.9,4.7c0.6,1.3,1.5,2.3,2.7,3c1.2,0.7,2.8,1.1,4.7,1.1
						c2.2,0,4.1-0.4,5.8-1.1c1.6-0.8,3-1.8,4.2-3.1c1.2-1.3,2.1-2.8,2.9-4.5c0.7-1.7,1.4-3.5,1.8-5.4l1.9-8.8
						c0.3-1.9,0.5-3.8,0.5-5.6c0-1.8-0.2-3.4-0.7-4.8c-0.5-1.4-1.4-2.5-2.7-3.4c-1.2-0.9-3-1.3-5.2-1.3c-2.3,0-4.3,0.4-5.9,1.2
						c-1.6,0.8-3,1.9-4.1,3.3c-1.1,1.4-2,3-2.7,4.8c-0.7,1.8-1.2,3.8-1.7,5.7L211,71.1z"/>
					<path class="st0" d="M300.4,45.2c-1.3-2.4-3.3-4.2-6.1-5.6c-2.8-1.3-6.6-2-11.3-2c-4.9,0-9,0.7-12.4,2
						c-3.4,1.3-6.2,3.2-8.5,5.6c-2.3,2.4-4.1,5.3-5.4,8.6c-1.4,3.3-2.5,6.9-3.3,10.9l-1.2,5.5c-0.5,2.5-0.9,4.8-1,7.1
						c-0.1,2.3,0,4.4,0.3,6.4c0.4,2,1,3.8,1.9,5.4c0.9,1.6,2.2,3.1,3.8,4.2c1.6,1.2,3.6,2.1,6,2.7c2.4,0.7,5.2,1,8.4,1
						c3.9,0,7.4-0.5,10.2-1.5c2.9-1,5.3-2.4,7.4-4.2c2.1-1.8,3.8-3.9,5.2-6.3c1.4-2.4,2.6-5.1,3.5-7.9L285,78.6
						c-0.4,1-0.8,1.9-1.3,2.7c-0.7,1.2-1.6,2.2-2.6,3.1c-1,0.8-2.2,1.5-3.6,1.9c-1.4,0.4-3,0.6-4.9,0.6c-2,0-3.7-0.4-5-1.1
						c-1.3-0.7-2.3-1.7-2.9-2.9c-0.7-1.2-1-2.6-1.1-4.3c-0.1-1.6,0.1-3.4,0.6-5.3l18.7-1.8l16.9-1.7l0-0.1l1-4.6
						c0.9-4.1,1.3-7.8,1.4-11.2C302.4,50.5,301.7,47.6,300.4,45.2z M266.5,63.4l0.4-1.9c0.4-2.1,1-4,1.9-5.6
						c0.8-1.7,1.8-3.1,3.1-4.3c1.2-1.2,2.6-2.1,4.2-2.8c1.6-0.6,3.4-1,5.4-1c2,0,3.7,0.3,4.9,0.8c1.3,0.5,2.2,1.3,2.9,2.4
						c0.6,1.1,1,2.4,1.1,4.1c0.1,1.6-0.1,3.6-0.6,5.9l0,0.4L266.5,63.4z"/>
				</g>
			</g>
			<g>
				<path class="st1" d="M353.9,70.7c-0.4,2-0.9,4-1.6,6.1c-0.6,2.1-1.4,4.1-2.4,6.1c-0.9,2-2.1,3.9-3.4,5.6
					c-1.3,1.8-2.9,3.3-4.7,4.6c-1.8,1.3-3.9,2.3-6.3,3.1c-2.4,0.8-5,1.1-8.1,1.1c-1.9,0-3.6-0.2-5-0.7c-1.4-0.5-2.7-1.1-3.7-2
					c-1.1-0.8-1.9-1.8-2.6-3c-0.7-1.1-1.3-2.4-1.7-3.7l-5.8,25.4l-13.3,0l10-44.5c0.9-4.5,2-8.5,3.3-11.8c1.3-3.3,2.8-6.1,4.4-8.4
					c1.6-2.3,3.4-4.2,5.4-5.6c1.9-1.4,4-2.5,6.1-3.3c2.1-0.8,4.4-1.3,6.7-1.6c2.3-0.3,4.7-0.4,7.1-0.4c3,0,5.6,0.3,7.7,1
					c2.1,0.7,3.9,1.6,5.3,2.8s2.5,2.6,3.3,4.3c0.8,1.6,1.3,3.4,1.6,5.4c0.3,1.9,0.3,4,0.1,6.1c-0.2,2.1-0.5,4.3-1,6.6L353.9,70.7z
					 M342.8,63.8c0.5-2.3,0.8-4.4,0.8-6.3c0-1.9-0.3-3.4-0.9-4.7c-0.6-1.3-1.5-2.3-2.7-3c-1.2-0.7-2.8-1.1-4.7-1.1
					c-2.2,0-4.1,0.4-5.8,1.1c-1.6,0.8-3,1.8-4.2,3.1c-1.2,1.3-2.1,2.8-2.9,4.5c-0.7,1.7-1.4,3.5-1.8,5.4l-1.9,8.8
					c-0.3,1.9-0.5,3.8-0.5,5.6c0,1.8,0.2,3.4,0.7,4.8c0.5,1.4,1.4,2.5,2.7,3.4c1.2,0.9,3,1.3,5.2,1.3c2.3,0,4.3-0.4,5.9-1.2
					c1.6-0.8,3-1.9,4.1-3.3c1.1-1.4,2-3,2.7-4.8c0.7-1.8,1.2-3.8,1.7-5.7L342.8,63.8z"/>
			</g>
			<path class="st1" d="M359.4,65.8c0.9-4.2,2.1-8,3.6-11.3c1.5-3.4,3.4-6.3,5.8-8.6c2.4-2.4,5.3-4.2,8.7-5.5
				c3.4-1.3,7.5-1.9,12.2-1.9c4.7,0,8.5,0.7,11.4,2c2.9,1.3,5,3.2,6.4,5.6c1.4,2.4,2.1,5.3,2.2,8.7c0.1,3.4-0.3,7.2-1.2,11.4l-1,4.4
				c-0.9,4.2-2.1,8-3.6,11.4c-1.5,3.4-3.4,6.3-5.7,8.7c-2.3,2.4-5.2,4.2-8.6,5.5c-3.4,1.3-7.4,1.9-12.2,1.9c-4.7,0-8.6-0.7-11.5-2
				c-2.9-1.3-5.1-3.2-6.5-5.6c-1.4-2.4-2.2-5.3-2.3-8.7c-0.1-3.4,0.3-7.2,1.2-11.5L359.4,65.8z M371.4,72.3c-0.4,2-0.7,3.8-0.7,5.6
				c0,1.8,0.3,3.3,0.8,4.7c0.6,1.4,1.5,2.4,2.8,3.2c1.3,0.8,3,1.2,5.2,1.2c2.1,0,4-0.4,5.6-1.1s3-1.8,4.1-3.1
				c1.1-1.3,2.1-2.9,2.8-4.7c0.7-1.8,1.3-3.7,1.8-5.7l1.8-8.5c0.4-1.8,0.6-3.5,0.7-5.3c0.1-1.8-0.1-3.3-0.6-4.7
				c-0.5-1.4-1.4-2.5-2.7-3.4c-1.3-0.9-3.1-1.3-5.4-1.3c-2.3,0-4.3,0.4-5.9,1.2c-1.6,0.8-3,1.9-4.1,3.3c-1.1,1.4-2,2.9-2.7,4.7
				c-0.7,1.8-1.2,3.6-1.6,5.4L371.4,72.3z"/>
			<path class="st1" d="M479.2,40l3-13.4l-13.5-0.1l-3,13.5l-6.8,0l-2.5,10.7l7,0l-6.6,28.6c-0.4,1.7-0.6,3.3-0.8,4.9
				c-0.2,1.6-0.2,3.1-0.1,4.4c0.1,1.4,0.4,2.7,1,3.8c0.5,1.2,1.3,2.2,2.3,3c1,0.8,2.4,1.5,4.1,2c1.7,0.5,3.7,0.7,6,0.7
				c2.9,0,5.5-0.3,7.6-0.8c2.1-0.6,3.8-1.2,5-1.8l1.3-9.5c-1,0.3-2.2,0.6-3.4,0.9c-1.3,0.3-2.9,0.4-5,0.4c-1.3,0-2.3-0.3-3-0.9
				c-0.7-0.6-1.2-1.3-1.4-2.2c-0.3-0.9-0.3-2-0.2-3.3c0.1-1.2,0.5-2.6,0.8-3.9l3.4-15.3l2.4-11l15,0l2.4-10.7L479.2,40z"/>
			<path class="st1" d="M442.9,40.4C442.9,40.4,442.9,40.4,442.9,40.4c-4.3,0.9-8.1,3-11.2,6.1l1.4-6.5l-12.6,0l-12.7,56.6l12.6,0
				L422,89l2.7-11.9l2.4-9.4c2.4-10.2,11.6-17.4,22.1-17.2l3.6,0.1l2.5-10.7C455,39.8,447.1,39.4,442.9,40.4z"/>
		</g>
	</g>
	<g>
		<g class="st2">
			<g class="st2">
				<g>
					
						<linearGradient id="SVGID_1_" gradientUnits="userSpaceOnUse" x1="8.8179" y1="55.2022" x2="84.5412" y2="55.2022" gradientTransform="matrix(1 2.691543e-03 -2.691543e-03 1 8.59 -3.2351)">
						<stop  offset="0" style="stop-color:#B5905F"/>
						<stop  offset="0.2784" style="stop-color:#8E6A43"/>
						<stop  offset="0.3873" style="stop-color:#B28757"/>
						<stop  offset="0.5449" style="stop-color:#E5B377"/>
						<stop  offset="0.6275" style="stop-color:#FBC584"/>
						<stop  offset="0.7249" style="stop-color:#E2AF74"/>
						<stop  offset="0.9182" style="stop-color:#A77E51"/>
						<stop  offset="1" style="stop-color:#8E6A43"/>
					</linearGradient>
					<path class="st3" d="M72.7,22.1c0.7,1-1.3,0.8-1.3,0.8c0,0-2.3-2.8-1.8-3c0.1,0,0.2,0,0.3,0.1l0.6,0.4
						C72.1,21.2,72.6,21.9,72.7,22.1 M67.3,19.5c0.2-0.5-0.6-1.1-1.9-1.7c-0.5-0.2-0.8-0.2-0.9-0.2c-1.2,0.1,0.5,1.9,1.3,2.6
						C65.8,20.2,67.1,20,67.3,19.5 M60.7,18.1c0.4-0.3,1.6-1.2-1.3-2.3c-0.6-0.1-1.3,0-1.7,0.1c-2.1,0.7,1.6,2.8,1.7,2.9
						C59.7,18.7,60.3,18.5,60.7,18.1 M52.1,19c3-2.6,0.8-3.3-0.4-3.6c-1.4-0.4-1.6-0.5-2.8,0.3C46.5,17.1,49.9,18.5,52.1,19
						C52,19.1,52.1,19,52.1,19 M43.8,21.6c0,0,0.1,0,0.1,0c1.6-3.3-0.4-3.9-1.1-4.1c-1.8-0.4-4-0.4-4.4-0.1
						C36.3,19.4,37.5,21.5,43.8,21.6 M36.5,27C36.5,26.9,36.6,26.9,36.5,27c-0.1-3.1-1.9-3.8-2.5-4.1c-2.6-0.8-7,0.9-7,1
						C26.4,24.9,27,29.6,36.5,27 M31.6,35.1C31.7,35.1,31.7,35.1,31.6,35.1c-1.1-2.1-2.7-2.8-3.4-3.2c-3.8-1.3-8,2.2-9.2,3.3
						C21,39.2,25.8,39.1,31.6,35.1 M30.4,45.3C30.4,45.3,30.4,45.2,30.4,45.3c-0.9-0.8-1.6-1.1-2.1-1.4c-7.4-3.1-11,5.6-11,5.7
						C23.3,53.9,28.5,48,30.4,45.3 M33,55.9c0.1-0.3,0.1-0.4,0.2-0.5c-0.2-0.1-0.3-0.1-0.4-0.2C31.6,54.9,28,54,25.3,56
						c-3.2,2.4-3.8,7.4-3.7,7.6C24.6,64.3,30,64.4,33,55.9 M37.6,69.7c0.9-1.9,1.2-4.1,1.3-5.4c-0.1,0-0.2,0-0.2,0
						c-1.8-0.1-5.1,0.2-7.3,2.8c-2.2,2.6-2,7.8-1.8,8C31.7,74.9,35.6,74.1,37.6,69.7 M45.3,78.7c1.6-2.4,1.8-5.7,1.3-8
						C44.3,71.3,37,73.5,39,83c0,0,0,0,0.1,0C39.7,82.8,43.4,81.6,45.3,78.7 M54.5,84.1c3.3-3.7,1.7-8.1,1.1-9.4
						c-4.5,2.2-8.4,6.7-6,12.9C49.8,87.6,52.7,86.2,54.5,84.1 M64.6,86.9c4.9-5,2.1-9.4,0.8-11c-1.9,1.6-7.8,7.4-3.5,13.2
						C62.1,89.1,63.6,87.9,64.6,86.9 M74.4,86.9c1.9-2.1,5.8-7.3,1.8-11.7c-0.3-0.3-0.7-0.7-1.3-1.1C74.4,74.3,68.9,83.3,74.4,86.9
						 M85,79.9C85,79.9,85,79.9,85,79.9c0.5-1,2.7-6.2,0.7-9.3c-0.4-0.5-1.3-1.6-3.1-1.9C80.1,78.6,83.4,79.8,85,79.9 M91.7,68.3
						c0,0,0.5-4.1-0.8-6.7c-1-1.8-2.8-1.3-3.5-1c0.1,0.9,0.4,5.5,1.5,7.4C89.6,69.3,90.8,69.2,91.7,68.3 M93,54.6
						c0,0-0.3-1.8-1.4-3.9c-0.4-0.7-1.4-2.4-3.1,0.4c0.2,0.6,1.5,3.9,2.5,5.1C92.1,57.5,92.8,56.3,93,54.6 M89.5,41.4
						c0,0-0.2-0.3-0.7-1.1c-0.3-0.4-1.1-1.6-1.5-1.5c-0.7,0.1-0.7,2.9-0.7,2.9c0,0,1.9,2.7,2.8,3.1C90.4,45.3,90.2,43.4,89.5,41.4
						 M83.4,31.4c-0.1-0.2-0.3-0.5-0.5-0.7c-0.2-0.3-1.1-1.1-1.4-0.9c-0.4,0.2,0.7,3.7,0.8,3.7c0,0.1,1.5,1.3,2.2,1.4
						C85.6,35.2,84.5,33,83.4,31.4 M78,26c-0.3-0.4-1.1-1.2-2.3-2.2c-0.1-0.1-0.5-0.3-0.6-0.3c-0.3,0.2,1.7,3.6,1.7,3.6
						c0,0,0.8,0.3,1.3,0.4C79.2,27.7,78.7,26.8,78,26"/>
					<path class="st1" d="M70.8,25.2c-0.4,1.5-2.9,1.8-3.1,1.9c-2.3-3.5-1.9-5.9,1.1-5.9C69.7,22.1,71.1,23.9,70.8,25.2"/>
					<path class="st1" d="M65.2,23.7c-0.4,0.9-1.5,1.6-2.3,2c-3.3-3.1-3.4-5.8-0.1-6.6C63.7,19.6,66.3,21.7,65.2,23.7"/>
					<path class="st1" d="M58.9,24.4c-0.3,0.4-0.6,0.8-0.9,1.1c-0.4-0.2-3.5-1.9-4.1-4c-0.5-1.7,1.5-3.1,2-3.2c0,0,0.1,0,0.1,0
						C58.5,19.4,61,21.3,58.9,24.4"/>
					<path class="st1" d="M53,26.8c-1.6-0.4-4.6-1.5-5.8-3.1c-1.5-2.1,0.5-4.3,0.5-4.3c0,0,1,0,3,0.8C53.8,21.6,54.6,23.8,53,26.8
						C53,26.9,53,26.9,53,26.8"/>
					<path class="st1" d="M48.6,29.8c-9.6,0.4-9.8-5.5-9.2-6.5c0,0,3.1-0.6,6.1,0.5C49.1,25.4,48.6,29.8,48.6,29.8"/>
					<path class="st1" d="M45.3,34.2c-6.4,2.3-11.4,0.7-12.7-4c0.1-0.2,5.1-2.4,8.7-0.9C43.3,30.3,44.6,31.9,45.3,34.2
						C45.4,34.2,45.4,34.2,45.3,34.2"/>
					<path class="st1" d="M43.9,39.9c-5.6,4.4-11.2,4.3-14.8-0.1c1.7-1.7,6.2-5.3,11-3C40.9,37.1,42.5,38,43.9,39.9
						C43.9,39.9,43.9,39.9,43.9,39.9"/>
					<path class="st1" d="M44.4,46.1c-1.4,2.2-6.7,9-14.7,4.5c0-0.1,4.2-10.2,13.7-5.2C43.7,45.6,44.1,45.8,44.4,46.1
						C44.5,46.1,44.4,46.1,44.4,46.1"/>
					<path class="st1" d="M46.3,54.2c-3,6.7-8.3,7.1-12.2,6.3c-0.1-0.1,1.3-11.3,12.1-8.8c0.1,0,0.5,0.1,0.9,0.2
						C46.8,52.9,46.5,53.7,46.3,54.2"/>
					<path class="st1" d="M50,63.3c-2.1,4.2-6.5,5.2-9,5.4c-0.2-0.2-0.4-5.5,2.1-8.5c2.3-2.8,6.1-3.2,7.7-3.3c0.3,0,0.4,0,0.5,0
						C51.4,59.1,50.9,61.5,50,63.3"/>
					<path class="st1" d="M56,69.6c-1.9,2.8-5.3,4.2-6.3,4.5c0,0,0,0-0.1,0c-3-10,4.8-13.1,7.3-13.9C57.7,62.9,57.9,66.8,56,69.6"/>
					<path class="st1" d="M63.4,73c-1.5,2.2-4,4-4.2,3.9c-4-6.6-0.7-12.1,3.7-15.1C63.8,63.3,66.6,68.3,63.4,73"/>
					<path class="st1" d="M70.8,74.9c-0.3,0.4-0.8,1.1-1.4,1.8c-0.5,0-7.4-6.2-0.4-15.3C71,63.3,75.3,68.1,70.8,74.9"/>
					<path class="st1" d="M78.5,73.3c-2.3-1-7.3-4.3-4.1-14.1c0,0,0.1,0,0.1,0c1.3,0.6,2.2,1.3,2.8,1.8
						C81.2,64.8,80.1,69.8,78.5,73.3C78.5,73.3,78.5,73.3,78.5,73.3"/>
					<path class="st1" d="M85.3,66.4c-3.2,0.3-7-2.4-7.1-11.4c1.3,0.1,3.2,0.5,4.9,2.2C86,60.1,85.5,65.4,85.3,66.4
						C85.4,66.4,85.3,66.4,85.3,66.4"/>
					<path class="st1" d="M88.7,57.1c-2.4,2.1-5.9,0.6-8.4-7.3c0.8-0.3,3.6-1.2,5.7,1.1C87.7,53,88.5,55.7,88.7,57.1
						C88.7,57.1,88.7,57.1,88.7,57.1"/>
					<path class="st1" d="M88.4,47.2c-0.7,2.7-3.4,4.1-8.1-3.1c1.9-2.2,3.9-2.3,5.9-0.1C87.9,45.9,88.4,47.2,88.4,47.2"/>
					<path class="st1" d="M85.1,37.9c0.1,0.6,0.9,6.1-4.4,2.3c-0.7-0.5-2.1-1.6-2-1.7c0,0,0.7-3,2.4-3.1c0.4,0,1.7,0.1,3.7,2.1
						C85.1,37.8,85.1,37.8,85.1,37.9"/>
					<path class="st1" d="M80.6,31.8c1.3,4.9-3.9,2.3-4.9,1.8c-0.2-1.6-0.3-6.4,4.3-3.4C80.4,30.9,80.6,31.6,80.6,31.8"/>
					<path class="st1" d="M75.9,28.2c0.1,2.2-3,1.7-4,1.5c-1.2-3.2-0.9-6,2.4-5.1C75.1,25.6,75.9,27.1,75.9,28.2"/>
					<path class="st1" d="M68.3,19.1C68.2,19.1,68,19,67.9,19c-0.2-0.1-0.5-0.3-0.8-0.4l0.1,0.1L68.3,19.1
						C68.3,19.1,68.3,19.1,68.3,19.1"/>
					<path class="st1" d="M63.8,17.1c-0.3-0.1-0.6-0.1-1.2-0.2c0,0-0.1,0-0.1,0c0,0-0.8-0.4-0.9-0.5c0,0,0,0,0,0l0.6,0.2
						C62.7,16.7,63.4,17,63.8,17.1C63.8,17.1,63.8,17.1,63.8,17.1"/>
					<path class="st1" d="M56.1,15.4c-0.3,0-0.5,0.1-0.8,0.1c-0.1,0-0.2,0.1-0.2,0c0,0-1.5-0.5-1.5-0.8c0.2-0.2,1-0.1,1.6,0l1.2,0.2
						l1.5,0.3C57.3,15.3,56.7,15.4,56.1,15.4"/>
					<path class="st1" d="M44.7,16.3c-0.4,0-4-0.4-3.2-1.2c0,0,1.5-1.2,4.9-0.8c0.9,0.1,1.1,0.3,0.5,0.8
						C46.8,15.1,44.9,16.3,44.7,16.3"/>
					<path class="st1" d="M33.4,20.6c-1.7,0.3-7.2,1.2-5.6-1.1c0.4-0.6,1.1-1.1,1.2-1.2c0.4-0.1,2.7-0.9,4.4-0.7
						C35.4,17.9,33.4,20.6,33.4,20.6C33.4,20.6,33.4,20.6,33.4,20.6"/>
					<path class="st1" d="M23.9,29.4c-9.2,5-8.9,0.4-8.6-0.3c0.1-0.2,4.2-3.3,6.6-2.8C24,26.8,24,29.3,23.9,29.4"/>
					<path class="st1" d="M19.2,42c-6.7,7.7-9.8,4.4-10.6,3.2c0.6-1.1,3.9-6.6,7.9-5.5C17,40,18.2,40.5,19.2,42
						C19.2,42,19.2,42,19.2,42"/>
					<path class="st1" d="M20.6,55.8c-1.4,3.7-4.5,9.4-9.7,6.7c0-0.1,1-10.5,8.9-7.2C19.9,55.4,20.3,55.5,20.6,55.8
						C20.6,55.7,20.6,55.7,20.6,55.8"/>
					<path class="st1" d="M26.3,70.2c-1.1,5.1-3.5,7.5-7.2,7.1c-0.4-0.5-1.5-10.8,7.1-9.3c0.1,0,0.2,0,0.4,0.1
						C26.6,68.6,26.5,69.5,26.3,70.2"/>
					<path class="st1" d="M35.9,82.4c-1.5,3.3-4.7,4.3-5.6,4.6c0,0-1.1-4.3,0.9-7.6c0.9-1.6,3.3-2.9,5.7-3.1
						C36.9,77,37.1,79.9,35.9,82.4"/>
					<path class="st1" d="M45.2,88.6c-1.8,2.3-4.9,3.4-5.8,3.6c-0.3-0.8-1-8.4,7.5-10.5C47.3,84.3,46.6,86.8,45.2,88.6"/>
					<path class="st1" d="M53.9,94.6c-1.9,1.4-4.3,2.4-4.5,2.3c-1-3.6,1.7-7.7,6.9-10.2C56.9,88.1,57.9,91.6,53.9,94.6"/>
					<path class="st1" d="M65.2,95.8c-0.2,0.2-1,0.7-1.9,1.2c-1.7-2.5,0.2-6.5,5.3-10.6C69.5,87.5,71.8,91.2,65.2,95.8"/>
					<path class="st1" d="M77.3,92.5c-1.5-0.7-2.3-3.1,2.6-10.4c0.8,0.4,1.1,1,1.3,1.3C82.9,86.7,78.7,91.2,77.3,92.5
						C77.4,92.5,77.4,92.5,77.3,92.5"/>
					<path class="st1" d="M88.4,81.9c-0.5,0.3-2.1,1-1-4.8c0.3-1.5,0.8-3.5,0.9-4.1c1-0.2,1.6,0.2,1.9,1.2
						C90.9,76.8,88.5,81.9,88.4,81.9"/>
					<path class="st1" d="M93.8,65.9c-0.1,1.1-0.4,1.7-0.6,1.4c-0.5-0.5-0.8-6.5-0.8-6.6c0-0.1,0.7-1,1-1c0.1,0,0.3,0,0.4,0.8
						C94.1,62.6,93.9,65.1,93.8,65.9"/>
					<path class="st1" d="M93,51.2c0.1,0.5,0.1,0.5,0.1,0.6c0,0,0,0,0,0c-0.3-0.3-1.7-4.1-1.7-4.1c0,0-0.1-2.2-0.1-2.4
						c0,0,0.1,0,0.3,0.5l0.4,1.2C92.3,48.3,92.7,49.9,93,51.2C93,51.1,93,51.2,93,51.2"/>
					<path class="st1" d="M80.6,28.1c-0.1,0-0.9-0.6-0.9-0.7c-0.8-1-1.3-1.4-1.8-1.8C78.7,26.3,79.8,27.3,80.6,28.1
						C80.6,28.1,80.6,28.1,80.6,28.1"/>
					<path class="st1" d="M38.3,16.3c-2.5,0.2-3.8,0.2-4-0.1c0.2-0.6,3.6-1.4,5.8-1.6c0.4,0,0.4,0,0.5,0.1
						C40.5,15.1,38.6,16.3,38.3,16.3"/>
					<path class="st1" d="M25.7,22.9c-3.3,1.4-7.1,2.6-6.4,0.9c0.8-1.9,5.3-3.3,6-3.3C26.8,20.7,25.7,22.9,25.7,22.9"/>
					<path class="st1" d="M16.8,34.7c-8.6,8-8.7,2.9-8.7,2.8c0-0.1,3.8-5.4,6.6-5C15.2,32.7,16.2,33,16.8,34.7
						C16.8,34.6,16.8,34.7,16.8,34.7"/>
					<path class="st1" d="M14.6,49.8c-3.7,7.8-6.9,7.7-8.9,6.3c0-0.1,1.6-9.1,7.3-7.3C13.3,48.9,13.9,49.2,14.6,49.8
						C14.6,49.7,14.6,49.7,14.6,49.8"/>
					<path class="st1" d="M19.1,64.8c-0.9,6.3-3.1,9.2-6.7,8.5c-0.3-0.5-1.4-11,6.3-9.1c0.1,0,0.2,0.1,0.4,0.1
						C19.2,64.5,19.1,64.7,19.1,64.8"/>
					<path class="st1" d="M27.2,81.3c-0.9,4.1-3.5,5-4.5,5.2c-0.4-0.4-3-10.1,4.8-10.1C27.6,77.6,27.6,79.5,27.2,81.3"/>
					<path class="st1" d="M36.7,91.5c-1.4,2.1-3.8,3.1-4.3,3.3c-0.4-0.9-1.5-7.9,5.5-9.6C38.3,87.4,37.8,89.8,36.7,91.5"/>
					<path class="st1" d="M45.7,96.3c-1.1,0.8-2.7,1.7-4.4,2.2c-0.3-0.4-0.7-5.9,6.7-9C48.5,90.7,49,93.8,45.7,96.3"/>
					<path class="st1" d="M56.9,98.8c-1.3,0.7-2.6,1.2-3,1.4c-1.1-2.5,1.6-6,6.8-9C61.5,92.3,62.8,95.6,56.9,98.8"/>
					<path class="st1" d="M69.1,98.2c-1.2-0.9-1.4-3.3,4.8-9.4c0.4,0.3,0.6,0.6,0.7,0.8C76.6,93.3,70.3,97.4,69.1,98.2"/>
					<path class="st1" d="M82.9,90.4c-2.5,0.5,0.7-5.7,2.2-8.7c1.1,0.1,1.3,0.9,1.4,1.3C86.8,85.5,82.9,90.4,82.9,90.4"/>
					<path class="st1" d="M91.5,76.3c-0.1,0.3-0.1,0.3-0.2,0.3c-0.3-0.3,0.8-7,0.8-7.1c0,0,0.6-0.7,0.9-0.7c0.1,0,0.2,0.1,0.2,0.8
						c0,0.4-0.1,0.9-0.4,2.2c-0.4,1.3-0.8,3.1-1.3,4.4C91.5,76.2,91.5,76.2,91.5,76.3"/>
					<path class="st1" d="M94,59.3c0-0.2,0-0.5,0-0.5c-0.1-0.9-0.2-1.9-0.6-3.8c0-0.1,0-0.1,0-0.4c0-0.8,0-1.5-0.1-1.9l0.3,2
						C93.8,56.1,94,58,94,59.3C94,59.3,94,59.3,94,59.3"/>
					<g>
						<defs>
							<path id="SVGID_2_" d="M72,56.6c-0.8-0.3-2.8-1.2-4.6-3c0.4-1.2,1.5-4.8-2.2-9.7c0-0.2,0.1-0.4,0.2-0.7
								c0.1,0,0.6,0.2,0.9,0.4c2.1,6,5.1,7.2,6.2,7.6C72.6,52.2,72.8,54.2,72,56.6C72.1,56.6,72,56.6,72,56.6 M66.5,54.2
								c2.3-5.1-1.1-9.4-2.6-11.1c-0.2,0.2-0.4,0.4-0.5,0.5c1.1,5.9-1.8,8.4-2.7,9.3c1.4,3.8,3,5.2,3,5.2
								C64.8,57,65.8,55.6,66.5,54.2 M61.9,50.4c1.4-2.5,1.2-5.7,0.5-8c-0.3,0-0.6,0.1-0.8,0.1c-2,5.3-5.7,6.1-6.9,6.3
								C54.1,53,55,54.9,55,55C56.2,54.7,60.2,53.5,61.9,50.4 M60.8,43c0.2-0.4,0.5-1.1,0.6-1.9c-0.3-0.1-0.6-0.2-0.8-0.3
								c-4.5,3.3-8.1,2.1-9.3,1.8c-1.3,1.5-2.2,3.3-2.7,5.3C48.8,47.9,57.3,51,60.8,43 M61.2,39.6C61.2,39.6,61.2,39.6,61.2,39.6
								c-0.2-0.3-0.3-0.4-0.5-0.6c-5.8,0.4-8.2-2.1-9-2.9c-3.6,1.3-4.8,3-4.8,3C54,45.8,60.1,40.7,61.2,39.6 M61.7,38.3
								C61.8,38.3,61.8,38.3,61.7,38.3c0-0.3-0.1-0.5-0.2-0.7c-5.4-2.4-6.1-5.3-6.4-6.2c-3.6-0.6-5.4,0.2-5.4,0.2
								C51.3,37.5,56.9,39.2,61.7,38.3 M62.9,37.6C62.9,37.6,62.9,37.6,62.9,37.6c0.1-0.3,0.2-0.5,0.2-0.6c-3.6-4.3-2.9-6.7-2.6-7.6
								c-0.5-0.3-0.8-0.5-1.3-0.8c-2.3-1.2-3.3-1.2-3.3-1.2C54.4,31.6,57.1,35.6,62.9,37.6 M64.8,37.3c0,0,0.1-0.1,0.1-0.1
								c-1.2-4.9,0.7-6.4,1.4-7c-0.4-0.7-1.3-2.2-3-3.5c-4.6,3.2-1.7,8.4,1.2,10.9C64.5,37.5,64.6,37.4,64.8,37.3 M71,33.6
								c0.1,0,0.2,0,0.2,0c-0.1-0.7-0.2-2.3-1.3-4.2c-4.5,0.2-6.2,3.7-4.2,8.9c0.3,0,0.5-0.1,0.7-0.1C67.3,35.3,68.9,33.8,71,33.6
								 M75.4,37c0.1-0.6,0.1-1.3,0.1-1.9c-4.6-2.3-8-0.5-8.8,4.5c0.3,0.1,0.5,0.2,0.7,0.3c3.6-2.8,6.3-1.4,7.3-0.9
								C75,38.6,75.3,38,75.4,37 M77.6,50.8C77.6,50.8,77.6,50.8,77.6,50.8c-0.6-2.4-1.6-4.1-2.2-5c-0.9,0.2-3.6,0.8-8.1-3.7
								c-0.3,0-0.5,0-0.9,0.1C66.4,43.6,69.9,52.9,77.6,50.8 M78.6,42.8C78.6,42.8,78.6,42.8,78.6,42.8c-0.9-1.2-1.8-2-2.4-2.4
								c-1.2-0.9-5-3.8-9.3,0.6C72.1,47,76.6,46.2,78.6,42.8 M65.2,41c0.2-0.3,0.3-1-0.5-1.6c0,0-0.1,0-0.1-0.1
								c-0.9-0.5-1.8,0.2-1.5,1.2C63.4,41.5,64.7,41.8,65.2,41"/>
						</defs>
						<clipPath id="SVGID_3_">
							<use xlink:href="#SVGID_2_"  style="overflow:visible;"/>
						</clipPath>
						<g class="st4">
							
								<linearGradient id="SVGID_4_" gradientUnits="userSpaceOnUse" x1="32.3582" y1="61.1625" x2="69.8074" y2="30.3055" gradientTransform="matrix(1 2.691543e-03 -2.691543e-03 1 8.59 -3.2351)">
								<stop  offset="0" style="stop-color:#B5905F"/>
								<stop  offset="0.2784" style="stop-color:#8E6A43"/>
								<stop  offset="0.3873" style="stop-color:#B28757"/>
								<stop  offset="0.5449" style="stop-color:#E5B377"/>
								<stop  offset="0.6275" style="stop-color:#FBC584"/>
								<stop  offset="0.7249" style="stop-color:#E2AF74"/>
								<stop  offset="0.9182" style="stop-color:#A77E51"/>
								<stop  offset="1" style="stop-color:#8E6A43"/>
							</linearGradient>
							<polygon class="st5" points="42.7,63.9 83.4,64 83.5,15.5 42.8,15.4 							"/>
							<g>
								
									<linearGradient id="SVGID_5_" gradientUnits="userSpaceOnUse" x1="34.2693" y1="67.0283" x2="34.3733" y2="67.0283" gradientTransform="matrix(1 2.691543e-03 -2.691543e-03 1 8.59 -3.2351)">
									<stop  offset="0" style="stop-color:#FFE48C"/>
									<stop  offset="0.3011" style="stop-color:#9D4D16"/>
									<stop  offset="0.3423" style="stop-color:#B16522"/>
									<stop  offset="0.4417" style="stop-color:#E3A348"/>
									<stop  offset="0.4892" style="stop-color:#FABE5C"/>
									<stop  offset="0.5971" style="stop-color:#FEDDA7"/>
									<stop  offset="0.6559" style="stop-color:#FFECC9"/>
									<stop  offset="0.6781" style="stop-color:#EED2AD"/>
									<stop  offset="0.738" style="stop-color:#C6986F"/>
									<stop  offset="0.797" style="stop-color:#A86D44"/>
									<stop  offset="0.8538" style="stop-color:#925029"/>
									<stop  offset="0.9078" style="stop-color:#843D1A"/>
									<stop  offset="0.9578" style="stop-color:#7B3212"/>
									<stop  offset="1" style="stop-color:#782F0F"/>
								</linearGradient>
								<polygon class="st6" points="42.7,63.9 42.8,63.9 42.7,63.8 								"/>
							</g>
						</g>
					</g>
				</g>
			</g>
		</g>
	</g>
</g>
<g>
	<path class="st1" d="M287.6,155.9l5.6-26.1h3.9l-1.7,7.9c0.4-0.7,0.9-1.2,1.4-1.6c0.6-0.4,1.2-0.6,2-0.6c0.7,0,1.4,0.1,1.9,0.3
		c0.5,0.2,0.9,0.5,1.2,0.8c0.3,0.3,0.5,0.8,0.6,1.2c0.1,0.5,0.2,1,0.2,1.6c0,0.5,0,1-0.1,1.6c-0.1,0.5-0.2,1.1-0.3,1.7l-1.4,6.4
		c-0.2,1-0.5,1.9-0.8,2.8c-0.3,0.9-0.7,1.6-1.2,2.3c-0.5,0.6-1.1,1.2-1.8,1.5s-1.6,0.6-2.7,0.6c-0.8,0-1.4-0.2-1.8-0.6
		c-0.4-0.4-0.6-0.9-0.7-1.6l-0.4,1.9H287.6z M297.1,139.4c-0.5,0-0.9,0.1-1.2,0.3s-0.6,0.5-0.8,0.9c-0.2,0.4-0.4,0.8-0.5,1.2
		c-0.1,0.4-0.2,0.9-0.3,1.3l-1.2,5.7c-0.1,0.3-0.1,0.7-0.2,1c-0.1,0.3-0.1,0.7-0.1,1c0,0.2,0,0.5,0.1,0.7c0,0.2,0.1,0.4,0.2,0.5
		s0.3,0.3,0.5,0.4s0.4,0.1,0.7,0.1c0.5,0,0.9-0.1,1.2-0.3c0.3-0.2,0.6-0.4,0.8-0.7c0.2-0.3,0.4-0.6,0.5-1c0.1-0.4,0.2-0.8,0.3-1.2
		l1.4-6.6c0.1-0.3,0.1-0.6,0.2-0.9c0.1-0.3,0.1-0.6,0.1-0.8c0-0.2,0-0.4-0.1-0.6c0-0.2-0.1-0.3-0.3-0.5c-0.1-0.1-0.3-0.2-0.5-0.3
		C297.7,139.4,297.4,139.4,297.1,139.4z"/>
	<path class="st1" d="M309.4,135.9l-1,16.6h0l0.6-1.5c0.9-2.5,1.9-5,2.8-7.5s1.8-5,2.8-7.5h4.1c-0.9,2.3-1.8,4.6-2.7,6.9
		c-0.9,2.3-1.8,4.6-2.7,6.9l-2.6,6.7c-0.4,1-0.8,1.8-1.3,2.6c-0.5,0.8-1,1.5-1.6,2.1c-0.6,0.6-1.1,1.1-1.8,1.5
		c-0.6,0.4-1.2,0.8-1.9,1l-1.1-2.8c0.3-0.2,0.7-0.3,1-0.6c0.4-0.2,0.7-0.5,1-0.8c0.3-0.3,0.7-0.7,1-1.2s0.6-1.1,0.9-1.7l0.2-0.4
		h-2.5l0.8-20H309.4z"/>
</g>
<g>
	<g>
		<defs>
			<path id="SVGID_6_" d="M395.1,146.9h28.4c2.8,0,4.1,1.6,4.1,3.6c0,2-1.3,3.6-4.1,3.6h-28.4V146.9z M389.8,130.5v4.9h5.3h28.2
				c2.1,0,3.4,1.3,3.4,3.3c0,2-1.3,3.3-3.4,3.3h-28.2v0h-5.3V159h33c6.4,0,10.2-3,10.2-8c0-2.8-1.1-5.3-4.9-6.7
				c2.8-1.6,3.9-3.7,3.9-6.5c0-5.3-4.2-7.3-10.3-7.3H389.8z"/>
		</defs>
		<clipPath id="SVGID_7_">
			<use xlink:href="#SVGID_6_"  style="overflow:visible;"/>
		</clipPath>
		
			<linearGradient id="SVGID_8_" gradientUnits="userSpaceOnUse" x1="215.6572" y1="5147.0405" x2="216.0526" y2="5147.0405" gradientTransform="matrix(109.2858 0 0 109.2858 -23178.4961 -562353.625)">
			<stop  offset="0" style="stop-color:#292A5E"/>
			<stop  offset="1.610000e-02" style="stop-color:#282B5E"/>
			<stop  offset="0.4977" style="stop-color:#38774B"/>
			<stop  offset="0.8364" style="stop-color:#49AD3D"/>
			<stop  offset="1" style="stop-color:#5CB13C"/>
		</linearGradient>
		<rect x="389.8" y="130.5" class="st7" width="43.2" height="28.5"/>
	</g>
</g>
<linearGradient id="SVGID_9_" gradientUnits="userSpaceOnUse" x1="411.3737" y1="130.5316" x2="411.3737" y2="159.0408">
	<stop  offset="0" style="stop-color:#292A5E"/>
	<stop  offset="1.610000e-02" style="stop-color:#282B5E"/>
	<stop  offset="0.6653" style="stop-color:#38774B"/>
	<stop  offset="0.8364" style="stop-color:#49AD3D"/>
	<stop  offset="1" style="stop-color:#5CB13C"/>
</linearGradient>
<path class="st8" d="M395.1,146.9h28.4c2.8,0,4.1,1.6,4.1,3.6c0,2-1.3,3.6-4.1,3.6h-28.4V146.9z M389.8,130.5L389.8,130.5l0,4.9h5.3
	h28.2c2.1,0,3.4,1.3,3.4,3.3c0,2-1.3,3.3-3.4,3.3h-28.2v0h-5.3V159v0h33c6.4,0,10.2-3,10.2-8c0-2.8-1.1-5.3-4.9-6.7
	c2.8-1.6,3.9-3.7,3.9-6.5c0-5.3-4.2-7.3-10.3-7.3H389.8z"/>
<g>
	<g>
		<defs>
			<path id="SVGID_10_" d="M354.7,130.5c-9.8,0-14.9,5.1-14.9,14.3c0,9.1,5.1,14.3,14.9,14.3h29v-16.8h-7.5l2.1,3.6v8.1h-23.6
				c-5.8,0-9.3-2.5-9.3-9.2c0-6.7,3.5-9.2,9.3-9.2h29v-5.1H354.7z"/>
		</defs>
		<clipPath id="SVGID_11_">
			<use xlink:href="#SVGID_10_"  style="overflow:visible;"/>
		</clipPath>
		
			<linearGradient id="SVGID_12_" gradientUnits="userSpaceOnUse" x1="216.3713" y1="5147.0718" x2="216.7667" y2="5147.0718" gradientTransform="matrix(110.9976 0 0 110.9976 -23676.8262 -571167.875)">
			<stop  offset="0" style="stop-color:#292A5E"/>
			<stop  offset="1.610000e-02" style="stop-color:#282B5E"/>
			<stop  offset="0.4977" style="stop-color:#38774B"/>
			<stop  offset="0.8364" style="stop-color:#49AD3D"/>
			<stop  offset="1" style="stop-color:#5CB13C"/>
		</linearGradient>
		<rect x="339.9" y="130.5" class="st9" width="43.9" height="28.5"/>
	</g>
</g>
<linearGradient id="SVGID_13_" gradientUnits="userSpaceOnUse" x1="361.8185" y1="130.4674" x2="361.8185" y2="158.9767">
	<stop  offset="0" style="stop-color:#292A5E"/>
	<stop  offset="1.610000e-02" style="stop-color:#282B5E"/>
	<stop  offset="0.6653" style="stop-color:#38774B"/>
	<stop  offset="0.8364" style="stop-color:#49AD3D"/>
	<stop  offset="1" style="stop-color:#5CB13C"/>
</linearGradient>
<path class="st10" d="M354.7,130.5c-9.8,0-14.9,5.1-14.9,14.3c0,9.1,5.1,14.3,14.9,14.3h29h0v-16.8h-7.5l2.1,3.6v8.1h-23.6
	c-5.8,0-9.3-2.5-9.3-9.2c0-6.7,3.5-9.2,9.3-9.2h29v-5.1L354.7,130.5L354.7,130.5z"/>
<g>
	<g>
		<defs>
			<polygon id="SVGID_14_" points="483.6,130.6 480.4,130.6 479.8,130.6 461.2,154.3 443,130.6 442.1,130.6 439,130.6 436.8,130.6 
				439,133.6 439,159.1 444.4,159.1 444.4,140.8 458.1,159.1 464.4,159.1 478.2,140.7 478.2,159.1 483.6,159.1 483.6,133.6 
				485.8,130.6 			"/>
		</defs>
		<clipPath id="SVGID_15_">
			<use xlink:href="#SVGID_14_"  style="overflow:visible;"/>
		</clipPath>
		
			<linearGradient id="SVGID_16_" gradientUnits="userSpaceOnUse" x1="215.2825" y1="5147.271" x2="215.6779" y2="5147.271" gradientTransform="matrix(123.9413 0 0 123.9413 -26245.5645 -637814.625)">
			<stop  offset="0" style="stop-color:#292A5E"/>
			<stop  offset="1.610000e-02" style="stop-color:#282B5E"/>
			<stop  offset="0.4977" style="stop-color:#38774B"/>
			<stop  offset="0.8364" style="stop-color:#49AD3D"/>
			<stop  offset="1" style="stop-color:#5CB13C"/>
		</linearGradient>
		<rect x="436.8" y="130.6" class="st11" width="49" height="28.5"/>
	</g>
</g>
<linearGradient id="SVGID_17_" gradientUnits="userSpaceOnUse" x1="461.331" y1="130.6139" x2="461.331" y2="159.1231">
	<stop  offset="0" style="stop-color:#292A5E"/>
	<stop  offset="1.610000e-02" style="stop-color:#282B5E"/>
	<stop  offset="0.6653" style="stop-color:#38774B"/>
	<stop  offset="0.8364" style="stop-color:#49AD3D"/>
	<stop  offset="1" style="stop-color:#5CB13C"/>
</linearGradient>
<polygon class="st12" points="483.6,130.6 480.4,130.6 479.8,130.6 461.2,154.3 443,130.6 442.1,130.6 439,130.6 436.8,130.6 
	439,133.6 439,159.1 444.4,159.1 444.4,140.8 458.1,159.1 464.4,159.1 478.2,140.7 478.2,159.1 483.6,159.1 483.6,133.6 
	485.8,130.6 "/>
</svg>
