<svg width="210" height="210" viewBox="0 0 210 210" fill="none" xmlns="http://www.w3.org/2000/svg">
<path d="M104.7 209C162.138 209 208.7 162.438 208.7 105C208.7 47.5624 162.138 1 104.7 1C47.2626 1 0.700195 47.5624 0.700195 105C0.700195 162.438 47.2626 209 104.7 209Z" fill="white"/>
<g opacity="0.88">
<path d="M108.7 168.7C106 168.7 103.7 168.7 101.4 168.7C101.2 168.5 100.8 168.2 100.9 168C102.2 159.6 98.4004 154.4 92.2004 148.6C73.7004 131.4 78.0004 99.8002 99.6004 87.0002C103.2 84.9002 106.2 84.9002 109.7 87.1002C132.9 101 135.3 135.3 113.8 151.8C109.5 155.1 107.9 158.2 108.5 163.2C108.8 164.9 108.7 166.7 108.7 168.7ZM108.7 145.6C119.3 137.2 123.7 122.2 118.7 112.5C116.4 114.9 114.2 117 112.1 119.4C110.8 121 109 122.8 108.9 124.6C108.4 131.3 108.7 138 108.7 145.6ZM100.6 96.2002C95.2004 100.4 92.1004 105.1 90.4004 110.7C90.2004 111.5 90.3004 112.8 90.8004 113.3C93.8004 116.4 96.9004 119.4 100.6 123.1C100.6 113.7 100.6 105.5 100.6 96.2002ZM88.8004 123.9C89.8004 132.6 93.1004 139.7 100.1 145.3C101.8 134.9 99.5004 130.5 88.8004 123.9ZM115.7 103.2C113.8 101.2 111.7 98.8002 108.9 95.7002C108.9 101.4 108.9 105.7 108.9 110.2C111.1 108 113.1 106 115.7 103.2Z" fill="#04654D"/>
<path d="M92.7004 69.2C85.0004 69.2 77.1004 68.2 73.7004 77C71.5004 82.5 73.5004 87 77.9004 91.2C76.6004 93.2 75.3004 95.2 73.9004 97.2C67.4004 93.6 63.9004 86.1 65.0004 78.6C66.3004 69.2 72.6004 63.4 84.4004 60.9C87.1004 48 94.3004 41.3 105 41.4C115.5 41.6 122.8 48.7 124.8 61C135 62.3 142.4 67.6 144.2 78.3C145.6 86.1 142.4 92.5 135.8 97.7C134.3 95.6 133 93.7 131.7 91.9C140.8 76.8 136.6 70.1 116.5 69.1C116.5 66.6 116.6 64 116.5 61.5C116.2 54.5 111.1 49.4 104.5 49.5C97.9004 49.5 92.9004 54.6 92.7004 61.7C92.7004 63.9 92.7004 66.2 92.7004 69.2Z" fill="#04654D"/>
<path d="M144.6 112.8C144.6 110.2 144.6 108 144.6 105.5C152.3 105.5 160 105.5 168.1 105.5C168.1 107.7 168.1 110.1 168.1 112.8C160.4 112.8 152.7 112.8 144.6 112.8Z" fill="#04654D"/>
<path d="M41.2002 144.7C41.2002 142 41.2002 139.8 41.2002 137.3C42.0002 137.2 42.7002 137 43.3002 137C50.2002 137 57.2002 137 64.5002 137C64.5002 139.6 64.5002 141.9 64.5002 144.6C56.9002 144.7 49.2002 144.7 41.2002 144.7Z" fill="#04654D"/>
<path d="M57 128.7C57 126.2 57 123.9 57 121.4C62.2 121.4 67.2 121.4 72.5 121.4C72.5 123.8 72.5 126.1 72.5 128.7C67.6 128.7 62.6 128.7 57 128.7Z" fill="#04654D"/>
<path d="M168.2 121.4C168.2 123.9 168.2 126.1 168.2 128.7C163.2 128.7 158.2 128.7 152.8 128.7C152.8 126.4 152.8 124 152.8 121.4C157.9 121.4 163 121.4 168.2 121.4Z" fill="#04654D"/>
<path d="M48.7003 121.4C48.7003 123.9 48.7003 126.1 48.7003 128.7C46.4003 128.7 44.0003 128.7 41.3003 128.7C41.3003 126.4 41.3003 124 41.3003 121.4C43.7003 121.4 46.0003 121.4 48.7003 121.4Z" fill="#04654D"/>
<path d="M144.3 128.8C143.5 128.9 142.8 129 142.2 129C140.6 129 138.9 129 136.9 129C136.9 126.4 136.9 124 136.9 121.3C139.2 121.3 141.6 121.3 144.3 121.3C144.3 123.8 144.3 126 144.3 128.8Z" fill="#04654D"/>
</g>
</svg>
