<svg width="210" height="210" viewBox="0 0 210 210" fill="none" xmlns="http://www.w3.org/2000/svg">
<path d="M104.7 209C162.138 209 208.7 162.438 208.7 105C208.7 47.5624 162.138 1 104.7 1C47.2626 1 0.700195 47.5624 0.700195 105C0.700195 162.438 47.2626 209 104.7 209Z" fill="white"/>
<path d="M90.1998 168.9C90.1998 165.2 90.1998 161.9 90.1998 158.2C72.0998 155.9 64.3998 139.7 53.2998 131.7C61.4998 121.8 69.6998 112 77.7998 102.2C78.3998 102.6 78.8998 103 79.4998 103.5C78.2998 102.5 77.0998 101.5 75.8998 100.4C62.6998 89.0002 61.2998 69.2001 72.5998 55.9002C83.7998 42.8001 103.4 41.1001 116.7 52.1001C118.8 53.8001 121.1 55.3001 123.6 56.4002C143.8 65.4002 156.1 85.8001 154.3 108.1C147.5 108.1 140.6 108.1 133.7 108.1C126.7 108.1 119.8 108.1 112 108.1C113.3 109.8 114.1 111 115 112.3C126.4 127.8 119.9 149.7 101.9 156.4C99.9998 157.1 96.5998 156.9 97.6998 160.2C97.9998 161.3 101 161.5 102.8 162C103.7 162.3 104.7 162.2 106 162.3C106 164.5 106 166.5 106 168.9C101 168.9 95.8998 168.9 90.1998 168.9ZM120.8 76.5001C120.9 62.9001 110.1 52.1001 96.4998 52.1001C82.9998 52.1001 71.9998 63.2001 72.0998 76.5001C72.1998 89.7001 82.9998 100.5 96.2998 100.7C109.7 101 120.7 90.0001 120.8 76.5001ZM75.1998 142.4C82.1998 149.8 89.7998 152.3 98.8998 149.5C106.9 147 112.9 139.4 113.4 130.7C113.8 123.2 111 117 104.7 112.2C100.9 132.5 93.7998 139.9 75.1998 142.4ZM63.0998 130.7C69.2998 135.4 76.8998 136.3 84.8998 132.6C92.5998 129.1 97.3998 120.6 96.9998 112.6C96.7998 109.1 95.1998 107.3 91.8998 108.1C87.8998 109.1 83.0998 109.6 80.2998 112.1C73.9998 117.6 68.7998 124.3 63.0998 130.7ZM126.8 66.9002C130.5 80.3001 126.4 91.0001 117.6 100.6C128 101.3 128.4 101.3 131.5 93.5001C133.2 89.2001 134.1 84.5001 135 79.9002C136.2 73.8001 133.2 69.8001 126.8 66.9002ZM147.9 100.6C146.2 94.4001 144.7 89.2001 142.8 82.7001C140.5 89.6001 138.8 95.0001 136.9 100.6C140.4 100.6 143.5 100.6 147.9 100.6Z" fill="#04654D"/>
</svg>
