<svg width="209" height="208" viewBox="0 0 209 208" fill="none" xmlns="http://www.w3.org/2000/svg">
<path d="M104.7 208C162.138 208 208.7 161.438 208.7 104C208.7 46.5624 162.138 0 104.7 0C47.2626 0 0.700195 46.5624 0.700195 104C0.700195 161.438 47.2626 208 104.7 208Z" fill="white"/>
<path d="M133.1 100C135 91.7002 136.8 83.2002 139.1 74.8002C140.1 71.1002 141.8 67.6002 143.7 64.2002C152.3 49.2002 166.5 48.9002 174.8 64.0002C183.6 79.9002 185.9 97.4002 185 115.3C184.8 120.4 182.1 123.6 176.9 124.5C173.9 125 170.9 125.4 167.3 126C167.3 136 167.3 146 167.3 156.5C165.2 156.7 163.7 157 162.1 157C152.7 157 143.3 157.2 133.8 156.9C125.7 156.7 121.4 153.8 120.5 148.7C119.3 142.4 122.9 136.1 129.5 133C136.7 129.6 143.7 130.7 150.9 134.8C150.9 131.6 150.9 128.9 150.9 126.1C144.3 124 135.1 126.8 133.4 115.1C131.1 126 122.7 124.6 115 126C115 136.1 115 146.2 115 156.6C109.6 156.6 104.8 156.6 99.4001 156.6C99.4001 146.3 99.4001 136.3 99.4001 126.1C91.9001 124.3 82.9001 126.3 80.9001 115.2C79.0001 126 70.7001 124.4 63.2001 125.8C63.2001 135.8 63.2001 146 63.2001 156.5C57.6001 156.5 52.8001 156.5 47.4001 156.5C47.4001 146.3 47.4001 136.3 47.4001 126C45.7001 125.7 44.6001 125.4 43.4001 125.3C31.2001 124.2 28.9001 121.9 29.0001 109.8C29.2001 95.5002 31.3001 81.5002 37.2001 68.3002C38.2001 66.1002 39.3001 63.9002 40.7001 61.9002C49.0001 49.8002 61.3001 49.7002 69.3001 62.0002C76.7001 73.3002 78.8001 86.4002 80.7001 100.8C82.3001 93.4002 83.1001 86.9002 85.0001 80.8002C87.0001 74.5002 89.1001 67.9002 92.6001 62.3002C100.4 49.5002 114 49.2002 121.2 62.3002C126.1 71.2002 128.2 81.6002 131.4 91.4002C132.6 94.3002 132.7 97.4002 133.1 100ZM110.5 120.8C115.1 120.3 119.6 120.2 123.8 119.2C125.4 118.8 127.7 116.5 127.8 115C128.5 98.4002 126.5 82.1002 118.7 67.1002C116.3 62.5002 113.2 58.2002 107.3 58.2002C101.4 58.2002 98.4001 62.6002 96.0001 67.2002C88.3001 82.0002 86.3001 98.1002 86.9001 114.5C87.0001 116.2 89.3001 118.8 91.0001 119.2C95.4001 120.2 99.9001 120.2 104.4 120.6C104.7 119.9 105.1 119.2 105.4 118.5C103.1 116.3 101 113.9 98.4001 112.1C95.0001 109.6 95.7001 107.9 98.7001 106C100.6 107.2 102.3 108.2 104.2 109.4C105.1 101.7 106.1 94.7002 97.9001 90.6002C97.0001 90.1002 97.3001 87.3002 97.0001 85.5002C99.5001 85.7002 100.3 86.3002 101.2 86.8002C102.2 87.3002 103.2 87.8002 104.3 88.4002C105.3 74.0002 105.3 74.0002 109.8 75.0002C109.8 82.7002 109.8 90.6002 109.8 98.6002C113 98.7002 116.4 92.3002 118.6 99.9002C109.3 103.4 108.6 111 110.5 120.8ZM162.5 120.1C166 120.1 169.3 120.1 172.5 120.1C178.4 120 181 116.8 180.2 111.1C178.4 98.9002 176.5 86.7002 174 74.7002C173.2 70.7002 170.7 66.8002 168.1 63.5002C162.7 56.3002 155.9 56.3002 150.5 63.4002C148.2 66.4002 146 69.9002 145.1 73.5002C142.6 83.9002 140 94.4002 139 105C137.6 119.9 139.4 121.2 154.6 120.5C155.2 120.5 155.7 120.2 158.2 119.5C154.4 115.7 151.2 112.5 147.9 109.2C148.7 108.1 149.6 107.1 150.4 105.9C152.4 107 154.2 108.1 156.5 109.4C156.9 101.8 158.5 94.9002 150.2 90.9002C146.3 89.1002 148.2 86.9002 150.7 85.2002C152.5 86.3002 154.1 87.2002 156.7 88.8002C156.7 84.8002 156.4 81.6002 156.8 78.4002C157 76.8002 158.4 75.4002 159.2 73.9002C160.1 75.3002 161.7 76.7002 161.8 78.2002C162.1 84.9002 161.9 91.7002 161.9 98.9002C165.5 97.7002 168.6 92.9002 170.7 99.8002C161.4 103.5 160.9 111.2 162.5 120.1ZM52.1001 109.4C53.1001 101.5 54.0001 94.5002 45.8001 90.4002C45.0001 90.0002 45.4001 87.1002 45.2001 84.2002C48.5001 86.2002 50.2001 87.3002 52.6001 88.7002C52.6001 84.2002 52.4001 80.5002 52.7001 77.0002C52.8001 75.9002 54.3001 74.9002 55.2001 73.9002C56.1001 75.0002 57.4001 75.9002 57.7001 77.1002C58.1001 78.6002 57.8001 80.3002 57.8001 81.9002C57.8001 87.4002 57.8001 92.9002 57.8001 99.1002C64.1001 95.2002 64.1001 95.2002 66.7001 99.8002C57.0001 103.8 56.4001 111.3 58.7001 120.7C63.1001 120.2 67.4001 120.1 71.5001 119.1C73.1001 118.7 75.4001 116.5 75.5001 115C76.4001 97.7002 74.5001 80.8002 65.7001 65.6002C59.8001 55.5002 51.0001 55.4002 45.0001 65.6002C36.1001 80.8002 34.2001 97.7002 35.0001 115C35.1001 116.5 36.9001 118.9 38.2001 119.2C42.8001 120.1 47.5001 120.3 52.2001 120.8C52.6001 120.1 52.9001 119.3 53.3001 118.6C51.0001 116.4 49.0001 113.9 46.5001 112.2C42.8001 109.6 43.8001 108 46.8001 106.1C48.5001 107.1 50.0001 108.1 52.1001 109.4ZM148.2 150.9C152 149.9 152.2 146.6 150.8 143.5C148.5 138.3 143.9 136.3 138.5 136.4C133.1 136.5 128.3 138.3 126.5 143.7C125.9 145.6 127.4 150.1 128.7 150.4C132.7 151.4 137.4 154.3 141.3 149.8C142.2 148.8 143 147.7 143.9 146.6C145 147.8 146.3 149 148.2 150.9ZM52.6001 138.4C52.6001 141.8 52.4001 145.3 52.7001 148.7C52.8001 149.8 54.4001 150.8 55.3001 151.8C56.2001 150.9 57.7001 150 57.7001 149.1C57.9001 142.2 57.9001 135.3 57.7001 128.5C57.7001 127.5 56.2001 126.6 55.4001 125.7C54.5001 126.7 52.8001 127.6 52.7001 128.7C52.4001 131.9 52.6001 135.2 52.6001 138.4ZM104.8 138.6C104.8 142 104.6 145.5 104.9 148.9C105 150 106.6 150.9 107.5 151.9C108.3 151 109.7 150.1 109.7 149.1C109.9 142.2 109.9 135.3 109.7 128.5C109.7 127.6 108.2 126.7 107.4 125.8C106.5 126.8 105 127.8 104.9 128.9C104.6 132.1 104.8 135.3 104.8 138.6ZM162 139.4C162 136 162.2 132.5 161.9 129.1C161.8 127.9 160.4 126.9 159.5 125.8C158.6 126.8 156.9 127.8 156.9 128.9C156.7 135.6 156.7 142.2 156.9 148.9C156.9 149.9 158.6 150.9 159.6 151.9C160.4 150.8 161.8 149.7 161.9 148.5C162.3 145.4 162 142.4 162 139.4Z" fill="#04654D"/>
<path d="M184.2 145.4C186.4 151 184.7 152.4 181 151.9C178.8 151.6 174.4 153.4 175.5 149.2C175.9 147.4 180.9 146.7 184.2 145.4Z" fill="#04654D"/>
<path d="M88 145.7C90.5 151.8 87.4 152.4 84.1 151.7C82.3 151.4 80.7 149.7 79 148.7C82 147.7 85 146.7 88 145.7Z" fill="#04654D"/>
</svg>
