<svg width="77" height="72" viewBox="0 0 77 72" fill="none" xmlns="http://www.w3.org/2000/svg">
<path d="M7.82755 46.7296L8.06237 68.0983H2.77888V46.847V46.7296H7.82755ZM10.1758 44.3813H0.430664V46.847V70.4466H10.4106L10.1758 44.3813Z" fill="#006980"/>
<path d="M75.5699 54.9484C75.5699 54.9484 70.5213 49.4301 63.1244 53.0698C55.2579 56.9444 49.7395 59.8796 48.3306 60.3493C41.1686 62.6975 37.1766 59.7622 37.0592 58.7055C36.7069 56.1225 37.7636 55.1832 38.7029 55.1832C39.6422 55.1832 53.0271 52.835 51.9704 47.1993C51.1485 42.6202 47.1565 45.7903 43.6342 46.0251C39.5248 46.3774 35.6502 46.0251 33.5369 44.6162C31.306 43.2073 28.9578 38.9805 23.7918 40.6242C18.6257 42.268 14.1641 43.9118 14.1641 43.9118V71.0337H53.9663L75.5699 54.9484Z" stroke="#006980" stroke-width="1.3" stroke-miterlimit="10"/>
<path d="M26.3759 1.47239L25.2598 1.34194V2.46563C25.2598 5.5658 25.7247 11.153 29.1256 15.3096C30.3838 16.8475 33.6854 19.3843 42.3511 21.2857C42.7604 21.3886 42.9776 21.4702 43.1786 21.6002C43.4033 21.7688 43.4819 21.8307 43.5805 21.9716C43.6988 22.1406 43.8674 22.4666 44.0897 23.1892L46.0076 22.9008L46.0157 22.9028L46.0165 22.8995L46.0455 22.8951V22.8944V22.8937V22.8931V22.8924V22.8917V22.891V22.8903V22.8896V22.8889V22.8882V22.8875V22.8869V22.8862V22.8855V22.8848V22.8841V22.8834V22.8827V22.882V22.8814V22.8807V22.88V22.8793V22.8786V22.8779V22.8772V22.8766V22.8759V22.8752V22.8745V22.8738V22.8731V22.8724V22.8718V22.8711V22.8704V22.8697V22.869V22.8683V22.8677V22.867V22.8663V22.8656V22.8649V22.8642V22.8636V22.8629V22.8622V22.8615V22.8608V22.8601V22.8595V22.8588V22.8581V22.8574V22.8567V22.8561V22.8554V22.8547V22.854V22.8533V22.8527V22.852V22.8513V22.8506V22.85V22.8493V22.8486V22.8479V22.8473V22.8466V22.8459V22.8452V22.8446V22.8439V22.8432V22.8425V22.8419V22.8412V22.8405V22.8399V22.8392V22.8385V22.8378V22.8372V22.8365V22.8358V22.8352V22.8345V22.8338V22.8332V22.8325V22.8318V22.8312V22.8305V22.8298V22.8292V22.8285V22.8279V22.8272V22.8265V22.8259V22.8252V22.8246V22.8239V22.8232V22.8226V22.8219V22.8213V22.8206V22.8199V22.8193V22.8186V22.818V22.8173V22.8167V22.816V22.8154V22.8147V22.8141V22.8134V22.8128V22.8121V22.8115V22.8108V22.8102V22.8095V22.8089V22.8082V22.8076V22.807V22.8063V22.8057V22.805V22.8044V22.8038V22.8031V22.8025V22.8018V22.8012V22.8006V22.7999V22.7993V22.7987V22.798V22.7974V22.7968V22.7961V22.7955V22.7949V22.7942V22.7936V22.793V22.7924V22.7917V22.7911V22.7905V22.7899V22.7892V22.7886V22.788V22.7874V22.7868V22.7861V22.7855V22.7849V22.7843V22.7837V22.7834L46.2089 22.13L46.9403 22.0081C46.9551 22.0063 46.9698 22.0043 46.9832 22.0025C47.0142 21.9982 47.0526 21.9924 47.0971 21.9853C47.1867 21.971 47.3097 21.9498 47.4623 21.9212C47.7679 21.8639 48.197 21.7755 48.7199 21.6492C49.7647 21.3971 51.1927 20.9918 52.7628 20.3774C55.877 19.1588 59.674 17.0695 62.07 13.6024C64.1298 10.6405 64.7302 6.95986 64.1155 2.90288L64.0157 2.24413L63.3693 2.08254C62.8107 1.94289 61.9065 1.81786 60.896 1.81786C59.0125 1.81786 56.9 2.19246 54.9149 2.93608C52.6771 3.74515 50.5378 5.0961 48.9809 6.21888C48.1961 6.78485 47.5471 7.30178 47.093 7.67828C46.8658 7.86669 46.6868 8.02036 46.5636 8.12795C46.502 8.18176 46.4542 8.22408 46.4213 8.2535L46.3831 8.28778L46.3725 8.29734L46.3694 8.30017L46.3688 8.30069L46.3684 8.30109L46.368 8.30143L45.6337 8.969L44.7565 8.42921L44.7557 8.4287L44.7346 8.41522C44.7157 8.4032 44.6883 8.38587 44.6527 8.36354C44.5816 8.31889 44.4775 8.25424 44.3428 8.17215C44.0733 8.008 43.6807 7.774 43.1823 7.49067C42.1861 6.92431 40.7642 6.15934 39.0553 5.36082C35.6504 3.76989 31.0483 2.01852 26.3759 1.47239ZM46.8496 33.0325L45.1022 31.0667V33.6969C45.1022 34.1743 45.0961 34.2576 45.0361 34.4374L45.0198 34.4863L45.0086 34.5367C44.87 35.1604 44.4086 35.5663 43.761 35.6383L43.7454 35.64L43.73 35.6422C43.2219 35.7148 41.9857 36.069 40.4953 36.5276C38.9593 37.0002 37.0436 37.6192 35.1016 38.2665L33.1413 38.92C33.0423 38.7623 32.9708 38.615 32.9189 38.4841C33.1739 38.4006 33.4795 38.3006 33.8238 38.1883C34.8684 37.8474 36.2679 37.3931 37.6889 36.939C39.1109 36.4845 40.5501 36.0316 41.6756 35.6928C42.2393 35.5232 42.7174 35.3843 43.0727 35.2885C43.2512 35.2404 43.3899 35.2055 43.4889 35.1835C43.5368 35.1728 43.5652 35.1675 43.5783 35.1651C44.2396 35.1332 44.5094 34.5707 44.5649 34.4443C44.6563 34.236 44.6992 34.0086 44.7241 33.8287C44.7769 33.4483 44.7899 32.9537 44.7814 32.4189C44.7642 31.3333 44.6543 29.9048 44.4986 28.4808C44.3426 27.0544 44.1374 25.6041 43.924 24.4712C43.8179 23.9078 43.7059 23.4018 43.5915 23.0095C43.535 22.8158 43.4704 22.6236 43.3954 22.4567C43.3579 22.3734 43.3088 22.276 43.2451 22.1803C43.1887 22.0957 43.0791 21.9478 42.8998 21.8282L42.848 21.7937L42.7923 21.7659C42.7084 21.7239 42.6331 21.7016 42.6206 21.6977C42.5915 21.6888 42.5643 21.6815 42.5438 21.6762C42.5022 21.6655 42.4543 21.6543 42.4067 21.6435C42.3249 21.6249 42.2167 21.6014 42.0912 21.5742C42.0692 21.5694 42.0466 21.5645 42.0236 21.5595C41.71 21.4914 41.2754 21.3962 40.7494 21.271C39.6963 21.0204 38.2813 20.6503 36.7627 20.1417C33.6645 19.1041 30.3668 17.563 28.685 15.4614C26.3317 12.5054 25.3961 8.70379 25.0676 5.56109C24.9045 4.00083 24.8938 2.63073 24.9239 1.65252C24.9309 1.42579 24.9401 1.22047 24.95 1.0391C29.7392 1.33013 34.5764 2.98305 38.3304 4.64242C40.3217 5.52265 41.9887 6.39585 43.1562 7.04809C43.7397 7.37402 44.1975 7.64427 44.5078 7.83196C44.6629 7.92578 44.7811 7.99893 44.8595 8.04803C44.8988 8.07258 44.9281 8.09112 44.9471 8.10321L44.9679 8.11648L44.9724 8.11939L44.973 8.11977L44.9732 8.1199L44.9733 8.11991L45.6127 8.53245L46.1805 8.026L46.1806 8.02593L46.1807 8.02587L46.1808 8.02577L46.1821 8.02458L46.1897 8.01789L46.2231 7.98851C46.2535 7.962 46.2997 7.9219 46.3608 7.86967C46.483 7.76518 46.6647 7.61225 46.8981 7.42249C47.3653 7.04268 48.0377 6.51686 48.8535 5.93723C50.4936 4.7719 52.6714 3.41915 54.9022 2.58184C57.3595 1.68894 59.3538 1.46964 61.0134 1.46964C62.3383 1.46964 63.346 1.63519 64.0088 1.79426C64.2007 1.84031 64.3638 1.88585 64.4974 1.92672C65.3755 6.22351 64.7869 9.58716 63.4536 12.2342C62.057 15.007 59.7997 17.0785 57.3553 18.6141C54.911 20.1497 52.321 21.123 50.3296 21.7124C49.3368 22.0062 48.5 22.2026 47.9145 22.3249C47.6219 22.386 47.3926 22.4286 47.2386 22.4556C47.1615 22.4691 47.1033 22.4787 47.0655 22.4847L47.0242 22.4912L47.0154 22.4925L47.0146 22.4926L47.014 22.4927L47.014 22.4927L46.4078 22.5811L46.2115 23.1621L47.1589 23.4822C46.2115 23.1621 46.2114 23.1625 46.2113 23.1628L46.2109 23.1638L46.2101 23.1662L46.2077 23.1736L46.1998 23.1976C46.1956 23.2103 46.1905 23.2264 46.1843 23.2457C46.1809 23.2567 46.1771 23.2687 46.173 23.2818C46.1505 23.3535 46.1195 23.456 46.0828 23.5852C46.0094 23.8434 45.913 24.2102 45.8179 24.6539C45.6288 25.5356 45.4386 26.7483 45.4545 28.0296C45.4703 29.3022 45.6902 30.719 46.388 31.9501C47.1059 33.2166 48.2935 34.2186 50.0858 34.6669C55.7621 36.1006 60.045 38.5784 62.5588 41.1474C65.1313 43.7765 65.5971 46.1652 64.6257 47.7279L64.617 47.7419L64.6088 47.7561C64.2934 48.3029 63.4499 49.0744 62.1025 49.9897C60.7985 50.8756 59.157 51.8089 57.4136 52.7096C53.9281 54.5105 50.1182 56.1389 47.9791 56.9483L47.9314 56.9663L47.9236 56.9702C47.8927 56.9762 47.8409 56.9832 47.7628 56.9888C47.5999 57.0005 47.4031 57.001 47.1589 57.001C46.6358 57.001 46.1064 56.9552 45.6953 56.8709C45.9605 56.6989 46.3017 56.5046 46.7059 56.2917C47.5359 55.8544 48.5657 55.3732 49.618 54.8876C49.7504 54.8265 49.8832 54.7653 50.0159 54.7041C50.926 54.2847 51.8331 53.8667 52.584 53.4904C53.0147 53.2746 53.4113 53.064 53.7379 52.867C54.0279 52.692 54.3499 52.4774 54.5757 52.2332C56.4278 50.3673 56.9434 47.6303 56.4257 45.3756C55.9052 43.109 54.2362 41.0331 51.5031 41.0331H51.5017H51.5004H51.499H51.4976H51.4962H51.4949H51.4935H51.4921H51.4907H51.4893H51.488H51.4866H51.4852H51.4838H51.4825H51.4811H51.4797H51.4783H51.477H51.4756H51.4742H51.4728H51.4715H51.4701H51.4687H51.4673H51.466H51.4646H51.4632H51.4618H51.4605H51.4591H51.4577H51.4563H51.4549H51.4536H51.4522H51.4508H51.4494H51.4481H51.4467H51.4453H51.4439H51.4426H51.4412H51.4398H51.4384H51.4371H51.4357H51.4343H51.4329H51.4316H51.4302H51.4288H51.4274H51.4261H51.4247H51.4233H51.4219H51.4206H51.4192H51.4178H51.4164H51.415H51.4137H51.4123H51.4109H51.4095H51.4082H51.4068H51.4054H51.404H51.4027H51.4013H51.3999H51.3985H51.3972H51.3958H51.3944H51.393H51.3917H51.3903H51.3889H51.3875H51.3862H51.3848H51.3834H51.382H51.3806H51.3793H51.3779H51.3765H51.3751H51.3738H51.3724H51.371H51.3696H51.3683H51.3669H51.3655H51.3641H51.3628H51.3614H51.36H51.3586H51.3573H51.3559H51.3545H51.3531H51.3518H51.3504H51.349H51.3476H51.3463H51.3449H51.3435H51.3421H51.3407H51.3394H51.338H51.3366H51.3352H51.3339H51.3325H51.3311H51.3297H51.3284H51.327H51.3256H51.3242H51.3229H51.3215H51.3201H51.3187H51.3174H51.316H51.3146H51.3132H51.3119H51.3105H51.3091H51.3077H51.3064H51.305H51.3036H51.3022H51.3008H51.2995H51.2981H51.2967H51.2953H51.294H51.2926H51.2912H51.2898H51.2885H51.2871H51.2857H51.2843H51.283H51.2816H51.2802H51.2788H51.2775H51.2761H51.2747H51.2733H51.272H51.2706H51.2692H51.2678H51.2664H51.2651H51.2637H51.2623H51.2609H51.2596H51.2582H51.2568H51.2554H51.2541H51.2527H51.2513H51.2499H51.2486H51.2472H51.2458H51.2444H51.2431H51.2417H51.2403H51.2389H51.2376H51.2362H51.2348H51.2334H51.2321H51.2307H51.2293H51.2279H51.2265H51.2252H51.2238H51.2224H51.221H51.2197H51.2183H51.2169H51.2155H51.2142H51.2128H51.2114H51.21H51.2087H51.2073H51.2059H51.2045H51.2032H51.2018H51.2004H51.199H51.1977H51.1963H51.1949H51.1935H51.1922H51.1908H51.1894H51.188H51.1866H51.1853H51.1839H51.1825H51.1811H51.1798H51.1784H51.177H51.1756H51.1743H51.1729H51.1715H51.1701H51.1688H51.1674H51.166H51.1646H51.1633H51.1619H51.1605H51.1591H51.1578H51.1564H51.155H51.1536H51.1523H51.1509H51.1495H51.1481H51.1467H51.1454H51.144H51.1426H51.1412H51.1399H51.1385H51.1371H51.1357H51.1344H51.133H51.1316H51.1302H51.1289H51.1275H51.1261H51.1247H51.1234H51.122H51.1206H51.1192H51.1179H51.1165H51.1151H51.1137H51.1123H51.111H51.1096H51.1082H51.1068H51.1055H51.1041H51.1027H51.1013H51.1H51.0986H51.0972H51.0958H51.0945H51.0931H51.0917H51.0903H51.089H51.0876H51.0862H51.0848H51.0835H51.0821H51.0807H51.0793H51.078H51.0766H51.0752H51.0738H51.0724H51.0711H51.0697H51.0683H51.0669H51.0656H51.0642H51.0628H51.0614H51.0601H51.0587H51.0573H51.0559H51.0546H51.0532H51.0518H51.0504H51.0491H51.0477H51.0463H51.0449H51.0436H51.0422H51.0408H51.0394H51.038H51.0367H51.0353H51.0339H51.0325H51.0312H51.0298H51.0284H51.027H51.0257H51.0243H51.0229H51.0215H51.0202H51.0188H51.0174H51.016H51.0147H51.0133H51.0119H51.0105H51.0092H51.0078H51.0064H51.005H51.0037H51.0023H51.0009H50.9995H50.9981H50.9968H50.9954H50.994H50.9926H50.9913H50.9899H50.9885H50.9871H50.9858H50.9844H50.983H50.9816H50.9803H50.9789H50.9775H50.9761H50.9748H50.9734H50.972H50.9706H50.9693H50.9679H50.9665H50.9651H50.9638H50.9624H50.961H50.9596H50.9582H50.9569H50.9555H50.9541H50.9527H50.9514H50.95H50.9486H50.9472H50.9459H50.9445H50.9431H50.9417H50.9404H50.939H50.9376H50.9362H50.9349H50.9335H50.9321H50.9307H50.9294H50.928H50.9266H50.9252H50.9239H50.9225H50.9211H50.9197H50.9183H50.917H50.9156H50.9142H50.9128H50.9115H50.9101H50.9087H50.9073H50.906H50.9046H50.9032H50.9018H50.9005H50.8991H50.8977H50.8963H50.895H50.8936H50.8922H50.8908H50.8895H50.8881H50.8867H50.8853H50.8839H50.8826H50.8812H50.8798H50.8784H50.8771H50.8757H50.8743H50.8729H50.8716H50.8702H50.8688H50.8674H50.8661H50.8647H50.8633H50.8619H50.8606H50.8592H50.8578H50.8564H50.8551H50.8537H50.8523H50.8509H50.8496H50.8482H50.8468H50.8454H50.844H50.8427H50.8413H50.8399H50.8385H50.8372H50.8358H50.8344H50.833H50.8317H50.8303H50.8289H50.8275H50.8262H50.8248H50.8234H50.822H50.8207H50.8193H50.8179H50.8165H50.8152H50.8138H50.8124H50.811H50.8097H50.8083H50.8069H50.8055H50.8041H50.8028H50.8014H50.8H50.7986H50.73L50.662 41.0425C47.281 41.5088 44.5127 41.7375 42.3451 41.7375C37.0089 41.7375 34.673 40.5291 33.6615 39.5525C33.4941 39.391 33.3589 39.2321 33.2496 39.0805L34.9033 40.0727C36.3035 40.9128 38.6294 41.5067 42.4625 41.5067C44.8746 41.5067 47.6276 41.2658 50.7159 40.7906L50.7996 40.7778L50.88 40.751C51.0546 40.6928 51.2457 40.6849 51.6205 40.6849C53.7586 40.6849 55.5369 41.9297 56.4545 44.0708L56.4623 44.0889L56.4708 44.1068C57.4903 46.2478 57.296 48.9463 56.0465 51.0289L54.1823 54.1359L57.3762 52.4248C59.0233 51.5425 60.5791 50.6757 61.8031 49.8899C62.4148 49.4972 62.9621 49.1131 63.4038 48.7467C63.8218 48.3999 64.2216 48.0078 64.4622 47.5823C65.0248 46.632 64.9385 45.4643 64.5327 44.3824L64.5328 44.3824L64.5298 44.3745C63.8422 42.5869 62.196 40.7404 59.8007 39.108C57.3908 37.4656 54.1474 35.9868 50.1302 34.9648C48.726 34.5296 47.6252 33.9051 46.8496 33.0325ZM64.9424 2.08385L64.941 2.08327C64.9435 2.08434 64.9445 2.08481 64.9441 2.08463L64.9424 2.08385ZM47.942 56.9661C47.9417 56.9662 47.941 56.9664 47.9396 56.9667C47.9415 56.9662 47.9424 56.966 47.942 56.9661ZM25.0219 0.119102C25.0219 0.118895 25.0219 0.118833 25.0219 0.118919L25.0219 0.119102Z" fill="#006980" stroke="#006980" stroke-width="2"/>
</svg>
