<svg width="100" height="101" viewBox="0 0 100 101" fill="none" xmlns="http://www.w3.org/2000/svg">
<path d="M26.5928 19.25C28.668 19.25 30.499 21.0811 30.499 23.1563V34.875H22.6865V23.1563C22.6865 21.0811 24.3955 19.25 26.5928 19.25ZM50.0303 19.25C52.1055 19.25 53.9365 21.0811 53.9365 23.1563V34.875H46.124V23.1563C46.124 21.0811 47.833 19.25 50.0303 19.25ZM18.7803 38.7813H57.8428C59.918 38.7813 61.749 40.6123 61.749 42.6875C61.749 43.0537 61.627 43.2979 61.627 43.542C52.5938 46.1055 46.124 54.4063 46.124 64.1719C46.124 65.6367 46.2461 66.9795 46.4902 68.3223C45.1475 68.9326 43.6826 69.4209 42.2178 69.665V77.8438C42.2178 80.041 40.3867 81.75 38.3115 81.75C36.1143 81.75 34.4053 80.041 34.4053 77.8438V69.665C25.4941 67.834 18.7803 60.0215 18.7803 50.5V46.5938C16.583 46.5938 14.874 44.8848 14.874 42.6875C14.874 40.6123 16.583 38.7813 18.7803 38.7813ZM67.6084 81.75C61.2607 81.75 55.5234 78.4541 52.3496 72.9609C49.1758 67.5898 49.1758 60.876 52.3496 55.3828C55.5234 50.0117 61.2607 46.5938 67.6084 46.5938C73.834 46.5938 79.5713 50.0117 82.7451 55.3828C85.9189 60.876 85.9189 67.5898 82.7451 72.9609C79.5713 78.4541 73.834 81.75 67.6084 81.75ZM73.3457 54.2842C72.8574 53.918 72.125 53.7959 71.5147 54.2842L59.7959 63.0732C59.3076 63.4395 59.1855 64.0498 59.3076 64.6602C59.5518 65.2705 60.04 65.6367 60.7725 65.6367H65.0449L61.3828 72.3506C61.0166 72.9609 61.1387 73.6934 61.749 74.0596C62.2373 74.5479 62.9697 74.5479 63.5801 74.1816L75.2988 65.3926C75.7871 65.0264 76.0313 64.416 75.7871 63.8057C75.543 63.1953 75.0547 62.707 74.4443 62.707H70.0498L73.7119 56.1152C74.0781 55.5049 73.9561 54.7725 73.3457 54.2842Z" fill="#006980"/>
</svg>
