<svg width="100" height="100" viewBox="0 0 100 100" fill="none" xmlns="http://www.w3.org/2000/svg">
<path d="M51.8081 15.0035L77.917 26.1137C80.9723 27.5025 83.3332 30.4189 83.3332 34.0297C83.1943 47.9173 77.5004 73.054 53.6135 84.5808C51.2526 85.6918 48.614 85.6918 46.2531 84.5808C22.3663 73.054 16.6723 47.9173 16.6723 34.0297C16.5335 30.4189 18.8944 27.5025 21.9496 26.1137L48.0585 15.0035C48.614 14.7258 49.3084 14.5869 50.0028 14.5869C50.5583 14.5869 51.2526 14.7258 51.8081 15.0035ZM65.6958 43.6122H65.5569C66.9457 42.3623 66.9457 40.2791 65.5569 38.8903C64.3071 37.6405 62.2239 37.6405 60.974 38.8903L45.5587 54.4445L39.0315 47.9173C37.6427 46.5286 35.5596 46.5286 34.3097 47.9173C32.9209 49.1672 32.9209 51.2504 34.3097 52.5003L43.1978 61.3884C44.4477 62.7771 46.5308 62.7771 47.9196 61.3884L65.6958 43.6122Z" fill="#006980"/>
</svg>
