<svg width="100" height="101" viewBox="0 0 100 101" fill="none" xmlns="http://www.w3.org/2000/svg">
<path d="M83.3332 21.3337C83.3332 36.1774 72.2655 48.417 57.9425 50.2399C57.0311 43.3389 54.0363 37.0889 49.479 32.141C54.4269 23.2868 64.0623 17.167 74.9998 17.167H79.1665C81.3801 17.167 83.3332 19.1201 83.3332 21.3337ZM16.6665 29.667C16.6665 27.4535 18.4894 25.5003 20.8332 25.5003H24.9998C41.0155 25.5003 54.1665 38.6514 54.1665 54.667V79.667C54.1665 82.0107 52.2134 83.8337 49.9998 83.8337C47.6561 83.8337 45.8332 82.0107 45.8332 79.667V58.8337C29.6873 58.8337 16.6665 45.8128 16.6665 29.667Z" fill="#006980"/>
</svg>
