<svg width="58" height="76" viewBox="0 0 58 76" fill="none" xmlns="http://www.w3.org/2000/svg">
<path d="M28.0001 2.86377C28.0001 2.86377 19.1112 15.6406 1.77783 12.3362V53.3102C1.77783 53.3102 13.7778 74.458 28.0001 74.458C43.1112 74.458 56.4445 53.3102 56.4445 53.3102V12.3362C56.4445 12.3362 50.4445 14.7594 41.7778 12.3362C32.6667 9.69276 28.0001 2.86377 28.0001 2.86377Z" stroke="#006980" stroke-width="1.8" stroke-miterlimit="10"/>
<path d="M27.9998 59.9191C27.9998 59.9191 13.7776 53.751 14.6665 40.7539C15.5553 27.7568 27.9998 16.522 27.9998 16.522C27.9998 16.522 43.1109 29.0785 42.222 40.9741C41.1109 55.7336 27.9998 59.9191 27.9998 59.9191Z" stroke="#006980" stroke-width="1.8" stroke-miterlimit="10"/>
<path d="M28 66.5277C28 41.1944 28 33.9248 28 33.9248L34 29.519" stroke="#006980" stroke-width="1.8" stroke-miterlimit="10"/>
<path d="M22.2222 42.0752L27.9999 46.9216L33.3333 42.5158" stroke="#006980" stroke-width="1.8" stroke-miterlimit="10"/>
</svg>
