<svg width="65" height="43" viewBox="0 0 65 43" fill="none" xmlns="http://www.w3.org/2000/svg">
<path d="M0.731156 1.4H7.16916L11.3452 32.894H11.4612L15.6372 1.4H21.4952L15.3472 42H6.87916L0.731156 1.4ZM33.4364 42.58C30.3817 42.58 28.0424 41.71 26.4184 39.97C24.833 38.23 24.0404 35.7747 24.0404 32.604V10.796C24.0404 7.62533 24.833 5.17 26.4184 3.43C28.0424 1.69 30.3817 0.819998 33.4364 0.819998C36.491 0.819998 38.811 1.69 40.3964 3.43C42.0204 5.17 42.8324 7.62533 42.8324 10.796V15.088H36.8004V10.39C36.8004 7.87667 35.737 6.62 33.6104 6.62C31.4837 6.62 30.4204 7.87667 30.4204 10.39V33.068C30.4204 35.5427 31.4837 36.78 33.6104 36.78C35.737 36.78 36.8004 35.5427 36.8004 33.068V26.862H42.8324V32.604C42.8324 35.7747 42.0204 38.23 40.3964 39.97C38.811 41.71 36.491 42.58 33.4364 42.58ZM55.0568 42.58C51.9634 42.58 49.6241 41.71 48.0388 39.97C46.4534 38.1913 45.6608 35.6587 45.6608 32.372V30.052H51.6928V32.836C51.6928 35.4653 52.7948 36.78 54.9988 36.78C56.0814 36.78 56.8934 36.4707 57.4348 35.852C58.0148 35.1947 58.3048 34.1507 58.3048 32.72C58.3048 31.0187 57.9181 29.53 57.1448 28.254C56.3714 26.9393 54.9408 25.3733 52.8528 23.556C50.2234 21.236 48.3868 19.148 47.3428 17.292C46.2988 15.3973 45.7768 13.2707 45.7768 10.912C45.7768 7.70267 46.5888 5.228 48.2128 3.488C49.8368 1.70933 52.1954 0.819998 55.2888 0.819998C58.3434 0.819998 60.6441 1.70933 62.1908 3.488C63.7761 5.228 64.5688 7.74133 64.5688 11.028V12.71H58.5368V10.622C58.5368 9.23 58.2661 8.22466 57.7248 7.606C57.1834 6.94867 56.3908 6.62 55.3468 6.62C53.2201 6.62 52.1568 7.91533 52.1568 10.506C52.1568 11.9753 52.5434 13.348 53.3168 14.624C54.1288 15.9 55.5788 17.4467 57.6668 19.264C60.3348 21.584 62.1714 23.6913 63.1768 25.586C64.1821 27.4807 64.6848 29.704 64.6848 32.256C64.6848 35.5813 63.8534 38.1333 62.1908 39.912C60.5668 41.6907 58.1888 42.58 55.0568 42.58Z" fill="#006980"/>
</svg>
