<?xml version="1.0" encoding="utf-8"?>
<!-- Generator: Adobe Illustrator 23.0.0, SVG Export Plug-In . SVG Version: 6.00 Build 0)  -->
<svg version="1.1" id="Layer_1" xmlns="http://www.w3.org/2000/svg" xmlns:xlink="http://www.w3.org/1999/xlink" x="0px" y="0px"
	 viewBox="0 0 400 400" style="enable-background:new 0 0 400 400;" xml:space="preserve">
<style type="text/css">
	.st0{fill:#F07D24;}
	.st1{fill:#2F5EA9;}
	.st2{fill:#D35F1F;}
</style>
<path class="st0" d="M127.54,153.91l9.02-21.71c0,0,7.05-4.79,9.3-7.89c2.25-3.11,3.95-17.48,3.95-17.48s4.51-12.69,10.71-9.3
	s7.33,7.61,7.33,7.61s-0.56,6.2-3.38,9.02c-2.82,2.82-35.68,36.66-36.94,58.65c-0.97,16.92,0.25,20.23,1.7,26.79
	c4.53,20.61,14.94,27.35,14.94,27.35s57.8,0.29,69.92,2.82c12.12,2.54,38.74,4.91,48.84-17.69c4.45-9.94,6.32-12.76,6.14-34.19
	c-0.08-10.17-9.59-75.56-77.54-64.01c0,0-2.58,1.92,3.79,1.04c6.66-0.91,15.47,4.26,15.47,4.26s21.76,11.68,16.69,31.69
	c-5.07,20.02-19.25,33.21-36.23,32.08c-12.69-0.84-32.42-9.87-31.02-30.17c1.41-20.3,15.51-30.73,15.51-30.73s9.02-8.01,8.17-17.77
	c-1.06-12.14-18.66-20.56-25.38-21.71c-5.01-0.86-26.77-2.29-35.25,23.12c-1.97,5.93,3.11,21.43,3.11,21.43L127.54,153.91z"/>
<path class="st1" d="M124.94,168.75l-10.9-0.56c-0.35-2.88-2.11-5.33-4.57-6.63l1.8-6.59l-3.9-1.06l-1.81,6.66
	c-0.04,0-0.08-0.01-0.12-0.01c-3.08,0-5.77,1.61-7.31,4.02l-12.18-5.16c-0.16-1.01-0.52-1.96-1.04-2.79l25.57-17.88l-2.31-3.31
	l-26.38,18.44c-0.95-0.44-2-0.7-3.12-0.7c-4.08,0-7.38,3.3-7.38,7.38c0,0.84,0.15,1.64,0.4,2.39L54,181.64
	c-1.03-0.43-2.16-0.67-3.35-0.67c-4.79,0-8.67,3.88-8.67,8.67c0,2.85,1.38,5.36,3.5,6.94l-8.1,22.63c-0.2-0.02-0.4-0.03-0.6-0.03
	c-4.37,0-7.91,3.54-7.91,7.91c0,4.37,3.54,7.91,7.91,7.91c4.37,0,7.91-3.54,7.91-7.91c0-0.46-0.05-0.9-0.12-1.34l35.64-15.22
	c0.96,0.37,2.01,0.58,3.1,0.58c0.88,0,1.73-0.13,2.53-0.38l11.74,12.14c-0.7,1.25-1.1,2.69-1.1,4.22c0,4.79,3.89,8.67,8.67,8.67
	c4.79,0,8.67-3.88,8.67-8.67c0-0.1-0.01-0.2-0.02-0.3l10.59-3.68l-1.33-3.81l-10.33,3.59c-1.48-2.67-4.32-4.47-7.59-4.47
	c-1.79,0-3.45,0.54-4.84,1.47L89.4,208.6c1.59-1.57,2.58-3.75,2.58-6.17c0-1.3-0.29-2.53-0.81-3.64l11.91-21.23
	c0.75,0.21,1.55,0.34,2.37,0.34c3.74,0,6.92-2.38,8.13-5.7l11.16,0.58L124.94,168.75z M88.41,195.44c-1.43-1.05-3.2-1.68-5.11-1.68
	c-4.79,0-8.67,3.89-8.67,8.67c0,2,0.68,3.84,1.82,5.3l-33.56,14.34c-0.49-0.59-1.06-1.11-1.7-1.54l8-22.35
	c0.48,0.08,0.96,0.13,1.46,0.13c4.79,0,8.67-3.88,8.67-8.67c0-2.13-0.77-4.08-2.04-5.59l16.79-17.73c1.26,1.01,2.86,1.62,4.61,1.62
	c3,0,5.58-1.8,6.73-4.38l11.41,4.84c-0.03,0.27-0.04,0.55-0.04,0.83c0,2.51,1.08,4.77,2.79,6.36L88.41,195.44z"/>
<path class="st1" d="M357.56,217.66c-0.49,0-0.97,0.05-1.44,0.12l-8.2-20.67c2.24-1.72,3.69-4.43,3.69-7.47
	c0-5.21-4.22-9.44-9.44-9.44c-1.16,0-2.27,0.22-3.3,0.6l-17.98-22.29c0.52-1.17,0.82-2.46,0.82-3.83c0-5.21-4.22-9.43-9.44-9.43
	c-1.7,0-3.29,0.46-4.66,1.24l-12.74-10.38c0.19-0.75,0.31-1.53,0.31-2.35c0-5.21-4.22-9.44-9.43-9.44c-2.34,0-4.48,0.86-6.13,2.27
	l-24.09-8.42l-1.33,3.81l22.9,8c-0.5,1.16-0.79,2.43-0.79,3.77c0,4.86,3.69,8.87,8.42,9.38l2.19,19.6c-2.14,1.32-3.71,3.47-4.26,6
	h-6.54v4.04h6.54c0.93,4.24,4.7,7.41,9.21,7.41c1.64,0,3.18-0.42,4.52-1.15l14.12,22.48c-1.1,0.99-1.94,2.25-2.42,3.69l-24.81-0.75
	l-0.12,4.04l24.59,0.75c0.16,1.08,0.52,2.1,1.04,3.02l-12.23,11.77c-1.35-0.87-2.95-1.38-4.68-1.38c-3.62,0-6.72,2.22-8.02,5.37
	l-6.73-2.98l-1.64,3.69l7.75,3.43c0.42,4.39,4.12,7.83,8.63,7.83c4.79,0,8.67-3.89,8.67-8.67c0-1.6-0.44-3.09-1.2-4.38l12.2-11.73
	c1.37,0.9,3,1.43,4.76,1.43c2.94,0,5.54-1.47,7.1-3.7l25,11.85c-0.19,0.74-0.29,1.5-0.29,2.3c0,5.21,4.22,9.44,9.43,9.44
	c5.21,0,9.44-4.22,9.44-9.44C367,221.88,362.77,217.66,357.56,217.66z M288.76,142.71c1.68-0.56,3.14-1.58,4.25-2.91l11.58,9.44
	c-1.09,1.54-1.74,3.41-1.74,5.44c0,2.53,1,4.81,2.61,6.51l-6.09,3.86c-1.72-2.26-4.43-3.72-7.49-3.72c-0.35,0-0.7,0.02-1.04,0.06
	L288.76,142.71z M299.48,176.35c1.15-1.56,1.84-3.49,1.84-5.57c0-0.69-0.08-1.37-0.22-2.02l8.12-5.15c0.96,0.33,2,0.52,3.07,0.52
	c0.82,0,1.61-0.11,2.36-0.31v35.65c-0.19,0.04-0.37,0.09-0.56,0.14L299.48,176.35z M324.91,209.17c0.05-0.39,0.09-0.79,0.09-1.2
	c0-3.97-2.67-7.31-6.31-8.33V162.2l16.78,20.81c-1.68,1.7-2.72,4.04-2.72,6.63c0,5.21,4.22,9.43,9.43,9.43
	c0.72,0,1.41-0.09,2.08-0.24l8.09,20.4c-0.8,0.53-1.52,1.19-2.13,1.94L324.91,209.17z"/>
<path class="st2" d="M241,161c0-14.37-7.85-27-19.72-34.32c5.11,5.43,9.88,13.65,7.21,24.19c-5.07,20.02-19.25,33.21-36.23,32.08
	c-12.69-0.84-32.42-9.87-31.02-30.17c0.73-10.47,4.83-18.31,8.63-23.45C160.18,136.84,154,148.24,154,161c0,22.64,19.48,41,43.5,41
	C221.52,202,241,183.64,241,161z"/>
<g>
	<path d="M32.76,305.34v-33.93h11.39c1.29,0,2.43,0.04,3.43,0.13c1,0.08,1.92,0.22,2.75,0.41c0.83,0.19,1.61,0.44,2.34,0.76
		c0.73,0.32,1.45,0.7,2.16,1.14c1.59,0.98,2.97,2.29,4.12,3.92c2.07,2.88,3.1,6.38,3.1,10.48c0,2.58-0.38,4.92-1.14,7.02
		c-0.76,2.1-1.84,3.9-3.23,5.39c-1.39,1.49-3.07,2.65-5.04,3.46c-1.97,0.81-4.15,1.22-6.56,1.22H32.76z M41.41,297.71h3.71
		c2.71,0,4.77-0.79,6.18-2.37c1.41-1.58,2.11-3.86,2.11-6.84c0-3.05-0.71-5.39-2.14-7.02c-1.42-1.63-3.46-2.44-6.1-2.44h-3.76
		V297.71z"/>
	<path d="M66.08,305.34v-25.43h7.22v2.7c0.71-1.25,1.54-2.16,2.49-2.72c0.95-0.56,2.17-0.84,3.66-0.84h0.2v7.63
		c-2.2,0.07-3.76,0.45-4.65,1.14c-0.9,0.7-1.35,1.86-1.35,3.48v14.04H66.08z"/>
	<path d="M109.31,279.91v25.46h-7.12v-2.75c-1.22,2.39-3.86,3.59-7.9,3.59c-1.94,0-3.7-0.33-5.28-0.99
		c-1.58-0.66-2.94-1.58-4.08-2.77c-1.14-1.19-2.02-2.61-2.65-4.27c-0.63-1.66-0.94-3.51-0.94-5.54c0-2,0.32-3.84,0.97-5.52
		c0.65-1.68,1.55-3.12,2.7-4.32s2.53-2.14,4.13-2.8s3.37-0.99,5.3-0.99c1.94,0,3.53,0.29,4.79,0.87s2.24,1.49,2.96,2.75v-2.7H109.31
		z M95.27,286.16c-0.89,0-1.73,0.16-2.51,0.49c-0.79,0.32-1.46,0.78-2.02,1.38c-0.56,0.6-1.01,1.29-1.33,2.07
		c-0.32,0.78-0.49,1.63-0.49,2.55c0,0.92,0.16,1.77,0.49,2.55c0.32,0.78,0.78,1.47,1.36,2.07s1.26,1.06,2.05,1.38
		c0.79,0.32,1.62,0.48,2.51,0.48c0.92,0,1.78-0.16,2.56-0.48s1.46-0.78,2.02-1.35c0.56-0.58,1.01-1.27,1.33-2.07
		c0.32-0.8,0.49-1.68,0.49-2.63c0-0.92-0.16-1.77-0.49-2.55c-0.32-0.78-0.77-1.46-1.33-2.04c-0.56-0.58-1.25-1.03-2.05-1.35
		C97.06,286.33,96.2,286.16,95.27,286.16z"/>
	<path d="M114.4,313.83v-33.95h7.17v2.8c0.98-1.28,2.11-2.21,3.38-2.78c1.27-0.57,2.82-0.86,4.65-0.86c1.83,0,3.51,0.34,5.04,1.02
		c1.53,0.68,2.84,1.63,3.94,2.85c1.1,1.22,1.96,2.68,2.57,4.37c0.61,1.7,0.92,3.54,0.92,5.54c0,1.9-0.31,3.67-0.94,5.32
		c-0.63,1.64-1.5,3.06-2.62,4.25c-1.12,1.19-2.43,2.12-3.94,2.8c-1.51,0.68-3.15,1.02-4.91,1.02c-1.63,0-3.05-0.25-4.27-0.76
		s-2.34-1.31-3.36-2.42v10.81H114.4z M128.06,286.11c-0.89,0-1.71,0.17-2.48,0.51s-1.44,0.8-2.02,1.38
		c-0.58,0.58-1.04,1.26-1.38,2.03c-0.34,0.77-0.51,1.6-0.51,2.49c0,0.92,0.16,1.79,0.48,2.59c0.32,0.8,0.77,1.5,1.35,2.1
		c0.58,0.6,1.26,1.07,2.04,1.41c0.78,0.34,1.63,0.51,2.55,0.51c0.89,0,1.72-0.16,2.5-0.49c0.78-0.33,1.46-0.79,2.04-1.38
		s1.03-1.29,1.35-2.08c0.32-0.79,0.49-1.64,0.49-2.56c0-0.92-0.16-1.78-0.49-2.56c-0.32-0.79-0.77-1.48-1.35-2.08
		s-1.26-1.06-2.04-1.38C129.83,286.28,128.98,286.11,128.06,286.11z"/>
	<path d="M162.57,297.76c0.03-0.07,0.08-0.13,0.15-0.18c0.07-0.05,0.14-0.11,0.2-0.18h7.73c-1.19,2.75-2.87,4.9-5.04,6.46
		c-2.17,1.56-4.61,2.34-7.32,2.34c-1.87,0-3.61-0.35-5.24-1.04c-1.63-0.7-3.04-1.65-4.25-2.87c-1.2-1.22-2.15-2.65-2.85-4.3
		c-0.7-1.64-1.04-3.42-1.04-5.32c0-1.9,0.35-3.68,1.04-5.34c0.69-1.66,1.64-3.1,2.82-4.32c1.19-1.22,2.59-2.19,4.2-2.9
		c1.61-0.71,3.33-1.07,5.16-1.07c1.9,0,3.67,0.36,5.32,1.07c1.64,0.71,3.07,1.69,4.27,2.92c1.2,1.24,2.14,2.71,2.82,4.4
		c0.68,1.7,1.02,3.53,1.02,5.49c0,0.44-0.02,0.79-0.05,1.04c-0.03,0.25-0.08,0.6-0.15,1.04h-19.07c0.17,1.42,0.76,2.57,1.78,3.43
		c1.02,0.87,2.29,1.3,3.81,1.3c0.95,0,1.76-0.13,2.44-0.41C161.01,299.07,161.76,298.54,162.57,297.76z M163.94,289.93
		c-0.27-1.32-0.92-2.39-1.96-3.21c-1.03-0.81-2.3-1.22-3.79-1.22c-1.49,0-2.74,0.38-3.74,1.14c-1,0.76-1.65,1.86-1.96,3.28H163.94z"
		/>
	<path d="M175.49,305.34v-25.43h7.22v2.7c0.71-1.25,1.54-2.16,2.49-2.72c0.95-0.56,2.17-0.84,3.66-0.84h0.2v7.63
		c-2.2,0.07-3.76,0.45-4.65,1.14c-0.9,0.7-1.35,1.86-1.35,3.48v14.04H175.49z"/>
	<path d="M221.32,298.37c3.63,0,6.36-1.9,8.19-5.7h9.05c-0.48,2-1.25,3.82-2.31,5.44c-1.07,1.63-2.36,3.03-3.87,4.2
		c-1.51,1.17-3.2,2.08-5.06,2.72c-1.87,0.64-3.83,0.97-5.9,0.97c-2.51,0-4.85-0.46-7.02-1.37c-2.17-0.92-4.05-2.17-5.65-3.76
		c-1.59-1.59-2.86-3.47-3.79-5.62c-0.93-2.15-1.4-4.47-1.4-6.94c0-2.44,0.46-4.73,1.37-6.87c0.92-2.14,2.17-3.99,3.76-5.57
		c1.59-1.58,3.47-2.82,5.62-3.74c2.15-0.92,4.48-1.37,6.99-1.37c3.19,0,6.08,0.7,8.67,2.11s4.72,3.43,6.38,6.08
		c0.37,0.58,0.68,1.08,0.92,1.5c0.24,0.42,0.43,0.83,0.58,1.22c0.15,0.39,0.28,0.8,0.38,1.22c0.1,0.42,0.2,0.91,0.31,1.45h-9.05
		c-0.68-1.83-1.75-3.28-3.23-4.35s-3.15-1.6-5.01-1.6c-1.29,0-2.48,0.25-3.59,0.76c-1.1,0.51-2.06,1.2-2.87,2.09
		c-0.81,0.88-1.45,1.92-1.91,3.13c-0.46,1.2-0.69,2.52-0.69,3.94s0.24,2.75,0.71,3.97c0.47,1.22,1.12,2.29,1.93,3.2
		c0.81,0.92,1.77,1.63,2.87,2.14C218.83,298.12,220.03,298.37,221.32,298.37z"/>
	<path d="M257.18,279.91h8.09l-12.77,33.93h-8.04l4.02-9.77l-9.46-24.16h8.09l5.14,14.75L257.18,279.91z"/>
	<path d="M293.75,279.88v22.39c0,1.43-0.03,2.61-0.08,3.56c-0.05,0.95-0.16,1.76-0.33,2.44c-0.17,0.68-0.4,1.28-0.69,1.81
		c-0.29,0.53-0.67,1.06-1.14,1.6c-1.42,1.63-3.17,2.87-5.24,3.71c-2.07,0.85-4.37,1.27-6.92,1.27c-1.73,0-3.33-0.21-4.81-0.64
		s-2.77-1.03-3.89-1.81s-2.03-1.72-2.72-2.82c-0.7-1.1-1.13-2.33-1.3-3.69h8.8c0.71,1.66,2.2,2.49,4.48,2.49
		c1.97,0,3.48-0.6,4.55-1.8c1.07-1.2,1.6-2.88,1.6-5.04v-0.81c-0.27,0.51-0.66,0.98-1.17,1.44c-0.51,0.46-1.1,0.84-1.78,1.16
		c-0.68,0.32-1.42,0.57-2.21,0.76c-0.8,0.18-1.6,0.28-2.42,0.28c-1.73,0-3.35-0.35-4.86-1.04c-1.51-0.7-2.81-1.65-3.92-2.87
		c-1.1-1.22-1.98-2.65-2.62-4.27c-0.64-1.63-0.97-3.37-0.97-5.24c0-1.97,0.33-3.79,0.99-5.47s1.57-3.13,2.72-4.35
		s2.52-2.18,4.09-2.87c1.58-0.69,3.3-1.04,5.16-1.04c3.22,0,5.7,1.06,7.43,3.18v-2.34H293.75z M279.92,286.11
		c-0.88,0-1.7,0.16-2.44,0.49c-0.75,0.33-1.4,0.78-1.96,1.36s-1,1.26-1.32,2.05c-0.32,0.79-0.48,1.62-0.48,2.51
		c0,1.91,0.58,3.5,1.73,4.74c1.15,1.25,2.63,1.87,4.43,1.87c1.83,0,3.32-0.6,4.48-1.79c1.15-1.2,1.73-2.73,1.73-4.62
		c0-1.95-0.57-3.54-1.7-4.77C283.23,286.73,281.75,286.11,279.92,286.11z"/>
	<path d="M298.84,305.34v-25.46h7.17v2.7c0.88-1.25,1.86-2.15,2.93-2.7s2.42-0.83,4.06-0.83c1.36,0,2.64,0.23,3.83,0.69
		c1.19,0.46,2.19,1.09,3.01,1.91c0.51,0.47,0.93,0.96,1.25,1.45c0.32,0.49,0.58,1.04,0.77,1.63c0.19,0.59,0.32,1.27,0.41,2.03
		c0.08,0.76,0.13,1.65,0.13,2.67v15.92h-7.58v-13.92c0-1.84-0.32-3.18-0.95-4.03c-0.63-0.85-1.66-1.28-3.06-1.28
		c-2.92,0-4.38,1.67-4.38,5v14.23H298.84z"/>
	<path d="M350.82,279.91v25.46h-7.17v-2.7c-1.19,2.36-3.44,3.54-6.73,3.54c-3.09,0-5.58-1.07-7.45-3.2
		c-0.44-0.51-0.81-1.02-1.1-1.53c-0.29-0.51-0.53-1.07-0.71-1.68c-0.19-0.61-0.31-1.29-0.38-2.04c-0.07-0.75-0.1-1.63-0.1-2.64
		v-15.21h7.58v14.23c0,1.77,0.33,3.04,0.98,3.83s1.7,1.17,3.14,1.17c1.41,0,2.49-0.43,3.24-1.3c0.76-0.87,1.13-2.1,1.13-3.7v-14.23
		H350.82z"/>
	<path d="M364.66,279.04c2.68,0,4.85,0.71,6.51,2.14c1.66,1.42,2.61,3.37,2.85,5.85h-7.43c-0.14-1.25-0.86-1.88-2.19-1.88
		c-0.71,0-1.29,0.15-1.73,0.46c-0.44,0.31-0.66,0.7-0.66,1.17c0,0.58,0.31,1.09,0.92,1.55s1.62,0.87,3.01,1.25
		c1.33,0.37,2.41,0.7,3.24,0.97s1.52,0.54,2.07,0.81c0.54,0.27,1,0.58,1.35,0.94c0.36,0.36,0.72,0.79,1.1,1.3
		c0.78,1.15,1.17,2.48,1.17,3.97c0,1.22-0.27,2.37-0.81,3.43c-0.54,1.07-1.29,1.98-2.24,2.75c-0.95,0.76-2.07,1.37-3.36,1.81
		c-1.29,0.44-2.68,0.66-4.17,0.66c-1.42,0-2.73-0.2-3.92-0.58c-1.19-0.39-2.22-0.95-3.1-1.68c-0.88-0.73-1.59-1.61-2.14-2.65
		c-0.54-1.03-0.88-2.21-1.02-3.54h7.53c0.21,1.56,1.19,2.34,2.95,2.34c0.73,0,1.35-0.19,1.89-0.56c0.53-0.37,0.8-0.83,0.8-1.37
		c0-1.15-0.99-2-2.96-2.54l-4.49-1.17c-0.78-0.2-1.51-0.53-2.17-0.99c-0.66-0.46-1.23-0.99-1.71-1.6c-0.48-0.61-0.85-1.3-1.12-2.06
		c-0.27-0.76-0.41-1.55-0.41-2.37c0-1.15,0.26-2.25,0.78-3.28c0.52-1.03,1.25-1.92,2.17-2.67c0.93-0.75,2.01-1.34,3.26-1.78
		C361.9,279.26,363.23,279.04,364.66,279.04z"/>
</g>
</svg>
