<?xml version="1.0" encoding="utf-8"?>
<!-- Generator: Adobe Illustrator 24.2.1, SVG Export Plug-In . SVG Version: 6.00 Build 0)  -->
<svg version="1.1" id="Layer_1" xmlns="http://www.w3.org/2000/svg" xmlns:xlink="http://www.w3.org/1999/xlink" x="0px" y="0px"
	 viewBox="0 0 400 169" style="enable-background:new 0 0 400 169;" xml:space="preserve">
<style type="text/css">
	.st0{fill:#F07D24;}
	.st1{fill:#2F5EA9;}
	.st2{fill:#D35F1F;}
</style>
<path class="st0" d="M157.8,52.9l5.1-12.3c0,0,4-2.7,5.3-4.5c1.3-1.8,2.2-9.9,2.2-9.9s2.6-7.2,6.1-5.3s4.2,4.3,4.2,4.3
	s-0.3,3.5-1.9,5.1c-1.6,1.6-20.2,20.8-20.9,33.2c-0.5,9.6,0.1,11.5,1,15.2c2.6,11.7,8.5,15.5,8.5,15.5s32.8,0.2,39.6,1.6
	c6.9,1.4,22,2.8,27.7-10c2.5-5.6,3.6-7.2,3.5-19.4c0-5.8-5.4-42.8-44-36.3c0,0-1.5,1.1,2.1,0.6c3.8-0.5,8.8,2.4,8.8,2.4
	s12.3,6.6,9.5,18c-2.9,11.3-10.9,18.8-20.5,18.2c-7.2-0.5-18.4-5.6-17.6-17.1c0.8-11.5,8.8-17.4,8.8-17.4s5.1-4.5,4.6-10.1
	c-0.6-6.9-10.6-11.7-14.4-12.3c-2.8-0.5-15.2-1.3-20,13.1c-1.1,3.4,1.8,12.1,1.8,12.1L157.8,52.9z"/>
<path class="st1" d="M156.3,61.3l-6.2-0.3c-0.2-1.6-1.2-3-2.6-3.8l1-3.7l-2.2-0.6l-1,3.8c0,0,0,0-0.1,0c-1.7,0-3.3,0.9-4.1,2.3
	l-6.9-2.9c-0.1-0.6-0.3-1.1-0.6-1.6l14.5-10.1l-1.3-1.9l-15,10.5c-0.5-0.2-1.1-0.4-1.8-0.4c-2.3,0-4.2,1.9-4.2,4.2
	c0,0.5,0.1,0.9,0.2,1.4l-10,10.6c-0.6-0.2-1.2-0.4-1.9-0.4c-2.7,0-4.9,2.2-4.9,4.9c0,1.6,0.8,3,2,3.9l-4.6,12.8c-0.1,0-0.2,0-0.3,0
	c-2.5,0-4.5,2-4.5,4.5c0,2.5,2,4.5,4.5,4.5c2.5,0,4.5-2,4.5-4.5c0-0.3,0-0.5-0.1-0.8l20.2-8.6c0.5,0.2,1.1,0.3,1.8,0.3
	c0.5,0,1-0.1,1.4-0.2l6.7,6.9c-0.4,0.7-0.6,1.5-0.6,2.4c0,2.7,2.2,4.9,4.9,4.9c2.7,0,4.9-2.2,4.9-4.9c0-0.1,0-0.1,0-0.2l6-2.1
	l-0.8-2.2l-5.9,2c-0.8-1.5-2.4-2.5-4.3-2.5c-1,0-2,0.3-2.7,0.8l-6.2-6.4c0.9-0.9,1.5-2.1,1.5-3.5c0-0.7-0.2-1.4-0.5-2.1l6.8-12
	c0.4,0.1,0.9,0.2,1.3,0.2c2.1,0,3.9-1.3,4.6-3.2l6.3,0.3L156.3,61.3z M135.6,76.4c-0.8-0.6-1.8-1-2.9-1c-2.7,0-4.9,2.2-4.9,4.9
	c0,1.1,0.4,2.2,1,3l-19,8.1c-0.3-0.3-0.6-0.6-1-0.9l4.5-12.7c0.3,0,0.5,0.1,0.8,0.1c2.7,0,4.9-2.2,4.9-4.9c0-1.2-0.4-2.3-1.2-3.2
	l9.5-10.1c0.7,0.6,1.6,0.9,2.6,0.9c1.7,0,3.2-1,3.8-2.5l6.5,2.7c0,0.2,0,0.3,0,0.5c0,1.4,0.6,2.7,1.6,3.6L135.6,76.4z"/>
<path class="st1" d="M288.2,89c-0.3,0-0.5,0-0.8,0.1l-4.6-11.7c1.3-1,2.1-2.5,2.1-4.2c0-3-2.4-5.4-5.4-5.4c-0.7,0-1.3,0.1-1.9,0.3
	l-10.2-12.6c0.3-0.7,0.5-1.4,0.5-2.2c0-3-2.4-5.3-5.4-5.3c-1,0-1.9,0.3-2.6,0.7l-7.2-5.9c0.1-0.4,0.2-0.9,0.2-1.3
	c0-3-2.4-5.4-5.3-5.4c-1.3,0-2.5,0.5-3.5,1.3l-13.7-4.8l-0.8,2.2l13,4.5c-0.3,0.7-0.4,1.4-0.4,2.1c0,2.8,2.1,5,4.8,5.3l1.2,11.1
	c-1.2,0.7-2.1,2-2.4,3.4H242v2.3h3.7c0.5,2.4,2.7,4.2,5.2,4.2c0.9,0,1.8-0.2,2.6-0.7l8,12.7c-0.6,0.6-1.1,1.3-1.4,2.1l-14.1-0.4
	l-0.1,2.3l13.9,0.4c0.1,0.6,0.3,1.2,0.6,1.7l-6.9,6.7c-0.8-0.5-1.7-0.8-2.7-0.8c-2.1,0-3.8,1.3-4.5,3l-3.8-1.7l-0.9,2.1l4.4,1.9
	c0.2,2.5,2.3,4.4,4.9,4.4c2.7,0,4.9-2.2,4.9-4.9c0-0.9-0.2-1.8-0.7-2.5l6.9-6.6c0.8,0.5,1.7,0.8,2.7,0.8c1.7,0,3.1-0.8,4-2.1L283,93
	c-0.1,0.4-0.2,0.9-0.2,1.3c0,3,2.4,5.4,5.3,5.4s5.4-2.4,5.4-5.4C293.5,91.4,291.1,89,288.2,89z M249.2,46.5c1-0.3,1.8-0.9,2.4-1.6
	l6.6,5.4c-0.6,0.9-1,1.9-1,3.1c0,1.4,0.6,2.7,1.5,3.7l-3.5,2.2c-1-1.3-2.5-2.1-4.2-2.1c-0.2,0-0.4,0-0.6,0L249.2,46.5z M255.3,65.6
	c0.7-0.9,1-2,1-3.2c0-0.4,0-0.8-0.1-1.1l4.6-2.9c0.5,0.2,1.1,0.3,1.7,0.3c0.5,0,0.9-0.1,1.3-0.2v20.2c-0.1,0-0.2,0.1-0.3,0.1
	L255.3,65.6z M269.7,84.2c0-0.2,0.1-0.4,0.1-0.7c0-2.3-1.5-4.1-3.6-4.7V57.6l9.5,11.8c-1,1-1.5,2.3-1.5,3.8c0,3,2.4,5.3,5.3,5.3
	c0.4,0,0.8-0.1,1.2-0.1l4.6,11.6c-0.5,0.3-0.9,0.7-1.2,1.1L269.7,84.2z"/>
<path class="st2" d="M222.1,56.9c0-8.1-4.4-15.3-11.2-19.5c2.9,3.1,5.6,7.7,4.1,13.7c-2.9,11.3-10.9,18.8-20.5,18.2
	c-7.2-0.5-18.4-5.6-17.6-17.1c0.4-5.9,2.7-10.4,4.9-13.3c-5.5,4.3-9,10.7-9,18c0,12.8,11,23.2,24.7,23.2
	C211.1,80.1,222.1,69.7,222.1,56.9z"/>
<g>
	<path d="M104.1,138.7v-19.2h6.5c0.7,0,1.4,0,1.9,0.1c0.6,0,1.1,0.1,1.6,0.2c0.5,0.1,0.9,0.2,1.3,0.4c0.4,0.2,0.8,0.4,1.2,0.6
		c0.9,0.6,1.7,1.3,2.3,2.2c1.2,1.6,1.8,3.6,1.8,5.9c0,1.5-0.2,2.8-0.6,4c-0.4,1.2-1,2.2-1.8,3.1c-0.8,0.8-1.7,1.5-2.9,2
		c-1.1,0.5-2.4,0.7-3.7,0.7L104.1,138.7L104.1,138.7z M109,134.4h2.1c1.5,0,2.7-0.4,3.5-1.3c0.8-0.9,1.2-2.2,1.2-3.9
		c0-1.7-0.4-3.1-1.2-4c-0.8-0.9-2-1.4-3.5-1.4H109C109,123.8,109,134.4,109,134.4z"/>
	<path d="M123,138.7v-14.4h4.1v1.5c0.4-0.7,0.9-1.2,1.4-1.5c0.5-0.3,1.2-0.5,2.1-0.5h0.1v4.3c-1.2,0-2.1,0.3-2.6,0.6
		c-0.5,0.4-0.8,1.1-0.8,2v8L123,138.7L123,138.7z"/>
	<path d="M147.5,124.3v14.4h-4v-1.6c-0.7,1.4-2.2,2-4.5,2c-1.1,0-2.1-0.2-3-0.6c-0.9-0.4-1.7-0.9-2.3-1.6c-0.6-0.7-1.1-1.5-1.5-2.4
		c-0.4-0.9-0.5-2-0.5-3.1c0-1.1,0.2-2.2,0.5-3.1s0.9-1.8,1.5-2.4c0.7-0.7,1.4-1.2,2.3-1.6c0.9-0.4,1.9-0.6,3-0.6
		c1.1,0,2,0.2,2.7,0.5s1.3,0.8,1.7,1.6v-1.5L147.5,124.3L147.5,124.3z M139.5,127.8c-0.5,0-1,0.1-1.4,0.3c-0.4,0.2-0.8,0.4-1.1,0.8
		c-0.3,0.3-0.6,0.7-0.8,1.2c-0.2,0.4-0.3,0.9-0.3,1.4c0,0.5,0.1,1,0.3,1.4c0.2,0.4,0.4,0.8,0.8,1.2c0.3,0.3,0.7,0.6,1.2,0.8
		c0.4,0.2,0.9,0.3,1.4,0.3c0.5,0,1-0.1,1.5-0.3c0.4-0.2,0.8-0.4,1.1-0.8c0.3-0.3,0.6-0.7,0.8-1.2c0.2-0.5,0.3-1,0.3-1.5
		c0-0.5-0.1-1-0.3-1.4c-0.2-0.4-0.4-0.8-0.8-1.2c-0.3-0.3-0.7-0.6-1.2-0.8C140.5,127.9,140,127.8,139.5,127.8z"/>
	<path d="M150.4,143.5v-19.2h4.1v1.6c0.6-0.7,1.2-1.3,1.9-1.6c0.7-0.3,1.6-0.5,2.6-0.5c1,0,2,0.2,2.9,0.6c0.9,0.4,1.6,0.9,2.2,1.6
		c0.6,0.7,1.1,1.5,1.5,2.5c0.3,1,0.5,2,0.5,3.1c0,1.1-0.2,2.1-0.5,3c-0.4,0.9-0.9,1.7-1.5,2.4c-0.6,0.7-1.4,1.2-2.2,1.6
		c-0.9,0.4-1.8,0.6-2.8,0.6c-0.9,0-1.7-0.1-2.4-0.4c-0.7-0.3-1.3-0.7-1.9-1.4v6.1L150.4,143.5L150.4,143.5z M158.1,127.8
		c-0.5,0-1,0.1-1.4,0.3c-0.4,0.2-0.8,0.5-1.1,0.8c-0.3,0.3-0.6,0.7-0.8,1.2c-0.2,0.4-0.3,0.9-0.3,1.4c0,0.5,0.1,1,0.3,1.5
		c0.2,0.5,0.4,0.9,0.8,1.2c0.3,0.3,0.7,0.6,1.2,0.8c0.4,0.2,0.9,0.3,1.4,0.3c0.5,0,1-0.1,1.4-0.3c0.4-0.2,0.8-0.4,1.2-0.8
		s0.6-0.7,0.8-1.2c0.2-0.4,0.3-0.9,0.3-1.5c0-0.5-0.1-1-0.3-1.5c-0.2-0.4-0.4-0.8-0.8-1.2c-0.3-0.3-0.7-0.6-1.2-0.8
		C159.1,127.9,158.6,127.8,158.1,127.8z"/>
	<path d="M177.7,134.4c0,0,0-0.1,0.1-0.1s0.1-0.1,0.1-0.1h4.4c-0.7,1.6-1.6,2.8-2.9,3.7c-1.2,0.9-2.6,1.3-4.1,1.3
		c-1.1,0-2-0.2-3-0.6c-0.9-0.4-1.7-0.9-2.4-1.6c-0.7-0.7-1.2-1.5-1.6-2.4c-0.4-0.9-0.6-1.9-0.6-3s0.2-2.1,0.6-3
		c0.4-0.9,0.9-1.8,1.6-2.4c0.7-0.7,1.5-1.2,2.4-1.6s1.9-0.6,2.9-0.6c1.1,0,2.1,0.2,3,0.6c0.9,0.4,1.7,1,2.4,1.7
		c0.7,0.7,1.2,1.5,1.6,2.5c0.4,1,0.6,2,0.6,3.1c0,0.2,0,0.4,0,0.6c0,0.1,0,0.3-0.1,0.6h-10.8c0.1,0.8,0.4,1.5,1,1.9
		c0.6,0.5,1.3,0.7,2.2,0.7c0.5,0,1-0.1,1.4-0.2C176.8,135.1,177.2,134.8,177.7,134.4z M178.4,130c-0.2-0.7-0.5-1.4-1.1-1.8
		c-0.6-0.5-1.3-0.7-2.1-0.7c-0.8,0-1.6,0.2-2.1,0.6c-0.6,0.4-0.9,1.1-1.1,1.9L178.4,130L178.4,130z"/>
	<path d="M185,138.7v-14.4h4.1v1.5c0.4-0.7,0.9-1.2,1.4-1.5c0.5-0.3,1.2-0.5,2.1-0.5h0.1v4.3c-1.2,0-2.1,0.3-2.6,0.6
		c-0.5,0.4-0.8,1.1-0.8,2v8L185,138.7L185,138.7z"/>
	<path d="M211,134.7c2.1,0,3.6-1.1,4.6-3.2h5.1c-0.3,1.1-0.7,2.2-1.3,3.1c-0.6,0.9-1.3,1.7-2.2,2.4s-1.8,1.2-2.9,1.5
		c-1.1,0.4-2.2,0.5-3.3,0.5c-1.4,0-2.7-0.3-4-0.8c-1.2-0.5-2.3-1.2-3.2-2.1c-0.9-0.9-1.6-2-2.1-3.2c-0.5-1.2-0.8-2.5-0.8-3.9
		c0-1.4,0.3-2.7,0.8-3.9c0.5-1.2,1.2-2.3,2.1-3.2c0.9-0.9,2-1.6,3.2-2.1c1.2-0.5,2.5-0.8,4-0.8c1.8,0,3.4,0.4,4.9,1.2
		c1.5,0.8,2.7,1.9,3.6,3.4c0.2,0.3,0.4,0.6,0.5,0.9s0.2,0.5,0.3,0.7c0.1,0.2,0.2,0.5,0.2,0.7c0.1,0.2,0.1,0.5,0.2,0.8h-5.1
		c-0.4-1-1-1.9-1.8-2.5c-0.8-0.6-1.8-0.9-2.8-0.9c-0.7,0-1.4,0.1-2,0.4c-0.6,0.3-1.2,0.7-1.6,1.2c-0.5,0.5-0.8,1.1-1.1,1.8
		c-0.3,0.7-0.4,1.4-0.4,2.2c0,0.8,0.1,1.6,0.4,2.3c0.3,0.7,0.6,1.3,1.1,1.8c0.5,0.5,1,0.9,1.6,1.2
		C209.5,134.6,210.2,134.7,211,134.7z"/>
	<path d="M231.3,124.3h4.6l-7.2,19.2h-4.6l2.3-5.5l-5.4-13.7h4.6l2.9,8.4L231.3,124.3z"/>
	<path d="M252,124.3v12.7c0,0.8,0,1.5,0,2s-0.1,1-0.2,1.4c-0.1,0.4-0.2,0.7-0.4,1c-0.2,0.3-0.4,0.6-0.6,0.9c-0.8,0.9-1.8,1.6-3,2.1
		c-1.2,0.5-2.5,0.7-3.9,0.7c-1,0-1.9-0.1-2.7-0.4s-1.6-0.6-2.2-1s-1.2-1-1.5-1.6c-0.4-0.6-0.6-1.3-0.7-2.1h5
		c0.4,0.9,1.2,1.4,2.5,1.4c1.1,0,2-0.3,2.6-1c0.6-0.7,0.9-1.6,0.9-2.9v-0.5c-0.2,0.3-0.4,0.6-0.7,0.8c-0.3,0.3-0.6,0.5-1,0.7
		s-0.8,0.3-1.3,0.4c-0.5,0.1-0.9,0.2-1.4,0.2c-1,0-1.9-0.2-2.8-0.6c-0.9-0.4-1.6-0.9-2.2-1.6c-0.6-0.7-1.1-1.5-1.5-2.4
		c-0.4-0.9-0.5-1.9-0.5-3c0-1.1,0.2-2.1,0.6-3.1c0.4-1,0.9-1.8,1.5-2.5s1.4-1.2,2.3-1.6c0.9-0.4,1.9-0.6,2.9-0.6
		c1.8,0,3.2,0.6,4.2,1.8v-1.3L252,124.3L252,124.3z M244.2,127.8c-0.5,0-1,0.1-1.4,0.3c-0.4,0.2-0.8,0.4-1.1,0.8s-0.6,0.7-0.7,1.2
		c-0.2,0.4-0.3,0.9-0.3,1.4c0,1.1,0.3,2,1,2.7c0.7,0.7,1.5,1.1,2.5,1.1c1,0,1.9-0.3,2.5-1c0.7-0.7,1-1.5,1-2.6c0-1.1-0.3-2-1-2.7
		C246.1,128.1,245.2,127.8,244.2,127.8z"/>
	<path d="M254.9,138.7v-14.4h4.1v1.5c0.5-0.7,1.1-1.2,1.7-1.5c0.6-0.3,1.4-0.5,2.3-0.5c0.8,0,1.5,0.1,2.2,0.4
		c0.7,0.3,1.2,0.6,1.7,1.1c0.3,0.3,0.5,0.5,0.7,0.8c0.2,0.3,0.3,0.6,0.4,0.9c0.1,0.3,0.2,0.7,0.2,1.2c0,0.4,0.1,0.9,0.1,1.5v9H264
		v-7.9c0-1-0.2-1.8-0.5-2.3s-0.9-0.7-1.7-0.7c-1.7,0-2.5,0.9-2.5,2.8v8.1L254.9,138.7L254.9,138.7z"/>
	<path d="M284.4,124.3v14.4h-4.1v-1.5c-0.7,1.3-1.9,2-3.8,2c-1.8,0-3.2-0.6-4.2-1.8c-0.2-0.3-0.5-0.6-0.6-0.9s-0.3-0.6-0.4-1
		c-0.1-0.3-0.2-0.7-0.2-1.2c0-0.4-0.1-0.9-0.1-1.5v-8.6h4.3v8.1c0,1,0.2,1.7,0.6,2.2c0.4,0.4,1,0.7,1.8,0.7c0.8,0,1.4-0.2,1.8-0.7
		c0.4-0.5,0.6-1.2,0.6-2.1v-8.1L284.4,124.3L284.4,124.3z"/>
	<path d="M292.2,123.8c1.5,0,2.7,0.4,3.7,1.2c0.9,0.8,1.5,1.9,1.6,3.3h-4.2c-0.1-0.7-0.5-1.1-1.2-1.1c-0.4,0-0.7,0.1-1,0.3
		c-0.2,0.2-0.4,0.4-0.4,0.7c0,0.3,0.2,0.6,0.5,0.9c0.3,0.3,0.9,0.5,1.7,0.7c0.8,0.2,1.4,0.4,1.8,0.5c0.5,0.2,0.9,0.3,1.2,0.5
		c0.3,0.2,0.6,0.3,0.8,0.5c0.2,0.2,0.4,0.4,0.6,0.7c0.4,0.7,0.7,1.4,0.7,2.3c0,0.7-0.2,1.3-0.5,1.9c-0.3,0.6-0.7,1.1-1.3,1.6
		c-0.5,0.4-1.2,0.8-1.9,1c-0.7,0.2-1.5,0.4-2.4,0.4c-0.8,0-1.5-0.1-2.2-0.3c-0.7-0.2-1.3-0.5-1.8-1c-0.5-0.4-0.9-0.9-1.2-1.5
		c-0.3-0.6-0.5-1.3-0.6-2h4.3c0.1,0.9,0.7,1.3,1.7,1.3c0.4,0,0.8-0.1,1.1-0.3c0.3-0.2,0.5-0.5,0.5-0.8c0-0.7-0.6-1.1-1.7-1.4
		l-2.5-0.7c-0.4-0.1-0.9-0.3-1.2-0.6c-0.4-0.3-0.7-0.6-1-0.9c-0.3-0.3-0.5-0.7-0.6-1.2s-0.2-0.9-0.2-1.3c0-0.7,0.1-1.3,0.4-1.9
		c0.3-0.6,0.7-1.1,1.2-1.5c0.5-0.4,1.1-0.8,1.8-1C290.6,123.9,291.4,123.8,292.2,123.8z"/>
</g>
</svg>
